<svg width="97" height="16" viewBox="0 0 97 16" fill="none" xmlns="http://www.w3.org/2000/svg">
<g clip-path="url(#clip0)">
<path d="M28.7933 0.657562L31.2367 5.53291L36.7001 6.31466L32.7466 10.1097L33.6801 15.4682L28.7933 12.9381L23.9066 15.4682L24.8398 10.1097L20.8865 6.31466L26.3499 5.53291L28.7933 0.657562Z" fill="#BE1E2D" stroke="white" stroke-width="2.2258" stroke-miterlimit="10"/>
<path d="M49.0448 0.657562L51.4881 5.53291L56.9516 6.31466L52.998 10.1097L53.9315 15.4682L49.0448 12.9381L44.158 15.4682L45.0913 10.1097L41.138 6.31466L46.6014 5.53291L49.0448 0.657562Z" fill="#BE1E2D" stroke="white" stroke-width="2.2258" stroke-miterlimit="10"/>
<path d="M8.54184 0.657562L10.9852 5.53291L16.4486 6.31466L12.4951 10.1097L13.4286 15.4682L8.54184 12.9381L3.6551 15.4682L4.58832 10.1097L0.635071 6.31466L6.09847 5.53291L8.54184 0.657562Z" fill="#BE1E2D" stroke="white" stroke-width="2.2258" stroke-miterlimit="10"/>
<path d="M69.2962 0.657562L71.7396 5.53291L77.203 6.31466L73.2494 10.1097L74.1829 15.4682L69.2962 12.9381L64.4094 15.4682L65.3427 10.1097L61.3894 6.31466L66.8528 5.53291L69.2962 0.657562Z" stroke="white" stroke-width="2.2258" stroke-miterlimit="10"/>
<path d="M89.5477 0.657562L91.9911 5.53291L97.4547 6.31466L93.5012 10.1097L94.4344 15.4682L89.5477 12.9381L84.6612 15.4682L85.5944 10.1097L81.6409 6.31466L87.1043 5.53291L89.5477 0.657562Z" stroke="white" stroke-width="2.2258" stroke-miterlimit="10"/>
</g>
<defs>
<clipPath id="clip0">
<rect width="97" height="16" fill="white"/>
</clipPath>
</defs>
</svg>
