<svg width="25" height="22" viewBox="0 0 25 22" fill="none" xmlns="http://www.w3.org/2000/svg">
<path d="M25 4.4H17.627V0H7.37305V4.4H0V22H25C25 21.4571 25 4.78844 25 4.4ZM8.83789 1.46667H16.1621V4.4H8.83789V1.46667ZM1.46484 5.86667H23.5352V9.00396L16.1621 11.4511V10.2667H8.83789V11.4511L1.46484 9.00396C1.46484 8.36516 1.46484 6.62616 1.46484 5.86667ZM14.6973 13.2H10.3027V11.7333H14.6973V13.2ZM14.2447 14.6667L13.5122 16.1333H11.4878L10.7553 14.6667H14.2447ZM1.46484 20.5333V10.5489L8.83789 12.996V14.1064L10.5825 17.6H14.4175L16.1621 14.1064V12.996L23.5352 10.5489V20.5333H1.46484Z" fill="white"/>
</svg>
