<svg width="183" height="259" viewBox="0 0 183 259" fill="none" xmlns="http://www.w3.org/2000/svg">
<g filter="url(#filter0_d)">
<path d="M118.956 85.1569L118.956 85.157C119.899 85.9573 143.803 106.645 142.05 144.603C141.99 145.904 142.853 146.848 143.841 147.147C144.852 147.452 146.131 147.115 146.742 145.895C150.453 138.479 153.66 128.953 153.367 118.442C157.754 127.349 164.189 144.861 160.3 165.44C156.057 187.887 139.451 214.373 93.4864 237.453C90.5994 237.05 73.9874 234.352 57.4519 223.764C40.571 212.956 23.7471 193.922 21.6856 160.51C21.6657 160.187 21.6305 159.586 21.6061 158.955C22.333 159.123 23.1603 159.239 23.9479 159.298C24.8472 159.365 25.7974 159.366 26.5533 159.246C26.9073 159.191 27.3717 159.086 27.7756 158.848C27.9864 158.724 28.2718 158.511 28.4788 158.159C28.7089 157.769 28.7776 157.315 28.681 156.878C24.9022 139.783 26.2752 115.759 46.6417 87.5028C44.9398 95.5881 44.0726 108.865 51.5151 122.283C52.1428 123.415 53.3593 123.733 54.3336 123.464C55.2982 123.198 56.1691 122.321 56.1759 121.058C56.2168 113.395 57.0944 94.5375 63.8813 74.6289C70.5725 55.0009 82.9562 34.4893 105.812 22.5638C103.394 27.2226 100.287 35.3145 100.664 45.6747C101.067 56.7831 105.471 70.3469 118.732 84.9387C118.778 84.9888 118.847 85.0641 118.956 85.1569Z" stroke="#A7A7A7" stroke-width="3"/>
<path d="M122.142 222.537C122.21 222.488 122.273 222.43 122.327 222.365L122.142 222.537ZM122.142 222.537C114.336 228.109 105.217 233.583 94.5494 238.869C94.3776 238.955 94.1935 238.99 94.0034 238.965C91.9174 238.689 78.5531 236.689 63.6954 229.026C63.6002 228.976 63.5129 228.912 63.4385 228.835L122.142 222.537ZM107.362 157.023L107.362 157.023C108.147 157.691 120.541 168.548 120.402 188.289C120.393 189.568 121.259 190.487 122.252 190.765C123.28 191.054 124.555 190.671 125.116 189.415C126.564 186.171 127.754 182.344 128.055 178.169C131.762 186.949 135.694 204.036 121.217 221.354C113.529 226.837 104.544 232.234 94.027 237.454C91.5394 237.111 78.7014 235.062 64.4572 227.731C58.3415 221.38 53.4157 212.274 52.603 199.142C52.6021 199.127 52.6011 199.112 52.6001 199.095C52.8104 199.121 53.0213 199.14 53.2262 199.153C53.7643 199.186 54.3627 199.183 54.8633 199.098C55.0903 199.059 55.4488 198.981 55.7813 198.781C55.9559 198.677 56.2124 198.486 56.4021 198.163C56.6146 197.8 56.6806 197.375 56.5897 196.966C54.5992 188.004 55.1691 175.583 64.9048 160.929C64.9104 160.931 64.916 160.934 64.9217 160.937C64.9853 160.966 65.0444 161.002 65.094 161.039C65.1051 161.048 65.1153 161.056 65.1245 161.064C64.6963 165.287 65.0126 170.785 67.7593 176.426C68.3296 177.598 69.5407 177.976 70.5408 177.717C71.5177 177.465 72.3759 176.592 72.4095 175.355C72.5495 170.197 73.3584 160.104 77.1493 149.671C80.8531 139.478 87.3624 129.065 98.7786 122.534C97.4408 125.653 96.163 130.286 96.7415 135.934C97.367 142.039 100.149 149.198 107.129 156.8L107.129 156.8C107.204 156.881 107.281 156.955 107.362 157.023ZM64.5168 227.792C64.5162 227.792 64.5155 227.791 64.5149 227.79C64.5155 227.791 64.5162 227.792 64.5169 227.792L64.5168 227.792Z" stroke="#A7A7A7" stroke-width="3"/>
<path d="M99.6655 192.723L99.6656 192.723L99.8877 192.945C100.376 193.377 106.469 198.971 107.09 209.09C107.167 210.33 108.044 211.211 109.045 211.451C109.55 211.572 110.134 211.543 110.676 211.265C111.237 210.976 111.635 210.478 111.831 209.881C112.065 209.171 112.271 208.427 112.435 207.653C113.984 212.825 114.626 220.707 108.749 228.824C104.05 231.741 98.9806 234.624 93.4606 237.451C91.6195 237.188 84.2304 235.974 74.864 232.336C72.1918 228.926 70.112 224.32 69.6084 218.064C69.8349 218.071 70.0711 218.064 70.2917 218.033C70.4463 218.012 70.7537 217.959 71.0573 217.786C71.2185 217.694 71.471 217.517 71.6596 217.201C71.8718 216.845 71.9314 216.433 71.8469 216.047L70.3888 216.366L71.8469 216.047C70.817 211.34 70.9627 204.936 75.1664 197.362C75.2209 197.386 75.2732 197.414 75.3202 197.444C75.3444 197.459 75.3654 197.474 75.3833 197.488C75.4508 199.065 75.7277 200.801 76.3605 202.594C76.5601 203.159 76.9439 203.633 77.4802 203.914C78.0013 204.188 78.5699 204.228 79.0701 204.112C80.0742 203.88 80.9076 203.002 80.9771 201.806C81.1749 198.395 81.8304 193.028 83.8594 187.603C85.8087 182.39 88.9934 177.206 94.1797 173.601C92.9012 177.975 92.7779 184.972 99.6655 192.723ZM94.2682 173.224C94.2683 173.224 94.2696 173.224 94.2721 173.227C94.2695 173.225 94.2682 173.224 94.2682 173.224Z" stroke="#A7A7A7" stroke-width="3"/>
</g>
<defs>
<filter id="filter0_d" x="0.0793457" y="0.622864" width="182.921" height="258.35" filterUnits="userSpaceOnUse" color-interpolation-filters="sRGB">
<feFlood flood-opacity="0" result="BackgroundImageFix"/>
<feColorMatrix in="SourceAlpha" type="matrix" values="0 0 0 0 0 0 0 0 0 0 0 0 0 0 0 0 0 0 127 0"/>
<feOffset/>
<feGaussianBlur stdDeviation="10"/>
<feColorMatrix type="matrix" values="0 0 0 0 0.592157 0 0 0 0 0.592157 0 0 0 0 0.592157 0 0 0 1 0"/>
<feBlend mode="normal" in2="BackgroundImageFix" result="effect1_dropShadow"/>
<feBlend mode="normal" in="SourceGraphic" in2="effect1_dropShadow" result="shape"/>
</filter>
</defs>
</svg>
