<svg width="143" height="465" viewBox="0 0 143 465" fill="none" xmlns="http://www.w3.org/2000/svg">
<path d="M94.34 410.333C95.3046 409.764 96.4931 410.212 97.5611 409.988C97.9917 409.988 98.2673 409.643 98.2156 409.23C98.1154 408.39 97.9717 407.556 97.785 406.731C96.4759 400.848 95.1611 394.977 93.8405 389.117C92.141 381.408 90.4185 373.704 88.6731 366.006C87.364 360.129 86.0205 354.269 84.7286 348.392C83.0291 340.683 81.3066 332.979 79.5612 325.281C78.2349 319.318 76.8741 313.355 75.5478 307.392C73.8598 299.786 72.1832 292.174 70.5182 284.556C69.967 282.075 69.3986 279.61 68.7957 277.128C68.6869 276.408 68.3763 275.732 67.9 275.181C67.2455 277.904 66.6082 280.489 66.0397 283.091C64.989 287.779 63.99 292.467 62.9737 297.137L58.013 319.714C57.0656 323.937 56.101 328.159 55.1537 332.364C53.4312 340.085 51.7087 347.875 49.9863 355.493C48.6944 361.37 47.3509 367.23 46.0418 373.106C44.3308 380.804 42.6083 388.508 40.8744 396.218C40.082 399.802 39.2725 403.37 38.4973 406.955C38.2562 408.109 38.4112 408.247 39.548 408.351C40.6849 408.454 41.4428 408.127 42.3557 408.695C42.3923 409.626 42.2339 410.553 41.8906 411.418C40.0648 417.743 38.2562 424.086 36.3098 430.376C36.0678 431.031 35.9822 431.734 36.06 432.428C36.1377 433.123 36.3767 433.789 36.7576 434.375C39.2036 438.407 41.0466 442.768 43.2514 446.938C43.6483 447.687 43.8553 448.521 43.8542 449.368C43.8542 453.418 43.8542 457.486 43.8542 461.536C43.8542 461.622 43.8542 461.725 43.8542 461.812C43.7681 462.915 43.5442 463.173 42.5279 463.242C41.9595 463.242 41.3911 463.242 40.8055 463.242C37.8772 463.242 34.9663 463.242 32.0381 463.242C31.4304 463.307 30.8161 463.224 30.2467 463.003C29.6773 462.781 29.1693 462.425 28.7653 461.967C28.6445 461.823 28.5056 461.695 28.352 461.588C27.4907 460.881 27.0945 460.778 26.44 461.588C25.936 462.213 25.2808 462.7 24.5362 463.002C23.7917 463.303 22.9826 463.41 22.1855 463.311C19.5501 463.19 16.9147 463.311 14.2793 463.311C13.7666 463.367 13.2479 463.292 12.7719 463.093C12.296 462.895 11.8782 462.578 11.5578 462.174C10.886 461.346 10.4037 461.312 9.66308 462.174C9.20428 462.641 8.64384 462.996 8.0254 463.211C7.40697 463.427 6.74723 463.496 6.09756 463.414C4.37508 463.328 2.6526 463.414 0.930126 463.414C0.0516628 463.414 -0.275608 463.052 -0.310057 462.225C-0.310057 460.984 -0.310057 459.761 -0.310057 458.537C-0.310057 455.797 -0.310057 453.074 -0.310057 450.334C-0.330058 449.776 -0.238234 449.221 -0.0400136 448.7C0.158207 448.179 0.458801 447.703 0.844002 447.3C4.28895 443.423 7.61333 439.476 11.0066 435.564C11.6153 434.849 12.2652 434.169 12.953 433.53C13.6622 432.908 14.2178 432.129 14.5764 431.256C14.9349 430.383 15.0868 429.439 15.02 428.498C14.9166 422.948 15.02 417.381 15.02 411.815C15.02 411.056 15.02 410.298 15.02 409.557C15.0299 409.319 15.1234 409.091 15.284 408.915C15.4446 408.738 15.6621 408.624 15.8984 408.592C16.6047 408.42 17.4831 408.764 18.0343 408.127C18.5855 407.489 18.3616 406.507 18.3788 405.679C18.5683 400.595 19.1884 395.528 18.9989 390.444C19.7568 386.618 19.2056 382.723 19.619 378.897C20.0324 375.071 19.774 370.78 20.2046 366.833C20.6353 362.886 20.3252 358.905 20.7558 354.993C21.1864 351.081 20.8936 347.065 21.3242 343.153C21.7549 339.241 21.4448 335.053 21.9099 331.089C22.375 327.125 22.0305 323.368 22.4439 319.542C22.8573 315.716 22.5989 311.425 23.0295 307.478C23.4601 303.531 23.1501 299.55 23.5807 295.638C24.0113 291.726 23.7185 287.71 24.1491 283.798C24.5797 279.886 24.5281 275.905 24.6658 271.958C24.6658 271.114 24.9242 270.235 25.0276 269.459C25.073 269.273 25.0778 269.08 25.0415 268.892C25.0053 268.704 24.929 268.527 24.8178 268.371C24.7065 268.216 24.563 268.086 24.3971 267.991C24.2311 267.896 24.0467 267.839 23.8563 267.822C22.8573 267.598 21.841 267.408 20.8247 267.236L9.69753 265.409C8.90519 265.288 8.6296 264.651 9.09466 263.944C11.0066 261.031 12.953 258.136 14.8822 255.241C16.2774 253.121 17.6037 250.932 19.1195 248.916C20.6353 246.899 20.1013 246.537 18.6716 245.124C16.6047 243.073 14.5377 240.988 12.4879 238.92C12.0056 238.454 11.5578 237.972 11.0927 237.507C10.8122 237.253 10.6293 236.909 10.5759 236.534C10.5224 236.159 10.6016 235.778 10.7999 235.456C12.0573 232.819 13.2458 230.147 14.486 227.511C15.1406 226.149 15.8123 224.805 16.4841 223.443C17.948 220.391 18.9522 217.139 19.464 213.792C20.5319 207.588 21.7032 201.418 22.8056 195.213C22.8701 194.183 23.0375 193.161 23.3051 192.163C23.4543 191.579 23.3676 190.96 23.0639 190.44C22.3577 188.716 21.6687 186.993 21.0487 185.166C20.6869 184.097 20.4975 182.977 20.2391 181.891C18.2295 172.079 16.0764 162.296 13.7798 152.541C12.1779 145.647 10.6277 138.616 9.04299 131.653C8.57792 129.637 8.09563 127.62 7.59611 125.621C7.46363 125.218 7.445 124.785 7.54224 124.372C7.63949 123.958 7.84885 123.579 8.1473 123.277C9.76643 121.554 11.1789 119.693 12.798 117.986C14.8133 115.884 16.5874 113.557 18.5166 111.351C19.6362 110.076 20.8592 108.904 21.9616 107.646C23.0639 106.388 22.84 106.37 22.0649 105.181C21.5654 104.406 20.6353 103.751 20.6525 102.82C20.6697 101.889 21.8238 101.183 22.5128 100.459C24.1319 98.7356 25.9577 97.1672 27.4563 95.3921C30.6773 91.6867 34.1395 88.2398 37.5844 84.7413C37.9181 84.4901 38.1493 84.1261 38.2348 83.7172C38.3204 83.3082 38.2545 82.8821 38.0495 82.518C35.6208 77.3477 33.2955 72.1774 30.9184 67.1278C30.6084 66.4556 30.2122 65.818 29.7988 65.0079C28.4914 65.9753 27.2955 67.0851 26.2333 68.3169C25.1481 69.351 24.0802 70.4195 23.0467 71.5225C22.0132 72.6255 20.9625 73.9526 19.8774 75.1245C18.7922 76.2964 17.7587 77.2788 16.708 78.3473C15.6573 79.4159 14.4516 80.6395 13.2631 81.7942C12.2709 82.8991 11.1939 83.9248 10.042 84.8619C9.79535 84.6133 9.63024 84.2954 9.56869 83.9506C9.50714 83.6057 9.55209 83.2503 9.69753 82.9317C9.97313 81.5357 10.042 80.1397 10.2315 78.7437C10.8344 74.1766 11.6956 69.6612 12.2296 65.0941C12.798 60.0445 13.952 55.081 14.7961 50.1002C15.6401 45.1195 16.8458 40.5524 18.241 35.8474C19.2087 32.4034 20.4946 29.057 22.0821 25.8515C23.0491 23.9008 24.6282 22.3208 26.5778 21.3533C32.8993 18.0099 39.1519 14.5458 45.525 11.1334C47.8504 9.77185 50.2963 8.61715 52.6733 7.22117C56.8417 4.86006 61.1651 2.74024 65.4541 0.448067C65.9361 0.161304 66.4866 0.00994873 67.0474 0.00994873C67.6082 0.00994873 68.1586 0.161304 68.6407 0.448067C72.6196 2.39555 76.6157 4.25686 80.698 6.15264C82.3171 6.91095 83.9879 7.54862 85.5726 8.37587C86.0963 8.6784 86.6904 8.83766 87.2951 8.83766C87.8998 8.83766 88.4939 8.6784 89.0176 8.37587C92.7898 6.44562 96.5965 4.56708 100.386 2.68853C101.075 2.34385 101.747 2.01639 102.453 1.74064C102.584 1.69078 102.726 1.67831 102.864 1.70462C103.002 1.73094 103.13 1.79501 103.233 1.8897C103.337 1.98438 103.412 2.10597 103.451 2.24093C103.489 2.37588 103.49 2.5189 103.452 2.65406C103.021 4.96347 102.556 7.27287 102.143 9.5478C102.005 10.3751 101.953 11.2712 101.867 12.064C101.812 12.5745 101.901 13.0902 102.123 13.553C102.345 14.0158 102.692 14.4074 103.125 14.6836C106.466 17.4239 109.705 20.302 112.994 23.1112C115.785 25.4896 118.575 27.8852 121.4 30.229C122.072 30.7805 122.382 31.2976 121.986 32.142C121.59 32.9865 121.452 33.5553 121.142 34.2274C119.798 37.14 118.455 40.0526 117.077 42.948C114.786 47.7908 112.443 52.6337 110.187 57.4765C109.222 59.5274 108.327 61.5955 107.362 63.6464C107.064 64.1356 106.954 64.7164 107.052 65.2808C107.15 65.8452 107.45 66.3547 107.896 66.7141C108.248 67.0292 108.571 67.3753 108.861 67.7482C108.98 67.858 109.074 67.9912 109.139 68.1395C109.204 68.2878 109.238 68.448 109.238 68.6099C109.238 68.7719 109.204 68.932 109.139 69.0803C109.074 69.2287 108.98 69.3619 108.861 69.4716C107.379 71.0572 105.846 72.5911 104.313 74.1249C102.108 76.3309 102.591 75.9862 104.692 77.4856C111.427 82.1389 118.145 86.8094 124.948 91.3765C127.515 93.0999 126.929 93.6514 125.913 95.4266C125.707 95.7383 125.517 96.0604 125.345 96.3917C125.248 96.5562 125.197 96.7436 125.197 96.9346C125.197 97.1255 125.248 97.313 125.345 97.4775C125.621 97.8568 125.926 98.214 126.258 98.546C129.195 101.728 131.74 105.252 133.836 109.042C134.474 110.024 134.973 111.006 133.836 112.058C133.389 112.489 133.681 113.126 133.991 113.626C135.576 116.194 137.161 118.796 138.728 121.313C140.003 123.398 141.26 125.501 142.552 127.586C142.867 128.053 143.057 128.592 143.106 129.153C143.154 129.714 143.058 130.278 142.828 130.791C141.243 134.721 139.779 138.702 138.246 142.649C135.651 149.129 133.09 155.609 130.564 162.089C127.601 169.62 124.604 177.152 121.641 184.683C120.436 187.751 119.299 190.836 118.076 193.904C117.619 195.04 117.565 196.299 117.921 197.471C119.815 204.365 121.658 211.259 123.502 218.152C124.294 221.065 125.035 223.978 125.879 226.77C126.003 227.224 126.002 227.704 125.878 228.159C125.754 228.613 125.51 229.026 125.172 229.355C124.397 230.303 123.45 231.164 122.692 232.078C122.59 232.176 122.509 232.294 122.453 232.424C122.398 232.554 122.369 232.694 122.369 232.836C122.369 232.978 122.398 233.118 122.453 233.248C122.509 233.379 122.59 233.496 122.692 233.594C123.467 234.542 124.191 235.525 125.017 236.421C126.223 237.748 127.549 238.971 128.755 240.281C130.478 242.177 130.478 242.539 129.255 244.745C128.118 246.692 126.895 248.588 125.706 250.518C124.914 251.794 124.104 253.052 123.347 254.362C121.829 256.867 119.812 259.032 117.421 260.721C115.992 261.773 114.665 262.979 113.287 264.168C112.87 264.478 112.539 264.889 112.325 265.362C112.11 265.836 112.021 266.356 112.064 266.874C112.007 268.761 112.14 270.649 112.46 272.51C112.594 273.341 112.64 274.185 112.598 275.026C112.555 278.605 112.71 282.184 113.063 285.746C113.27 288.095 113.322 290.455 113.218 292.812C113.118 294.602 113.252 296.398 113.615 298.154C113.721 298.722 113.756 299.301 113.718 299.878C113.652 303.739 113.819 307.601 114.217 311.442C114.387 313.413 114.427 315.394 114.338 317.371C114.324 319.531 114.456 321.691 114.734 323.833C114.93 325.901 114.987 327.98 114.906 330.055C114.8 332.127 114.945 334.205 115.337 336.242C115.407 336.993 115.407 337.749 115.337 338.5C115.291 342.263 115.452 346.026 115.819 349.771C116.029 352.213 116.075 354.665 115.957 357.113C115.888 358.53 116.01 359.95 116.319 361.335C116.46 362.073 116.506 362.826 116.457 363.576C116.365 366.219 116.411 368.865 116.594 371.504C117.111 375.916 116.732 380.362 117.197 384.74C117.611 388.79 117.335 392.857 117.731 396.804C118.127 400.75 118.145 404.507 118.231 408.351C118.231 409.626 118.437 409.764 119.695 409.953C119.97 409.953 120.263 409.953 120.539 409.953C120.681 409.951 120.823 409.978 120.954 410.032C121.086 410.086 121.206 410.166 121.306 410.267C121.405 410.369 121.484 410.49 121.535 410.622C121.587 410.755 121.612 410.897 121.607 411.039C121.607 411.78 121.607 412.539 121.607 413.297C121.607 418.95 121.607 424.62 121.607 430.273C121.538 431.498 121.946 432.702 122.744 433.633C123.588 434.633 124.466 435.65 125.293 436.632C127.412 439.028 129.461 441.475 131.563 443.905C133.165 445.749 134.784 447.576 136.403 449.403C136.655 449.609 136.852 449.874 136.978 450.175C137.104 450.475 137.155 450.802 137.126 451.126C136.828 454.219 136.753 457.329 136.902 460.433C136.902 465.362 137.454 464.776 132.527 464.81C131.769 464.81 131.012 464.81 130.271 464.81C129.666 464.918 129.043 464.85 128.475 464.615C127.908 464.38 127.419 463.987 127.067 463.483C126.993 463.358 126.889 463.253 126.766 463.176C126.642 463.099 126.502 463.053 126.357 463.041C126.213 463.03 126.067 463.053 125.933 463.108C125.798 463.164 125.68 463.252 125.586 463.363C124.991 463.965 124.257 464.412 123.449 464.665C122.642 464.917 121.784 464.967 120.952 464.81C118.592 464.81 116.233 464.81 113.873 464.81C113.222 464.909 112.556 464.808 111.963 464.522C111.37 464.237 110.877 463.778 110.549 463.208C110.101 462.432 109.636 462.449 108.826 462.863C108.565 462.967 108.325 463.119 108.12 463.311C107.528 463.92 106.796 464.373 105.988 464.632C105.18 464.89 104.321 464.946 103.486 464.793C100.937 464.793 98.3189 464.793 95.8558 464.793C95.2013 464.793 94.5295 464.793 93.875 464.793C93.7333 464.8 93.5916 464.779 93.4583 464.73C93.325 464.682 93.2026 464.607 93.0984 464.511C92.9942 464.415 92.9102 464.299 92.8513 464.17C92.7924 464.04 92.7598 463.901 92.7553 463.759C92.7553 463.104 92.7553 462.449 92.7553 461.777C92.7553 458.675 92.7553 455.556 92.7553 452.453C92.702 450.943 93.0465 449.445 93.7544 448.11C95.8558 444.095 97.8022 440.01 99.8864 436.046C100.277 435.355 100.515 434.588 100.583 433.797C100.652 433.006 100.549 432.21 100.283 431.462C98.2673 424.896 96.3898 418.278 94.4606 411.694C94.2476 411.273 94.2044 410.785 94.34 410.333ZM56.1355 105.457C56.4111 106.112 57.014 106.095 57.5652 106.095C58.6159 106.095 58.7537 106.732 58.5986 107.646V107.921C58.3575 108.904 57.7719 109.852 58.3919 110.886C59.546 110.265 59.4082 109.076 59.6494 108.077C59.8905 107.077 60.3211 106.491 60.0111 105.612C59.432 105.258 58.7718 105.057 58.0934 105.03C57.4151 105.003 56.7411 105.15 56.1355 105.457ZM85.4176 146.578C83.6951 147.853 81.9726 149.215 80.2502 150.404C79.8018 150.649 79.4541 151.044 79.2682 151.52C79.0823 151.996 79.0702 152.522 79.2339 153.007C79.4071 154.078 79.7078 155.126 80.1296 156.126L86.4339 146.802C86.7956 146.561 86.8989 146.233 86.5372 145.975C86.1755 145.716 86.0549 145.975 85.831 146.164C85.6071 146.354 85.5382 146.492 85.452 146.578H85.4176ZM115.647 193.904C115.957 193.8 116.009 193.593 115.905 193.3C115.802 193.007 116.095 192.577 116.233 192.232C119.781 183.109 123.341 173.986 126.912 164.864C131.287 153.65 135.685 142.43 140.106 131.205C140.373 130.66 140.491 130.054 140.448 129.449C140.406 128.844 140.205 128.261 139.865 127.758C137.195 123.553 134.698 119.244 132.079 114.97C131.787 114.488 131.58 113.936 130.891 113.712C130.168 114.212 129.392 114.729 128.652 115.281C117.169 123.622 105.639 131.958 94.0644 140.288C92.7057 141.302 91.539 142.551 90.6195 143.976C86.2961 150.37 82.4033 157.057 77.7009 163.209C77.4785 163.508 77.3041 163.839 77.1842 164.192C77.122 164.375 77.1184 164.573 77.174 164.758C77.2296 164.944 77.3415 165.107 77.4942 165.226C77.7009 165.381 77.9937 165.226 78.2176 165.019C79.338 163.999 80.7027 163.287 82.1793 162.951C83.0897 162.73 83.938 162.305 84.6601 161.707C85.3822 161.11 85.9593 160.357 86.3477 159.504C86.52 159.159 86.3477 158.522 87.0884 158.608C88.1563 161.572 87.9324 162.778 85.9516 164.726C85.4176 165.243 84.8147 165.708 84.2291 166.208C83.9879 166.449 83.5745 166.639 83.8674 167.104C83.9361 167.155 84.0115 167.195 84.0913 167.225H85.8138C90.0855 167.346 90.275 167.225 93.1343 164.691C93.5132 167.552 92.6348 169.259 90.1889 170.206C89.4137 170.517 88.4664 170.62 87.7429 170.861C87.0946 170.999 86.4925 171.301 85.9947 171.738C85.4969 172.176 85.1202 172.735 84.9009 173.36C84.8416 173.522 84.8416 173.699 84.9009 173.86C85.0042 174.084 85.1937 174.084 85.4004 173.86C85.5576 173.757 85.725 173.67 85.8999 173.602C87.1942 173.027 88.589 172.713 90.0047 172.677C91.4203 172.642 92.8291 172.885 94.1506 173.395C94.4999 173.539 94.8563 173.666 95.2185 173.774C96.2899 174.154 97.4412 174.25 98.5608 174.054C99.6805 173.858 100.73 173.375 101.609 172.654C101.936 172.378 102.212 171.913 102.866 172.257C102.972 173.362 102.878 174.477 102.591 175.549C102.396 176.387 101.928 177.137 101.261 177.68C100.593 178.223 99.7645 178.528 98.9046 178.548C97.9744 178.548 97.0271 178.548 96.0797 178.548C94.7637 178.549 93.452 178.7 92.1697 178.996C91.5848 179.043 91.0266 179.261 90.5642 179.622C90.1019 179.984 89.7557 180.473 89.5688 181.03C91.1571 181.573 92.6551 182.351 94.0128 183.339C94.7478 183.876 95.6033 184.224 96.5042 184.354C97.4051 184.483 98.324 184.389 99.1802 184.08C99.6625 183.925 100.093 183.322 100.713 183.701C100.685 184.273 100.467 184.819 100.093 185.252C99.6168 186.2 98.8011 186.934 97.8085 187.308C96.8158 187.681 95.719 187.667 94.7362 187.268C94.029 187.004 93.3037 186.791 92.5659 186.631C91.7735 186.458 91.4463 186.631 90.2233 187.079C91.6855 187.979 92.9134 189.214 93.8061 190.681C94.2866 191.444 94.942 192.081 95.7178 192.539C96.4937 192.998 97.3677 193.265 98.2673 193.318C98.6634 193.318 99.163 193.128 99.5591 193.714C98.7418 194.568 97.6565 195.116 96.4842 195.267C95.3119 195.417 94.1235 195.161 93.1171 194.541C92.2558 194.042 91.3946 193.593 90.5334 193.145C90.3611 193.369 90.2405 193.456 90.2578 193.507C90.6712 194.748 91.0673 196.006 91.5324 197.23C91.7874 198.004 92.2075 198.713 92.7637 199.308C93.3199 199.903 93.9988 200.37 94.7534 200.677C95.3391 200.918 96.0625 200.935 96.3381 201.745C95.6205 201.986 94.8902 202.188 94.1506 202.348C93.1629 202.598 92.1205 202.513 91.1858 202.108C90.2512 201.703 89.4767 201 88.9831 200.108C88.6903 199.625 88.4147 199.143 88.1047 198.66C87.5375 197.719 86.7126 196.959 85.7276 196.472C85.142 196.213 84.5564 195.955 84.0052 196.472C84.0981 196.648 84.2077 196.816 84.3324 196.971C85.3706 198.008 86.1692 199.26 86.6722 200.638C87.1751 202.017 87.3701 203.489 87.2434 204.951C87.2075 205.525 87.2075 206.1 87.2434 206.674C87.216 207.702 87.4365 208.721 87.8863 209.645C88.336 210.569 89.0018 211.371 89.8271 211.982C90.2233 212.275 90.9123 212.344 90.7917 213.189C89.6721 213.189 88.5353 213.344 87.3468 213.361C86.5378 213.415 85.734 213.198 85.0609 212.746C84.3878 212.294 83.8833 211.632 83.6262 210.862C83.3334 210.173 83.1439 209.432 82.8683 208.742C82.386 207.502 81.9037 206.278 81.3353 205.089C80.9415 204.221 80.2682 203.511 79.4234 203.072C78.9755 202.848 78.321 203.072 78.3382 203.503C78.2931 204.918 78.0377 206.317 77.5803 207.657C77.2352 208.692 77.1584 209.798 77.3572 210.871C77.5561 211.944 78.024 212.949 78.7172 213.792C78.9239 214.051 79.2339 214.292 79.0961 214.723C75.3756 214.533 73.7048 212.999 73.5842 209.415C73.5842 208.656 73.5842 207.898 73.5842 207.157C73.6398 206.809 73.5807 206.453 73.416 206.142C73.2513 205.831 72.9899 205.582 72.6713 205.433C72.3455 206.194 71.9775 206.937 71.5689 207.657C71.1122 208.368 70.5995 209.043 70.0359 209.673C69.5539 210.257 69.193 210.931 68.9742 211.656C68.7554 212.381 68.683 213.142 68.7612 213.895C68.7612 214.706 68.9507 215.516 69.0368 216.326C68.3651 216.326 68.1067 215.946 67.745 215.688C67.0477 215.195 66.512 214.506 66.2055 213.708C65.8989 212.911 65.8353 212.041 66.0225 211.207C66.1775 210.38 66.4187 209.484 66.5393 208.725C66.5393 208.26 67.0216 207.708 66.4531 207.26C60.6656 210.707 61.1651 211.603 60.2867 215.378C57.8235 212.827 57.6341 210.518 59.701 207.95C60.0455 207.519 60.4589 207.122 60.8206 206.692C61.1866 206.255 61.4482 205.742 61.5855 205.189C61.7228 204.637 61.7322 204.06 61.613 203.503C61.613 203.348 61.5096 203.107 61.389 203.055C61.2685 203.003 60.8379 203.055 60.7173 203.365C60.1694 204.569 59.3459 205.627 58.3135 206.453C57.2812 207.28 56.0689 207.851 54.7747 208.122C50.0035 209.57 49.4695 210.069 47.1269 214.154C46.5677 213.404 46.2439 212.504 46.1968 211.569C45.9817 210.546 46.0618 209.482 46.4278 208.503C46.7937 207.523 47.4305 206.668 48.2638 206.037C48.9337 205.525 49.6294 205.047 50.348 204.606C50.9681 204.175 51.6226 203.779 52.2083 203.314C52.5506 203.06 52.8384 202.74 53.0544 202.373C53.2704 202.006 53.4103 201.599 53.4657 201.177C53.4657 200.694 53.1039 200.108 52.7078 200.28C51.4509 200.68 50.1312 200.843 48.815 200.763C47.867 200.757 46.9303 200.969 46.0764 201.381C45.2226 201.793 44.4743 202.395 43.8887 203.141C43.6303 203.469 43.5786 204.02 43.0102 204.072C42.4935 202.521 42.4763 202.521 42.6485 201.676C42.7289 200.664 43.1572 199.711 43.8606 198.979C44.564 198.247 45.4991 197.781 46.5069 197.661C47.2517 197.575 47.9817 197.389 48.6772 197.109C49.0394 197.013 49.3658 196.814 49.6167 196.535C49.8675 196.257 50.0318 195.911 50.0896 195.541C48.3621 195.525 46.6497 195.217 45.0255 194.627C43.9592 194.111 42.7667 193.912 41.5906 194.056C40.4146 194.2 39.3048 194.679 38.394 195.438C38.1606 195.571 37.9119 195.675 37.6533 195.748C38.2045 193.714 38.5146 193.076 39.3758 192.301C40.2331 191.558 41.2969 191.095 42.4246 190.974C43.6131 190.819 44.7844 190.612 46.4207 190.353C45.1116 189.423 44.1815 188.63 43.1652 188.027C42.3026 187.365 41.2958 186.917 40.227 186.72C39.1583 186.522 38.058 186.58 37.016 186.889C36.8986 186.949 36.7639 186.967 36.6351 186.939C36.5062 186.91 36.3912 186.838 36.3098 186.734C38.3595 183.425 40.082 182.839 43.5614 184.252C44.2568 184.54 44.9703 184.782 45.6973 184.976C46.1938 185.106 46.7145 185.11 47.2133 184.99C47.7121 184.87 48.1735 184.628 48.5566 184.287C48.3499 184.063 48.2466 183.856 48.126 183.822C45.5003 183.36 43.1414 181.934 41.5117 179.823C41.1327 179.392 40.7538 178.979 40.3921 178.548C38.7824 176.656 36.5059 175.459 34.0361 175.204C33.7605 175.204 33.4677 175.204 33.2093 175.204C33.1309 175.186 33.0575 175.15 32.9949 175.099C32.9323 175.049 32.8819 174.984 32.8476 174.911C32.834 174.82 32.8392 174.728 32.8629 174.639C32.8866 174.55 32.9283 174.467 32.9854 174.394C33.6904 173.768 34.4934 173.261 35.3624 172.895C36.3683 172.363 37.5043 172.128 38.6386 172.216C39.7729 172.305 40.8587 172.713 41.77 173.395C42.6946 174.025 43.655 174.6 44.6466 175.118C45.6179 175.702 46.695 176.089 47.8159 176.256C48.5566 176.256 49.3317 176.376 49.7796 175.515C49.2601 174.737 48.7829 173.931 48.3499 173.102C47.9021 172.171 47.5748 171.189 47.2131 170.224C46.9137 169.275 46.3842 168.414 45.6719 167.72C44.9597 167.025 44.0867 166.518 43.1308 166.243L41.9767 165.967C42.8621 165.252 43.9654 164.862 45.103 164.862C46.2407 164.862 47.344 165.252 48.2293 165.967C49.1066 166.681 49.8577 167.537 50.4513 168.5C50.7993 169.056 51.2096 169.571 51.6743 170.034C51.7871 170.116 51.9171 170.171 52.0545 170.195C52.1918 170.219 52.3328 170.211 52.4666 170.172C52.6905 170.172 52.7594 169.776 52.6389 169.465C52.0488 168.068 51.8179 166.545 51.9671 165.036C52.058 163.999 51.8899 162.955 51.4781 161.998C51.0662 161.041 50.4234 160.202 49.6073 159.556C49.3489 159.332 48.9355 159.194 49.28 158.711C50.5963 158.522 51.9367 158.811 53.0584 159.525C54.1801 160.24 55.009 161.333 55.3948 162.606C55.6188 163.123 55.8255 163.657 56.0666 164.157C56.0935 164.236 56.1361 164.309 56.1918 164.371C56.2475 164.433 56.3151 164.484 56.3907 164.519C56.4663 164.555 56.5483 164.574 56.6317 164.577C56.7151 164.58 56.7983 164.566 56.8762 164.536C57.2551 163.106 57.7202 161.606 58.0474 160.09C58.2379 159.404 58.2764 158.684 58.1604 157.982C58.0444 157.28 57.7766 156.611 57.3757 156.023C57.1518 155.712 56.6178 155.402 56.9967 154.868C60.3383 155.73 61.6474 157.487 61.389 160.693C61.2861 161.343 61.2343 162 61.234 162.658C61.2159 163.285 61.4178 163.899 61.8047 164.394C62.1917 164.888 62.7393 165.231 63.3527 165.364C63.146 161.417 63.3527 160.762 65.5574 157.453C65.9364 156.901 66.2981 156.35 66.6598 155.73C67.424 154.775 67.9326 153.641 68.1375 152.434C68.3424 151.228 68.237 149.99 67.8311 148.836C67.7912 148.66 67.7912 148.477 67.8311 148.302C71.8273 150.025 72.6885 151.99 71.4311 156.074C71.2588 156.609 71.0521 157.143 70.9143 157.677C70.643 158.582 70.4301 159.503 70.277 160.435C70.1071 161.067 70.1348 161.736 70.3565 162.353C70.5783 162.969 70.9833 163.502 71.5172 163.881C72.6666 162.306 74.1189 160.976 75.789 159.969C76.0963 159.753 76.3742 159.499 76.6157 159.211C77.0293 158.821 77.3342 158.329 77.5003 157.785C77.6664 157.241 77.6881 156.664 77.5631 156.109C77.1842 154.385 76.8224 152.8 76.5813 151.128C76.442 150.292 76.0653 149.515 75.4961 148.888C73.6875 146.595 71.8962 144.286 70.0703 141.994C69.812 141.666 69.6225 141.115 69.1057 141.235C68.589 141.356 68.5546 141.839 68.4168 142.183L64.9718 150.542C64.3862 151.938 63.8177 153.317 63.2493 154.713C63.2493 154.816 62.9737 154.851 62.8015 154.868C62.6292 154.885 62.612 154.868 62.5948 154.73C62.4843 154.374 62.398 154.012 62.3364 153.644C61.5613 148.474 60.769 143.304 60.0627 138.254C60.0261 137.801 59.8675 137.366 59.6036 136.996C59.3398 136.625 58.9805 136.334 58.5642 136.151C54.1475 133.819 49.9804 131.041 46.1279 127.862C39.3696 122.417 32.9822 116.527 27.0084 110.231C26.3871 109.397 25.6231 108.679 24.752 108.111C24.0113 108.421 23.6496 109.111 23.1673 109.645C19.7223 113.528 16.2774 117.418 12.8324 121.313C12.0745 122.157 11.3511 123.036 10.576 123.846C10.2763 124.137 10.0617 124.504 9.95547 124.908C9.84922 125.312 9.85532 125.737 9.97313 126.138C10.2659 127.638 11.0583 128.947 11.3511 130.43C11.3211 130.497 11.3059 130.57 11.3064 130.644C11.307 130.717 11.3233 130.79 11.3543 130.857C11.3853 130.924 11.4303 130.984 11.4862 131.032C11.5421 131.08 11.6076 131.115 11.6784 131.136L11.7817 131.688C11.5808 131.797 11.4204 131.969 11.3243 132.177C11.2281 132.385 11.2013 132.618 11.2478 132.842C11.3379 133.827 11.6437 134.781 12.1434 135.634C14.4975 145.768 16.8515 155.902 19.2056 166.036C19.8257 168.69 20.3769 171.344 20.9281 173.998C20.9274 175.111 21.1869 176.209 21.686 177.204C21.686 177.376 22.1683 177.445 22.4094 177.548C22.6818 181.542 23.6556 185.457 25.2859 189.113C25.2859 189.268 25.2859 189.474 25.4582 189.63C25.6956 190.085 25.8407 190.583 25.885 191.094C25.9293 191.606 25.8721 192.122 25.7166 192.611C25.3561 193.769 25.2331 194.989 25.3548 196.196C25.2452 196.225 25.1428 196.277 25.0539 196.347C24.965 196.418 24.8917 196.506 24.8383 196.606C24.785 196.707 24.7529 196.817 24.744 196.93C24.735 197.043 24.7495 197.157 24.7864 197.264C23.529 204.399 22.2544 211.534 21.0142 218.669C20.8094 219.587 20.4851 220.473 20.0496 221.306C18.0745 225.557 16.0822 229.82 14.0726 234.094C13.1425 236.093 13.1425 235.818 14.7272 237.42C17.1559 239.919 19.6018 242.401 22.0305 244.883C22.0452 244.989 22.0843 245.09 22.1449 245.178C22.2054 245.267 22.2856 245.339 22.3792 245.391C22.4728 245.443 22.5772 245.473 22.6841 245.477C22.791 245.481 22.8974 245.461 22.9951 245.417C23.5635 246.262 23.219 246.968 22.7195 247.709C19.8774 251.932 17.087 256.171 14.2793 260.411C13.8659 261.031 13.4353 261.652 13.0391 262.307C12.643 262.962 12.9358 263.324 13.6765 263.444L33.9845 266.891L63.1804 271.837C64.5652 272.104 65.9826 272.156 67.3833 271.993L76.6157 270.7L95.4252 267.994C98.5773 267.546 101.747 267.098 104.916 266.702C106.317 266.517 107.631 265.916 108.688 264.978C111.685 262.41 114.751 259.911 117.852 257.447C119.034 256.49 120.027 255.321 120.78 254C122.503 251.018 124.432 248.071 126.258 245.107L127.291 243.383C127.425 243.19 127.484 242.954 127.459 242.72C127.434 242.486 127.325 242.269 127.153 242.108L125.827 240.66L119.729 233.974C119.419 233.646 119.04 233.319 119.35 232.784C119.683 232.681 119.976 232.478 120.191 232.205C120.406 231.931 120.534 231.598 120.556 231.25C121.086 230.531 121.667 229.851 122.296 229.217C122.789 228.787 123.136 228.214 123.287 227.577C123.438 226.941 123.387 226.272 123.14 225.667C121.417 219.79 119.902 213.913 118.3 208.019L114.734 195.024C114.838 195.025 114.941 195.004 115.035 194.961C115.13 194.918 115.214 194.855 115.282 194.776C115.349 194.697 115.398 194.604 115.426 194.504C115.453 194.404 115.458 194.299 115.44 194.197C115.433 194.161 115.433 194.124 115.441 194.088C115.45 194.053 115.467 194.02 115.49 193.991C115.513 193.963 115.542 193.941 115.576 193.925C115.609 193.91 115.645 193.903 115.682 193.904H115.647ZM98.9218 269.735C97.8955 269.657 96.8649 269.657 95.8386 269.735C91.7391 270.252 87.6396 270.838 83.5573 271.458C83.2011 271.566 82.864 271.729 82.5583 271.941C80.6119 272.217 78.631 272.406 76.7019 272.82C74.7727 273.233 72.6024 272.992 70.6904 273.957C72.034 279.989 73.3258 285.883 74.6349 291.76C78.321 308.305 81.9956 324.845 85.6587 341.378L97.2338 393.495C98.3878 398.665 99.5419 403.835 100.679 409.006C100.851 409.747 101.109 410.212 101.936 410.212H114.941C115.699 410.212 115.923 409.953 115.888 409.178C115.785 406.731 115.63 404.283 115.526 401.836C115.056 390.99 114.596 380.155 114.148 369.332C113.942 364.438 113.735 359.543 113.494 354.648C113.029 344.308 112.529 333.967 112.064 323.627C111.582 312.976 111.169 302.342 110.704 291.691C110.6 289.537 110.411 287.366 110.256 285.211C110.256 284.66 110.256 284.108 110.256 283.488L109.67 268.856C109.687 268.58 109.687 268.304 109.67 268.029C109.705 267.94 109.705 267.842 109.67 267.753C109.67 267.753 109.498 267.753 109.274 267.649C108.773 267.979 108.242 268.262 107.689 268.494C106.962 268.648 106.225 268.757 105.484 268.821C103.211 269.045 101.092 269.39 98.9563 269.718L98.9218 269.735ZM26.9395 285.056C26.1644 285.625 26.9395 286.073 27.0601 286.573C26.7396 287.562 26.6053 288.602 26.6639 289.64C26.3883 295.569 26.1472 301.498 25.8716 307.444C25.6649 311.959 25.441 316.474 25.2343 320.99C24.7405 330.986 24.2467 340.97 23.7529 350.943C23.4946 356.596 23.2706 362.249 22.9951 367.884C22.3635 381.074 21.7147 394.287 21.0487 407.523C21.0487 407.782 20.9625 408.092 21.6343 408.489H35.0696C35.7414 408.489 36.017 408.075 36.1548 407.437C36.8782 403.99 37.6533 400.63 38.4112 397.235C42.4418 379.035 46.4609 360.836 50.4685 342.636C55.28 321.024 60.08 299.424 64.8685 277.835C65.2799 276.734 65.473 275.563 65.4369 274.388L41.3394 270.148C39.5626 269.474 37.6762 269.135 35.7758 269.149C35.0352 269.149 34.2945 268.994 33.5538 268.89C31.9864 268.632 30.4189 268.339 28.8515 268.098C28.128 267.994 27.8524 268.253 27.7835 269.028C27.7835 269.494 27.7835 269.959 27.7835 270.424C27.439 275.302 27.1979 280.162 26.974 285.039L26.9395 285.056ZM11.3339 440.165C12.6725 439.731 13.9603 439.153 15.175 438.442C17.6089 437.302 20.2712 436.734 22.9581 436.782C25.645 436.83 28.2854 437.492 30.6773 438.718C33.5055 440.22 36.0336 442.229 38.1356 444.646C38.5146 445.06 38.8418 445.525 39.238 445.922C39.3051 445.981 39.3851 446.025 39.4717 446.049C39.5583 446.073 39.6493 446.076 39.7375 446.059C39.8023 446.005 39.8533 445.936 39.8862 445.858C39.9191 445.78 39.9331 445.696 39.927 445.611C39.8389 445.246 39.7058 444.893 39.5308 444.56C37.9289 441.492 36.2926 438.425 34.7251 435.322C34.5137 434.855 34.1599 434.467 33.7143 434.213C33.2688 433.959 32.7543 433.853 32.2447 433.909C27.3529 433.909 22.4783 433.909 17.5865 433.909C17.0721 433.886 16.5596 433.987 16.0921 434.203C15.6245 434.419 15.2156 434.743 14.8994 435.15C13.8315 436.443 12.7119 437.718 11.6612 439.028C11.4707 439.341 11.3366 439.685 11.265 440.045C11.0958 440.08 10.929 440.126 10.7655 440.183C10.5243 440.303 10.2832 440.51 10.4726 440.751C10.6621 440.993 10.9033 440.751 11.0755 440.596C11.1857 440.437 11.2836 440.27 11.3683 440.096L11.3339 440.165ZM97.3027 447.524C97.5356 447.5 97.7601 447.424 97.9598 447.302C98.1595 447.18 98.3293 447.014 98.4567 446.818C100.353 444.446 102.693 442.467 105.347 440.993C108.087 439.317 111.247 438.457 114.459 438.511C117.005 438.556 119.512 439.144 121.814 440.234C123.002 440.786 124.156 441.406 125.258 441.958C125.586 442.113 125.896 442.406 126.378 441.958C124.845 440.234 123.329 438.511 121.814 436.667C121.507 436.309 121.123 436.026 120.689 435.841C120.256 435.655 119.786 435.572 119.316 435.598C114.424 435.598 109.549 435.598 104.658 435.598C104.092 435.553 103.527 435.698 103.053 436.01C102.578 436.322 102.222 436.784 102.039 437.322C100.868 439.786 99.5936 442.199 98.3878 444.646C97.8207 445.513 97.4178 446.477 97.1993 447.49L96.9926 447.783L97.3027 447.524ZM112.512 431.048C112.749 431.042 112.984 431.085 113.203 431.174C113.423 431.263 113.621 431.396 113.787 431.565C114.993 433.048 116.629 432.789 118.214 432.703C118.355 432.708 118.496 432.683 118.628 432.631C118.76 432.579 118.879 432.501 118.979 432.401C119.08 432.3 119.158 432.181 119.21 432.049C119.262 431.917 119.286 431.776 119.281 431.634C119.281 431.255 119.281 430.876 119.281 430.497C119.281 425.039 119.281 419.57 119.281 414.09C119.281 413.642 119.281 413.159 118.92 412.832C117.141 412.915 115.372 413.145 113.632 413.521C113.167 412.901 112.478 412.987 111.909 412.987C111.341 412.987 110.394 412.987 109.653 412.987C108.912 412.987 108.327 412.642 107.93 413.418L109.257 415.141C108.972 415.129 108.693 415.06 108.436 414.939C108.179 414.818 107.948 414.646 107.758 414.434C107.157 413.842 106.429 413.393 105.63 413.121C104.83 412.849 103.98 412.762 103.142 412.866C101.562 413.067 99.9568 412.92 98.4395 412.435C98.3541 412.393 98.2584 412.376 98.1636 412.386C98.0689 412.397 97.9791 412.434 97.9048 412.494C97.8306 412.554 97.775 412.633 97.7446 412.724C97.7142 412.814 97.7103 412.911 97.7333 413.004C97.7839 413.585 97.8818 414.162 98.0261 414.727C99.7486 420.38 101.368 426.016 103.004 431.669C103.063 431.99 103.242 432.277 103.504 432.472C103.766 432.667 104.092 432.756 104.417 432.72C104.829 432.79 105.251 432.757 105.648 432.625C106.044 432.493 106.402 432.265 106.69 431.962C106.945 431.681 107.252 431.455 107.595 431.295C107.938 431.135 108.31 431.045 108.688 431.031C108.585 431.565 107.879 431.807 107.965 432.272C108.051 432.737 108.447 432.72 108.705 432.72C110.083 432.72 111.461 432.72 112.839 432.72C113.322 432.72 113.408 432.375 113.201 431.979C112.994 431.583 112.736 431.29 112.547 430.979L112.512 431.048ZM22.5989 411.263C22.1338 411.263 21.6687 411.143 21.2037 411.056C20.665 410.92 20.1186 410.816 19.5673 410.746C18.1721 410.746 17.6554 411.125 17.552 412.47C17.552 412.849 17.552 413.228 17.552 413.59C17.552 418.588 17.552 423.574 17.552 428.549C17.552 430.997 17.6726 431.066 20.0841 431.066C21.0221 431.135 21.9532 430.859 22.7022 430.29C23.0284 430.105 23.3837 429.977 23.7529 429.911C23.7529 430.324 23.2706 430.876 24.0285 430.997C24.6766 431.04 25.3269 431.04 25.9749 430.997C26.5261 430.997 27.0945 430.997 27.6974 430.997C28.3536 431.092 29.0235 430.997 29.6266 430.721C29.3142 430.433 28.9864 430.163 28.6448 429.911C27.936 429.312 27.1403 428.823 26.285 428.463C25.3721 428.205 25.1826 429.618 24.3214 429.773L23.7702 429.894C23.9005 429.549 24.0559 429.215 24.2352 428.894C25.0965 427.653 25.1137 427.653 23.8907 426.757C23.0812 426.154 22.1683 425.568 21.4448 424.913C21.3777 424.848 21.3277 424.767 21.2993 424.678C21.2709 424.588 21.265 424.493 21.282 424.401C21.2991 424.309 21.3386 424.223 21.397 424.15C21.4555 424.077 21.531 424.019 21.6171 423.982C21.9505 423.821 22.3038 423.705 22.6678 423.638C22.5128 424.137 22.0994 424.654 22.7711 425.102C23.2472 425.381 23.7073 425.686 24.1491 426.016C25.2687 426.86 26.3539 427.291 27.5941 426.016C27.7663 425.861 28.128 425.878 28.3864 425.809C27.129 427.757 27.1462 427.757 28.8859 429.015C29.5749 429.514 30.1778 430.135 30.884 430.583C31.1637 430.784 31.487 430.917 31.8276 430.969C32.1681 431.022 32.5163 430.993 32.8437 430.886C33.1711 430.778 33.4684 430.595 33.7116 430.351C33.9547 430.106 34.1367 429.808 34.2428 429.48C34.3462 429.221 34.4495 428.946 34.5356 428.687C35.6897 424.706 36.861 420.742 37.9806 416.761C38.4629 415.038 38.9452 413.314 39.393 411.591C39.548 411.022 39.2725 410.626 38.7213 410.626C36.0089 410.337 33.2675 410.5 30.6084 411.108C30.2811 410.936 29.9883 410.626 29.661 410.626C27.64 410.626 25.6247 410.626 23.6151 410.626C23.2534 410.712 22.9434 411.022 22.6333 411.194L22.5989 411.263ZM72.9124 48.5491C72.8175 48.465 72.749 48.355 72.7154 48.2326C72.6817 48.1102 72.6844 47.9807 72.7229 47.8598C73.3074 46.6242 73.6634 45.2929 73.7737 43.9303C71.1038 45.447 71.0349 45.6538 72.654 47.8598C72.8091 48.0838 73.0158 48.2045 72.9124 48.4974C73.3947 48.7732 73.2741 49.1006 72.9124 49.3419C70.474 51.1122 67.7545 52.4581 64.8685 53.3231C63.721 53.7767 62.4759 53.9262 61.2538 53.7571C60.0316 53.5881 58.8738 53.1061 57.8924 52.3579C57.7719 52.2718 57.5479 52.3579 57.1862 52.2718V60.6649C57.1862 61.2681 57.5652 61.4577 58.0991 61.4749C60.1688 61.5019 62.2357 61.3113 64.2656 60.9062C69.0991 60.0912 73.7589 58.4593 78.0454 56.0806C78.518 55.8867 78.9156 55.5456 79.1793 55.1079C79.443 54.6702 79.5588 54.1592 79.5095 53.6505C79.3889 51.1171 79.5095 48.5664 79.5095 46.0157C79.5429 45.8135 79.5087 45.6059 79.4121 45.4252C79.3156 45.2444 79.1621 45.1006 78.9755 45.0161C78.2865 45.5331 77.5459 46.1019 76.788 46.6361C75.7201 47.4117 74.6349 48.1528 73.5497 48.8766C73.2052 49.1006 73.0674 48.756 72.9124 48.5491ZM12.6257 78.4507C13.6765 78.4507 14.0209 77.7269 14.5205 77.2099C22.375 69.0982 30.2295 60.9636 38.0839 52.806C38.6938 52.0193 39.4553 51.3629 40.3232 50.8758C40.3232 53.1852 40.4265 55.2361 40.461 57.3387C41.4105 57.1561 42.3024 56.7483 43.0619 56.1495L79.4062 34.7961C80.0262 34.4342 80.5602 33.831 81.5592 34.0033V36.7953C81.5592 41.6899 81.5592 46.6017 81.5592 51.4962C81.5592 51.7547 81.4387 52.0822 81.8348 52.2028C81.9632 52.2479 82.1021 52.254 82.2339 52.2202C82.3657 52.1865 82.4846 52.1145 82.5755 52.0132L88.4492 47.1187C88.7764 46.8257 89.1037 46.3948 89.6377 46.6706C89.6377 46.7568 89.7755 46.8257 89.7755 46.8946V76.6067C89.7584 76.7901 89.7584 76.9747 89.7755 77.1582C89.7755 77.2616 89.7755 77.3822 89.7755 77.4339C89.7755 77.4856 89.9477 77.4339 90.2405 77.4339L99.5247 57.8902C101.592 59.3034 102.625 61.5955 104.692 62.8364C104.933 62.4056 105.123 62.0781 105.278 61.7507L118.851 33.4346C119.006 33.0899 119.161 32.7452 119.333 32.4178C119.441 32.2059 119.472 31.9634 119.422 31.7311C119.372 31.4989 119.243 31.291 119.058 31.1424C118.575 30.6944 118.059 30.2807 117.559 29.8499L100.903 15.7694C100.472 15.4075 100.059 15.0111 99.5936 14.6836C99.3625 14.5179 99.1875 14.2855 99.0921 14.0176C98.9967 13.7496 98.9853 13.4588 99.0596 13.1843C99.0596 12.8223 99.2319 12.4604 99.2835 12.0813C99.6108 10.1338 99.9381 8.18629 100.248 6.22157C100.248 5.61837 99.9553 5.34262 99.4213 5.5839C98.8874 5.82518 98.5773 5.98029 98.1639 6.20434C94.874 7.8416 91.5841 9.46163 88.3286 11.1506C87.9684 11.3628 87.558 11.4747 87.1401 11.4747C86.7221 11.4747 86.3118 11.3628 85.9516 11.1506C82.9028 9.66844 79.8195 8.27246 76.7535 6.89371C73.6875 5.51497 70.9488 4.20516 68.1412 2.80917C67.779 2.59372 67.3654 2.48001 66.944 2.48001C66.5227 2.48001 66.1091 2.59372 65.7469 2.80917C65.3335 3.05045 64.9201 3.25727 64.5067 3.48131C52.4494 9.9959 40.3921 16.545 28.1969 22.9906C26.1587 23.994 24.5459 25.6933 23.6496 27.7817C23.1845 28.9192 22.6506 30.0222 22.2199 31.2286C20.8317 35.1307 19.6813 39.1134 18.775 43.1548C16.863 50.9102 15.5023 58.8036 14.2449 66.7141C13.642 70.6608 13.1597 74.5213 12.6257 78.4507ZM72.6885 134.807C74.0906 134.381 75.3876 133.665 76.4952 132.704C91.0903 121.387 105.68 110.07 120.263 98.7528C121.734 97.5652 122.912 96.0558 123.708 94.3408C123.81 94.1815 123.847 93.9892 123.812 93.8033C123.777 93.6175 123.672 93.4522 123.519 93.3412C123.071 92.9965 122.589 92.6863 122.141 92.3761C115.848 88.0445 109.567 83.7187 103.297 79.3986C102.824 78.9538 102.22 78.6754 101.574 78.6059L97.5094 82.2423C97.3285 82.3941 97.1984 82.5977 97.1368 82.8258C97.0752 83.0539 97.085 83.2953 97.1649 83.5176C97.3199 84.0691 97.4577 84.6034 97.63 85.1549C98.0434 86.6026 98.4912 88.033 98.9218 89.4807C99.0325 89.7417 99.0368 90.0356 98.9338 90.2996C98.8308 90.5637 98.6287 90.777 98.3706 90.8939C97.8711 91.1697 97.3888 91.4627 96.9065 91.7557C90.6539 95.4438 84.5391 99.3043 78.5966 103.475C76.4921 104.899 74.4786 106.453 72.5679 108.128C71.4657 109.144 70.1082 109.841 68.6407 110.145C68.1928 110.231 67.745 110.386 67.2799 110.489L54.947 113.609C53.6896 113.919 53.6724 113.885 53.0178 112.695C52.7422 112.196 52.4666 111.713 52.2083 111.213C48.9355 104.854 45.6801 98.4943 42.3901 92.1348C42.0596 91.2432 41.5429 90.4324 40.8744 89.7565C37.9634 93.8755 35.1557 97.8738 32.1758 102.131C32.6237 102.458 33.0888 102.786 33.5194 103.148L69.6225 132.704C70.0359 133.032 70.3804 133.583 71.1383 133.29L71.9823 131.567L81.4387 112.023C81.7143 111.437 81.9899 110.834 82.2999 110.3C82.3865 110.082 82.5168 109.884 82.6827 109.718C82.8485 109.552 83.0465 109.421 83.2645 109.335C83.5291 109.259 83.8094 109.259 84.0741 109.335C84.4186 109.455 84.298 109.817 84.1946 110.059C83.9363 110.662 83.6262 111.23 83.3506 111.782C80.9392 116.78 78.5392 121.784 76.1507 126.793C74.9449 129.154 73.8081 131.722 72.6885 134.807ZM70.966 139.736C73.2741 142.7 75.4272 145.441 77.5803 148.164C77.699 148.314 77.8316 148.452 77.9765 148.577C78.0735 148.677 78.202 148.74 78.3401 148.756C78.4782 148.771 78.6175 148.739 78.7344 148.663C79.2856 148.319 79.8368 147.957 80.4569 147.56L130.581 111.368C131.012 111.041 131.597 110.851 131.718 110.076C129.93 106.906 127.872 103.896 125.569 101.079C123.433 98.546 123.639 98.8045 121.4 100.545L73.1708 137.961C72.499 138.478 71.8617 139.029 71.0005 139.736H70.966ZM68.2962 166.639C64.7765 166.666 61.3434 167.734 58.4289 169.709C55.5144 171.683 53.2486 174.476 51.9165 177.736C50.5845 180.996 50.2457 184.577 50.9428 188.029C51.6399 191.481 53.3417 194.65 55.8341 197.137C58.3266 199.623 61.4984 201.317 64.9505 202.004C68.4026 202.692 71.9808 202.343 75.2349 201C78.4891 199.658 81.2739 197.383 83.239 194.461C85.2041 191.54 86.2617 188.102 86.2788 184.58C86.2652 179.817 84.3645 175.254 80.9936 171.891C77.6227 168.527 73.0565 166.639 68.2962 166.639ZM23.5118 103.01C23.6584 103.281 23.8254 103.54 24.0113 103.785C31.8951 112.659 40.5785 120.788 49.9518 128.068C52.8748 130.3 55.9674 132.299 59.2015 134.049C61.8359 135.295 64.6124 136.215 67.4694 136.789C68.5718 137.065 69.0368 136.686 69.4502 135.72C69.8636 134.755 69.1746 134.342 68.589 133.876C63.123 129.395 57.6513 124.926 52.1738 120.468L31.418 103.406C30.0744 102.303 30.0744 102.269 31.0046 100.942L39.1174 89.3773C39.4964 88.8258 39.8753 88.2916 40.2026 87.6539C40.3063 87.44 40.3499 87.2018 40.3287 86.965C40.3074 86.7282 40.2222 86.5016 40.082 86.3096C39.927 86.0339 39.6514 85.896 39.393 86.0683C39.0839 86.2883 38.8008 86.5427 38.549 86.8266C33.8179 91.8131 29.0869 96.7996 24.3558 101.786C24.0451 102.173 23.763 102.582 23.5118 103.01ZM35.6897 445.973C35.8619 445.525 35.5002 445.301 35.2763 445.025C34.2663 443.911 33.107 442.943 31.8314 442.147C30.0279 440.859 27.9693 439.972 25.7943 439.547C23.6192 439.122 21.3784 439.168 19.2228 439.683C15.428 440.728 11.903 442.58 8.88797 445.112C8.7356 445.228 8.61674 445.382 8.54347 445.56C8.4229 445.835 8.4229 446.111 8.80184 446.18C9.0826 446.206 9.3651 446.206 9.64586 446.18H34.6734C35.0352 446.37 35.4313 446.37 35.6897 446.042V445.973ZM114.924 447.955H127.911C128.187 447.955 128.497 447.835 128.479 447.49C128.471 447.306 128.39 447.133 128.256 447.007C125.772 444.708 122.84 442.948 119.643 441.837C116.798 440.791 113.709 440.602 110.757 441.294C107.806 441.987 105.123 443.53 103.039 445.732C102.571 446.193 102.139 446.688 101.747 447.214C101.702 447.268 101.673 447.334 101.663 447.404C101.654 447.474 101.664 447.545 101.692 447.61C101.721 447.674 101.767 447.729 101.825 447.769C101.884 447.809 101.952 447.832 102.022 447.835C102.596 447.871 103.171 447.871 103.745 447.835L114.924 447.955ZM33.795 60.4753C34.2152 61.0225 34.8341 61.3817 35.5175 61.4749C36.7109 61.867 37.8334 62.449 38.8418 63.1983C39.1934 63.3815 39.471 63.6805 39.6279 64.0446C39.7848 64.4088 39.8113 64.816 39.7031 65.1975C39.6402 65.9103 39.8136 66.6239 40.1965 67.2282C40.5794 67.8326 41.1506 68.2939 41.8217 68.541C42.4622 68.85 43.1807 68.9593 43.884 68.8549C44.5873 68.7504 45.2431 68.4369 45.7662 67.955C46.6619 67.2139 46.9719 66.0075 48.1777 65.4388C48.9011 65.1114 48.5738 64.0256 47.8159 63.7154C47.0168 63.5571 46.2634 63.2214 45.6112 62.733C46.7136 62.5434 47.6437 62.4228 48.5566 62.2332C48.7421 62.2005 48.9098 62.1027 49.0298 61.9574C49.1497 61.8121 49.214 61.6289 49.2111 61.4404C49.2111 60.7855 49.2111 60.1134 49.2111 59.4585C49.2111 58.8036 49.2111 57.9591 49.2111 57.2008C49.2111 56.4425 49.3834 55.9427 48.8494 55.2705C47.1269 56.2874 45.4045 57.3214 43.682 58.2521C42.102 59.3992 40.3605 60.3053 38.5146 60.9406C37.86 59.3895 38.6524 57.7523 37.8945 56.0461C36.4295 57.4281 35.0599 58.9079 33.795 60.4753ZM72.7402 62.7847C72.9955 62.6891 73.2616 62.6254 73.5325 62.5951C74.4454 62.5951 74.5832 61.9919 74.6177 61.2681C74.6521 60.5442 74.411 60.4064 73.8253 60.4064C73.5443 60.3891 73.2624 60.3891 72.9813 60.4064C68.9272 61.1964 64.9948 62.5176 61.2857 64.3358C60.5278 64.6805 60.9412 65.2837 61.1135 65.7835C61.1389 65.8977 61.1917 66.0041 61.2672 66.0935C61.3428 66.1829 61.4389 66.2526 61.5473 66.2966C61.6557 66.3407 61.7731 66.3578 61.8896 66.3464C62.006 66.3351 62.118 66.2957 62.2158 66.2316C63.2321 65.7835 64.2828 65.3699 65.2991 64.9562C67.0216 67.9205 68.5029 68.7823 70.5526 68.0929C72.6024 67.4035 73.2052 65.8352 72.7402 62.7847ZM48.6255 86.3958C51.6906 86.4906 54.7384 85.9019 57.5479 84.6723C58.0428 84.4228 58.5104 84.1225 58.9431 83.7762C59.0053 83.7105 59.0504 83.6306 59.0744 83.5435C59.0984 83.4563 59.1007 83.3646 59.0809 83.2764C59.0178 83.2085 58.9399 83.1561 58.8533 83.1232C58.7667 83.0903 58.6736 83.0778 58.5814 83.0868C58.3109 83.131 58.0492 83.2183 57.8063 83.3453C55.0266 84.7641 51.9339 85.4576 48.815 85.3617C44.3193 85.3617 44.8188 85.7236 46.0935 81.7253C47.4542 77.4167 48.8839 73.1081 50.2446 68.834C50.4169 68.3169 50.7786 67.8171 50.5547 67.2139C50.5405 67.1695 50.5158 67.1292 50.4829 67.0962C50.4499 67.0632 50.4096 67.0386 50.3652 67.0244C50.2102 67.0244 49.9346 67.0244 49.9001 67.0244C49.6222 67.6203 49.375 68.23 49.1595 68.8512C47.6954 73.3149 46.1624 77.7614 44.8016 82.2768C43.5786 86.3613 42.3557 86.2751 47.9193 86.4647L48.6255 86.3958ZM100.076 75.6243C100.099 74.7718 99.7878 73.9442 99.2081 73.319C98.6284 72.6939 97.8268 72.3211 96.9754 72.2808C96.1258 72.3706 95.3398 72.773 94.7701 73.4099C94.2003 74.0469 93.8875 74.8729 93.8922 75.7277C93.8772 76.5749 94.1894 77.3953 94.7637 78.0181C95.338 78.6409 96.1302 79.0181 96.9754 79.0712C97.8236 78.9591 98.6055 78.5526 99.1847 77.9227C99.7639 77.2927 100.104 76.4793 100.145 75.6243H100.076ZM63.0426 92.7208C63.7316 92.7208 64.7651 92.7208 65.7986 92.5829C68.1494 92.3259 70.3604 91.3373 72.1201 89.7565C72.3352 89.5732 72.5211 89.3582 72.6713 89.1188C72.7139 89.0487 72.7364 88.9682 72.7364 88.8861C72.7364 88.8041 72.7139 88.7236 72.6713 88.6535C72.5507 88.5328 72.2751 88.4122 72.1718 88.4639C71.8635 88.6732 71.5699 88.9036 71.2933 89.1533C69.5455 90.594 67.3871 91.4446 65.1268 91.5833C63.6012 91.6902 62.0682 91.6092 60.5623 91.342C60.2065 91.243 59.8304 91.2437 59.475 91.344C59.1196 91.4443 58.7986 91.6403 58.547 91.9108C58.1092 92.3381 57.588 92.6703 57.016 92.8868C56.4439 93.1033 55.8334 93.1993 55.2226 93.1689C53.9028 93.2471 52.5787 93.1251 51.2953 92.807C51.0363 92.7135 50.7599 92.6782 50.4858 92.7035C50.348 92.7035 50.2274 92.9448 50.1241 93.0999C50.0207 93.255 50.1241 93.4619 50.2791 93.5308C53.2417 94.4787 56.1872 94.8923 58.8915 92.9793C59.1872 92.7605 59.5254 92.6061 59.8843 92.5259C60.2433 92.4458 60.615 92.4417 60.9757 92.514C61.5785 92.6346 62.1469 92.6518 63.0426 92.7208ZM67.2627 139.254L62.6809 138.047C62.6809 138.047 62.5431 138.047 62.457 138.047C62.5066 141.053 62.9348 144.041 63.7316 146.94C63.7316 146.94 63.9383 146.94 63.9728 146.854C65.2991 144.476 66.0914 141.89 67.2627 139.202V139.254ZM77.7526 58.5968C76.9258 60.3202 76.943 60.3202 77.098 61.63C77.8908 61.3416 78.6173 60.8961 79.2339 60.3202C79.4406 60.1823 79.5095 60.0617 79.3717 59.8376C78.9601 59.2792 78.3987 58.849 77.7526 58.5968ZM54.5508 55.4429C54.413 54.7018 54.5508 53.8229 54.1547 53.0473C54.1013 52.9259 54.0048 52.8287 53.8838 52.7745C53.7629 52.7204 53.6261 52.7132 53.5001 52.7543C53.4516 52.7656 53.4061 52.7873 53.3668 52.8179C53.3275 52.8484 53.2953 52.8871 53.2724 52.9314C53.2494 52.9756 53.2364 53.0243 53.2341 53.074C53.2317 53.1238 53.2402 53.1735 53.259 53.2196C53.6401 54.4843 53.6876 55.8262 53.3968 57.1146C53.3106 57.5282 52.9489 57.9936 53.3968 58.3727C53.8446 58.7519 54.2063 57.9591 54.3097 57.218C54.413 56.4769 54.4991 56.0978 54.5508 55.4429Z" fill="#F6F7F7"/>
<path d="M11.8334 131.636L11.73 131.084C11.7755 130.947 11.767 130.798 11.7062 130.666C11.6454 130.535 11.5369 130.432 11.4028 130.378C11.1099 128.896 10.3176 127.586 10.0248 126.086C9.90888 125.686 9.90374 125.261 10.0099 124.857C10.116 124.453 10.3295 124.086 10.6276 123.794C11.4028 122.967 12.1262 122.071 12.8841 121.261C16.329 117.366 19.774 113.477 23.2189 109.593C23.7012 109.059 24.0457 108.37 24.8036 108.059C25.667 108.637 26.4294 109.353 27.0601 110.179C33.021 116.47 39.3908 122.36 46.1279 127.81C49.9815 131.003 54.1482 133.798 58.5642 136.151C58.9811 136.344 59.3359 136.649 59.5885 137.033C59.8412 137.417 59.9815 137.864 59.9938 138.323C60.7173 143.493 61.5096 148.663 62.2847 153.713C62.3463 154.08 62.4326 154.443 62.5431 154.799C62.5431 154.799 62.6981 154.954 62.7498 154.937C62.8015 154.92 63.1632 154.937 63.1976 154.782C63.8005 153.403 64.3689 152.007 64.9201 150.611L68.3651 142.252C68.5029 141.908 68.5545 141.511 69.0368 141.304C69.5191 141.098 69.7603 141.735 70.0186 142.063C71.8445 144.338 73.6186 146.647 75.4444 148.956C76.0104 149.586 76.3867 150.363 76.5296 151.197C76.7707 152.92 77.1152 154.54 77.5114 156.178C77.6364 156.733 77.6147 157.31 77.4486 157.854C77.2825 158.398 76.9776 158.89 76.564 159.28C76.3225 159.567 76.0446 159.822 75.7373 160.038C74.1497 160.997 72.7585 162.248 71.6378 163.726C71.1039 163.347 70.6988 162.814 70.4771 162.198C70.2554 161.581 70.2276 160.912 70.3976 160.279C70.5531 159.355 70.7601 158.44 71.0177 157.539C71.1727 156.988 71.3794 156.471 71.5516 155.919C72.8091 151.835 71.9306 149.956 67.9517 148.146C67.9115 148.328 67.9115 148.516 67.9517 148.698C68.3592 149.852 68.4655 151.091 68.2605 152.297C68.0555 153.503 67.5461 154.637 66.7804 155.592L65.678 157.315C63.456 160.624 63.2665 161.279 63.4732 165.226C62.8599 165.093 62.3123 164.75 61.9253 164.256C61.5383 163.762 61.3364 163.147 61.3546 162.52C61.3555 161.862 61.4074 161.205 61.5096 160.555C61.768 157.35 60.4589 155.592 57.1173 154.73C56.7383 155.264 57.2723 155.574 57.4962 155.885C57.894 156.474 58.1599 157.143 58.2758 157.845C58.3917 158.547 58.355 159.266 58.168 159.952C57.8407 161.469 57.3757 162.968 56.9967 164.416C56.8389 164.467 56.6675 164.456 56.5172 164.386C56.3669 164.315 56.2489 164.191 56.1871 164.036C55.946 163.519 55.7393 163.002 55.5154 162.468C55.123 161.195 54.2902 160.104 53.1664 159.391C52.0426 158.677 50.7014 158.387 49.3834 158.573C49.0561 159.056 49.4695 159.194 49.7279 159.418C50.5444 160.063 51.1864 160.903 51.5956 161.86C52.0048 162.817 52.168 163.862 52.0704 164.898C51.936 166.414 52.1724 167.94 52.7594 169.345C52.88 169.638 52.7594 169.948 52.5872 170.034C52.4534 170.073 52.3124 170.081 52.175 170.057C52.0377 170.033 51.9076 169.978 51.7948 169.896C51.3344 169.431 50.9191 168.923 50.5547 168.38C49.9332 167.425 49.1456 166.591 48.2293 165.915C47.3427 165.203 46.2398 164.815 45.103 164.815C43.9662 164.815 42.8634 165.203 41.9767 165.915L43.1308 166.191C44.0849 166.466 44.9558 166.973 45.6653 167.668C46.3749 168.363 46.9008 169.223 47.1958 170.172C47.5748 171.137 47.902 172.137 48.3499 173.067C48.7977 173.998 49.2972 174.67 49.7795 175.48C49.3317 176.325 48.5566 176.273 47.8159 176.204C46.6931 176.044 45.6147 175.657 44.6466 175.066C43.655 174.548 42.6945 173.973 41.77 173.343C40.8597 172.659 39.7724 172.249 38.6368 172.164C37.5012 172.078 36.3649 172.32 35.3624 172.86C34.4861 173.213 33.6807 173.721 32.9854 174.36C32.9287 174.429 32.8872 174.509 32.8634 174.595C32.8397 174.681 32.8343 174.771 32.8476 174.86C32.8476 174.98 33.0543 175.118 33.1921 175.153C33.4732 175.17 33.755 175.17 34.0361 175.153C36.5027 175.417 38.7757 176.613 40.392 178.496L41.4944 179.771C43.1467 181.931 45.5511 183.39 48.2293 183.856C48.3671 183.856 48.4705 184.08 48.6772 184.304C48.2914 184.647 47.827 184.889 47.3253 185.01C46.8235 185.13 46.2998 185.124 45.8006 184.993C45.0778 184.804 44.3697 184.562 43.682 184.27C40.237 182.856 38.5145 183.442 36.4303 186.751C36.5118 186.855 36.6268 186.927 36.7556 186.956C36.8845 186.984 37.0191 186.967 37.1366 186.906C38.1786 186.597 39.2789 186.539 40.3476 186.737C41.4163 186.935 42.4231 187.383 43.2858 188.044C44.3021 188.699 45.2322 189.44 46.5413 190.388C44.9049 190.629 43.7336 190.836 42.5451 190.991C41.415 191.122 40.3485 191.584 39.4791 192.318C38.5216 193.231 37.9124 194.45 37.7567 195.765C38.0144 195.697 38.2631 195.599 38.4973 195.472C39.4063 194.711 40.5153 194.228 41.6914 194.082C42.8675 193.935 44.0609 194.13 45.1289 194.645C46.753 195.234 48.4654 195.543 50.1929 195.558C50.1311 195.927 49.9653 196.27 49.7151 196.548C49.4649 196.826 49.1407 197.027 48.7805 197.126C48.0858 197.412 47.3558 197.604 46.6102 197.695C45.6045 197.799 44.6662 198.25 43.956 198.97C43.2458 199.69 42.8079 200.634 42.7174 201.642C42.5451 202.486 42.5624 202.486 43.0791 204.037C43.6475 204.037 43.6992 203.434 43.9576 203.107C44.5432 202.361 45.2915 201.759 46.1453 201.347C46.9991 200.934 47.9358 200.723 48.8839 200.728C50.2003 200.818 51.5217 200.654 52.7766 200.246C53.1728 200.091 53.5862 200.659 53.5345 201.142C53.4755 201.563 53.334 201.969 53.1183 202.336C52.9025 202.702 52.6167 203.023 52.2771 203.279C51.6915 203.744 51.0369 204.141 50.4169 204.572C49.7968 205.003 48.9872 205.485 48.3327 206.019C47.4945 206.646 46.8541 207.501 46.4876 208.482C46.1212 209.463 46.0441 210.528 46.2657 211.552C46.307 212.48 46.625 213.374 47.1786 214.12C49.5384 210.035 50.0551 209.552 54.8436 208.105C56.134 207.831 57.3428 207.26 58.3743 206.437C59.4058 205.615 60.2316 204.563 60.7862 203.365C60.8071 203.299 60.8416 203.237 60.8876 203.185C60.9337 203.133 60.9901 203.091 61.0534 203.061C61.1166 203.032 61.1853 203.016 61.255 203.015C61.3247 203.014 61.3938 203.028 61.4579 203.055C61.5785 203.055 61.6474 203.348 61.6819 203.52C61.8009 204.074 61.7914 204.648 61.654 205.198C61.5167 205.748 61.2551 206.259 60.8895 206.692C60.5278 207.122 60.1144 207.519 59.7527 207.967C57.7029 210.518 57.8924 212.827 60.3555 215.395C61.234 211.621 60.7345 210.673 66.522 207.277C67.0904 207.708 66.677 208.26 66.6081 208.725C66.4876 209.552 66.2464 210.449 66.0914 211.207C65.8994 212.041 65.9608 212.912 66.2678 213.711C66.5747 214.509 67.1131 215.198 67.8139 215.688C68.1756 215.946 68.434 216.394 69.1057 216.343C69.0024 215.515 68.8818 214.619 68.8301 213.895C68.7489 213.142 68.8199 212.38 69.0389 211.655C69.2578 210.929 69.6203 210.255 70.1048 209.673C70.6684 209.043 71.181 208.368 71.6378 207.657C72.0463 206.943 72.4143 206.206 72.7402 205.451C73.5497 205.778 73.6186 206.467 73.6531 207.174C73.6875 207.881 73.6531 208.691 73.6531 209.432C73.7736 212.879 75.3755 214.602 79.165 214.74C79.3028 214.326 78.9927 214.085 78.7688 213.809C78.0771 212.966 77.6114 211.96 77.4155 210.887C77.2197 209.813 77.3001 208.708 77.6492 207.674C78.1081 206.341 78.3636 204.947 78.4071 203.538C78.4071 203.09 79.0444 202.865 79.4923 203.107C80.3347 203.533 81.0085 204.231 81.4042 205.089C81.9726 206.261 82.4549 207.502 82.9372 208.725C83.2128 209.415 83.4023 210.156 83.6779 210.845C83.9407 211.614 84.449 212.275 85.1244 212.727C85.7999 213.178 86.6049 213.395 87.4156 213.344C88.5353 213.344 89.6721 213.223 90.8606 213.172C90.9812 212.344 90.275 212.258 89.896 211.982C89.0528 211.371 88.3709 210.564 87.9088 209.63C87.4467 208.696 87.2183 207.664 87.2434 206.623C87.2083 206.049 87.2083 205.473 87.2434 204.899C87.3722 203.44 87.1782 201.969 86.6751 200.593C86.172 199.217 85.3721 197.969 84.3324 196.937C84.2117 196.772 84.1024 196.599 84.0051 196.42C84.267 196.269 84.564 196.189 84.8664 196.189C85.1687 196.189 85.4658 196.269 85.7276 196.42C86.7659 196.888 87.6456 197.649 88.2597 198.609C88.5697 199.074 88.8453 199.574 89.1381 200.039C89.6317 200.931 90.4062 201.634 91.3408 202.039C92.2755 202.444 93.3179 202.529 94.3056 202.28C95.0343 202.106 95.753 201.893 96.4587 201.642C96.1831 200.832 95.4424 200.832 94.874 200.573C94.1188 200.268 93.4393 199.801 92.883 199.206C92.3266 198.611 91.9069 197.901 91.6529 197.126C91.1879 195.886 90.7917 194.645 90.3783 193.387C90.3783 193.387 90.4817 193.249 90.6539 193.025C91.4979 193.473 92.3764 193.921 93.2376 194.421C94.2422 195.043 95.4295 195.302 96.6017 195.154C97.7739 195.007 98.8602 194.462 99.6797 193.611C99.2835 193.025 98.784 193.249 98.3878 193.197C97.4905 193.143 96.6185 192.878 95.8432 192.423C95.0679 191.967 94.4112 191.335 93.9266 190.577C93.0351 189.105 91.8072 187.864 90.3439 186.958C91.5668 186.441 91.8941 186.355 92.6864 186.527C93.4282 186.671 94.1549 186.885 94.8568 187.165C95.8217 187.572 96.9031 187.607 97.8923 187.263C98.8814 186.919 99.7084 186.221 100.214 185.304C100.59 184.872 100.808 184.325 100.834 183.753C100.196 183.373 99.783 183.977 99.2835 184.132C98.4284 184.441 97.5107 184.537 96.6101 184.411C95.7094 184.285 94.8533 183.941 94.1161 183.408C92.7632 182.408 91.2642 181.623 89.6721 181.081C89.8598 180.528 90.2039 180.042 90.6625 179.681C91.1211 179.32 91.6746 179.1 92.2558 179.048C93.5441 178.752 94.8614 178.602 96.1831 178.6C97.1304 178.6 98.0778 178.6 99.0079 178.6C99.8435 178.594 100.655 178.317 101.319 177.81C101.984 177.304 102.466 176.595 102.694 175.79C102.981 174.712 103.075 173.592 102.97 172.481C102.315 172.137 102.039 172.619 101.712 172.878C100.834 173.599 99.7838 174.082 98.6642 174.278C97.5445 174.474 96.3932 174.378 95.3218 173.998C94.9599 173.895 94.6035 173.775 94.2539 173.636C92.9344 173.12 91.5258 172.872 90.1096 172.904C88.6934 172.937 87.2977 173.25 86.0032 173.826C85.8283 173.894 85.6609 173.981 85.5037 174.084C85.297 174.222 85.1075 174.222 85.0042 174.084C84.9449 173.923 84.9449 173.746 85.0042 173.584C85.1965 172.926 85.5615 172.331 86.0612 171.861C86.561 171.391 87.1774 171.064 87.8463 170.913C88.6558 170.672 89.5687 170.568 90.2922 170.275C92.7381 169.31 93.6166 167.621 93.2376 164.743C90.3783 167.345 90.1888 167.397 85.9171 167.277H84.1946C84.1946 167.277 84.0396 167.277 83.9707 167.156C83.6779 166.691 84.0913 166.501 84.3324 166.277C84.9008 165.76 85.5037 165.312 86.0549 164.778C88.0357 162.847 88.2597 161.624 87.1917 158.677C86.4855 158.573 86.6061 159.228 86.4511 159.556C86.0584 160.406 85.48 161.157 84.7586 161.753C84.0371 162.35 83.191 162.777 82.2827 163.002C80.8007 163.324 79.4324 164.038 78.321 165.071C78.0971 165.277 77.8042 165.415 77.5975 165.26C77.4463 165.144 77.335 164.984 77.2794 164.802C77.2238 164.619 77.2266 164.424 77.2875 164.243C77.4038 163.884 77.5784 163.546 77.8042 163.244C82.5066 157.108 86.4166 150.404 90.7056 144.01C91.6271 142.592 92.7936 141.349 94.1505 140.339C105.657 132.067 117.128 123.691 128.686 115.349C129.427 114.798 130.202 114.281 130.925 113.781C131.614 114.022 131.821 114.574 132.114 115.039C134.698 119.313 137.281 123.656 139.9 127.844C140.251 128.343 140.457 128.928 140.497 129.536C140.536 130.144 140.407 130.752 140.123 131.291C135.714 142.494 131.322 153.713 126.946 164.95C123.375 174.061 119.815 183.184 116.267 192.318C116.14 192.668 116.031 193.025 115.94 193.387C115.716 193.524 115.561 193.697 115.664 193.973C115.631 193.976 115.599 193.987 115.57 194.004C115.542 194.022 115.518 194.046 115.499 194.074C115.481 194.102 115.47 194.134 115.465 194.167C115.461 194.2 115.464 194.234 115.475 194.266C115.027 194.266 114.906 193.886 114.82 193.49C114.08 190.284 113.373 187.079 112.581 183.908C112.23 182.361 112.331 180.745 112.874 179.254C118.374 162.181 123.812 145.113 129.186 128.051C129.306 127.689 129.599 127.293 129.013 126.81C128.755 127.5 128.479 128.086 128.29 128.706C125.982 135.967 123.657 143.281 121.314 150.645C118.179 160.515 115.061 170.339 111.961 180.116C111.588 181.074 111.539 182.127 111.823 183.115C112.409 185.183 112.667 187.337 113.253 189.423C113.526 191.349 114.047 193.232 114.803 195.024C115.992 199.367 117.197 203.641 118.386 208.036C119.988 213.913 121.555 219.807 123.209 225.667C123.451 226.279 123.492 226.952 123.328 227.59C123.164 228.228 122.803 228.797 122.296 229.217C121.676 229.903 121.101 230.629 120.573 231.388C119.919 231.285 119.368 230.82 118.575 231.388C115.595 233.681 112.512 235.852 109.498 238.092C109.291 238.248 108.809 238.437 109.239 239.006L110.393 238.23C112.69 236.564 114.987 234.898 117.283 233.232C117.801 232.797 118.382 232.443 119.006 232.181C119.574 231.974 119.402 232.578 119.505 232.87C119.195 233.422 119.505 233.749 119.884 234.077L125.982 240.747L127.308 242.212C127.479 242.37 127.586 242.585 127.609 242.818C127.631 243.05 127.567 243.282 127.429 243.47C127.084 244.038 126.757 244.607 126.413 245.193C124.569 248.157 122.726 251.104 120.918 254.086C120.165 255.408 119.172 256.577 117.99 257.533C114.906 259.997 111.84 262.496 108.826 265.047C107.784 265.999 106.472 266.601 105.071 266.77C101.902 267.184 98.7323 267.632 95.563 268.08L76.7018 270.579L67.4694 271.872C66.07 272.05 64.6512 272.004 63.2665 271.734C53.5345 270.011 43.8025 268.442 34.0706 266.788L13.7798 263.41C13.0219 263.289 12.7807 262.858 13.1425 262.255C13.5042 261.652 13.952 260.997 14.3654 260.377C17.1788 256.137 19.9922 251.903 22.8056 247.675C23.3223 246.917 23.6668 246.227 23.0811 245.383C27.2668 244.107 31.4524 242.849 35.6208 241.557C35.7586 241.557 35.8447 241.281 35.9653 241.143C35.6208 240.919 35.3107 241.143 34.9835 241.229C31.2399 242.378 27.5022 243.498 23.7701 244.59C23.231 244.712 22.6844 244.799 22.1338 244.848L14.8133 237.386C13.2458 235.783 13.2286 236.059 14.1759 234.042C16.174 229.791 18.1663 225.534 20.1529 221.272C20.5886 220.433 20.9129 219.541 21.1175 218.618C22.3577 211.483 23.6151 204.348 24.8897 197.213C25.4409 196.92 25.7682 197.213 26.0094 197.661C27.0084 199.229 27.9558 200.832 28.9203 202.4C29.0045 202.628 29.1538 202.827 29.3498 202.971C29.5459 203.115 29.7798 203.198 30.0227 203.21C28.8071 200.671 27.2732 198.296 25.4582 196.144C25.3391 194.944 25.4562 193.732 25.8027 192.577C25.9608 192.088 26.0209 191.573 25.9796 191.062C25.9382 190.55 25.7961 190.052 25.5615 189.595C25.4938 189.42 25.4363 189.242 25.3893 189.061C23.7491 185.414 22.7749 181.504 22.5127 177.514C22.5563 175.63 22.4004 173.746 22.0477 171.895C21.9271 169.258 21.5654 166.725 21.2898 164.019C21.0142 161.313 20.6697 158.556 20.4113 155.885C20.4113 155.057 20.4113 154.161 20.4113 153.179C21.2136 153.891 21.8538 154.766 22.2888 155.747C22.9089 156.695 23.4601 157.677 24.0113 158.659C24.8553 160.073 24.8553 160.073 25.8199 160.693C25.6952 160.058 25.4106 159.464 24.9931 158.97C23.5003 156.476 22.0075 153.972 20.5147 151.455C20.1291 150.919 19.8753 150.299 19.774 149.646C19.619 147.785 19.395 145.906 19.2056 144.027C18.9644 141.684 18.775 139.34 18.5166 136.996C18.2582 134.652 17.9998 132.515 17.7242 130.274C17.7242 129.895 17.7242 129.309 17.0008 129.275C17.5003 135.1 18.3099 140.856 18.7233 146.785C17.8793 146.354 17.7931 145.682 17.552 145.061C16.019 141.322 14.5377 137.565 12.9702 133.859C12.6429 133.101 12.6429 132.153 11.8334 131.636Z" fill="#030202"/>
<path d="M12.6257 78.4508C13.1597 74.5213 13.642 70.6091 14.2449 66.7142C15.5023 58.8036 16.863 50.9103 18.7061 43.0859C19.6204 39.0465 20.7707 35.0643 22.151 31.1597C22.5816 30.005 23.1156 28.902 23.5979 27.7128C24.4773 25.6148 26.0867 23.9066 28.128 22.9044C40.2715 16.5622 52.346 10.0131 64.4378 3.44686C64.8512 3.22282 65.2818 3.016 65.678 2.77472C66.0402 2.55927 66.4538 2.44556 66.8751 2.44556C67.2965 2.44556 67.7101 2.55927 68.0723 2.77472C70.9488 4.1707 73.8598 5.49775 76.6846 6.85926C79.5095 8.22078 82.8339 9.70293 85.8827 11.1851C86.2446 11.3922 86.6543 11.5011 87.0712 11.5011C87.4881 11.5011 87.8978 11.3922 88.2597 11.1851C91.5152 9.46165 94.8051 7.87609 98.095 6.23883C98.5084 6.01478 98.9218 5.80797 99.3524 5.61839C99.783 5.42881 100.265 5.61839 100.179 6.25606C99.9036 8.18631 99.6108 10.1338 99.3008 12.064C99.3008 12.4432 99.1285 12.8051 99.0596 13.167C98.9853 13.4416 98.9966 13.7324 99.0921 14.0003C99.1875 14.2683 99.3625 14.5007 99.5936 14.6664C100.059 14.9939 100.472 15.3903 100.903 15.7522L117.507 29.8499C118.007 30.2635 118.524 30.6944 119.006 31.1252C119.191 31.2738 119.32 31.4816 119.37 31.7139C119.42 31.9462 119.389 32.1887 119.281 32.4006C119.126 32.7453 118.954 33.0727 118.799 33.4174L105.484 61.8196C105.329 62.1471 105.14 62.4745 104.899 62.9226C102.815 61.6645 101.781 59.3723 99.7314 57.9591L90.43 77.5546C90.1372 77.5546 90.0166 77.5546 89.9649 77.5546C89.9347 77.4651 89.9347 77.3683 89.9649 77.2788C89.9556 77.0951 89.9556 76.911 89.9649 76.7273V47.0325C89.9649 47.0325 89.8788 46.8774 89.8271 46.7913C89.2932 46.5155 88.9831 46.9464 88.6386 47.2393C86.675 48.8594 84.7229 50.4909 82.7822 52.1339C82.6861 52.233 82.5642 52.3033 82.4303 52.3368C82.2963 52.3703 82.1557 52.3657 82.0243 52.3235C81.6281 52.2028 81.7487 51.8754 81.7487 51.6341C81.7487 46.7166 81.7487 41.8105 81.7487 36.916V34.0034C80.7497 33.831 80.2157 34.4342 79.5956 34.7961L43.0619 56.1495C42.2907 56.7719 41.3704 57.1819 40.3921 57.3387C40.3921 55.2361 40.3921 53.1852 40.2543 50.8758C39.3864 51.3629 38.6249 52.0193 38.015 52.806C30.2065 60.9407 22.3749 69.0753 14.5205 77.2099C14.0209 77.7269 13.6764 78.5197 12.6257 78.4508Z" fill="#030202"/>
<path d="M110.238 285.022C110.394 287.176 110.583 289.348 110.686 291.502C111.151 302.153 111.582 312.786 112.047 323.437C112.512 333.778 113.012 344.118 113.477 354.459C113.718 359.353 113.925 364.248 114.131 369.143C114.602 379.977 115.061 390.812 115.509 401.647C115.613 404.094 115.768 406.541 115.871 408.988C115.871 409.764 115.682 410.022 114.924 410.022H101.936C101.109 410.022 100.851 409.557 100.679 408.816C99.5764 403.646 98.4223 398.475 97.2338 393.305L85.6587 341.188C81.9841 324.643 78.3095 308.104 74.6349 291.571C73.3258 285.677 72.034 279.8 70.6904 273.768C72.6024 272.803 74.721 273.044 76.7019 272.613C78.6827 272.182 80.6119 272.027 82.5583 271.751C82.9311 271.777 83.3051 271.777 83.6779 271.751C87.8463 271.165 92.0319 270.648 96.1831 270.028C96.6735 269.904 97.1903 269.935 97.6623 270.117C98.1343 270.299 98.5382 270.623 98.8185 271.045C100.794 273.549 102.797 276.031 104.83 278.49C106.639 280.73 108.516 282.867 110.238 285.022Z" fill="#030202"/>
<path d="M41.3395 270.148L65.4541 274.319C65.4902 275.494 65.2972 276.665 64.8857 277.766C60.1087 299.355 55.3087 320.955 50.4858 342.567C46.4322 360.755 42.4131 378.955 38.4285 397.166C37.6706 400.612 36.8955 403.956 36.172 407.368C36.0342 408.006 35.7586 408.402 35.0869 408.42H21.6515C20.9798 408.023 21.0659 407.713 21.0659 407.454C21.7204 394.276 22.3692 381.063 23.0123 367.815C23.2879 362.18 23.5118 356.527 23.7702 350.874C24.2525 340.89 24.7463 330.905 25.2515 320.921C25.4582 316.405 25.6994 311.89 25.8888 307.375C26.1644 301.429 26.4056 295.5 26.6812 289.572C26.6225 288.533 26.7569 287.493 27.0773 286.504C27.4907 285.987 27.9214 285.504 28.2831 284.953C31.2113 280.713 34.1395 276.439 37.0505 272.182C38.6524 269.924 38.6524 269.924 41.3395 270.148Z" fill="#030202"/>
<path d="M72.6885 134.807C73.6973 132.027 74.8471 129.301 76.1334 126.638C78.5104 121.606 80.9104 116.596 83.3334 111.61C83.609 111.024 83.919 110.438 84.1774 109.886C84.2807 109.645 84.4013 109.283 84.0568 109.162C83.7908 109.098 83.5133 109.098 83.2473 109.162C83.0293 109.249 82.8313 109.379 82.6654 109.545C82.4995 109.711 82.3693 109.909 82.2827 110.127C81.9726 110.713 81.697 111.317 81.4214 111.851L71.9823 131.515C71.6894 132.101 71.4138 132.704 71.1555 133.239C70.3804 133.515 70.0359 132.963 69.6225 132.636L33.4505 103.148C33.0198 102.786 32.5548 102.458 32.1069 102.131C35.0868 97.8739 37.8945 93.8755 40.8054 89.7565C41.4796 90.4279 41.9971 91.24 42.3212 92.1348C45.6111 98.4943 48.8666 104.854 52.1393 111.213C52.3977 111.713 52.6733 112.213 52.9489 112.695C53.6034 113.885 53.6207 113.919 54.8781 113.609L67.1766 110.489C67.6416 110.369 68.0895 110.214 68.5545 110.127C70.0171 109.824 71.3691 109.127 72.4646 108.111C74.3829 106.445 76.3959 104.892 78.4932 103.458C84.4358 99.2871 90.5506 95.4266 96.8031 91.7384C97.2854 91.4455 97.7677 91.1525 98.2673 90.8767C98.5253 90.7598 98.7274 90.5465 98.8304 90.2824C98.9334 90.0183 98.9291 89.7244 98.8184 89.4635L97.5266 85.1377C97.3543 84.6034 97.2338 84.0519 97.0615 83.5004C96.9817 83.2781 96.9719 83.0366 97.0335 82.8086C97.0951 82.5805 97.2251 82.3769 97.406 82.2251L101.626 78.5886C102.271 78.6582 102.876 78.9366 103.349 79.3814L122.192 92.3589C122.658 92.6691 123.123 92.9793 123.57 93.324C123.724 93.4349 123.828 93.6003 123.864 93.7861C123.899 93.972 123.862 94.1643 123.76 94.3236C122.964 96.0386 121.786 97.548 120.315 98.7356C105.662 110.03 91.0558 121.353 76.4952 132.704C75.3875 133.665 74.0906 134.381 72.6885 134.807ZM71.9478 110.007C73.3498 110.229 74.7809 110.188 76.1679 109.886C79.3854 109.196 82.5648 108.339 85.6932 107.318C88.5674 106.401 91.1116 104.664 93.0137 102.32C95.16 99.6855 96.801 96.6764 97.8539 93.4446C97.9223 93.3215 97.9493 93.1794 97.9307 93.0397C97.912 92.9 97.8489 92.77 97.7505 92.6691C97.5742 92.6343 97.3928 92.6343 97.2165 92.6691C89.485 97.1613 82.0093 102.081 74.8243 107.404C74.0665 108.128 73.2052 108.904 71.9478 110.007Z" fill="#030202"/>
<path d="M71.0005 139.736C71.8617 139.03 72.499 138.478 73.1708 138.013L121.4 100.597C123.657 98.8735 123.433 98.5977 125.569 101.131C127.872 103.948 129.93 106.958 131.718 110.128C131.597 110.903 131.012 111.093 130.581 111.42L80.4569 147.612C79.9229 148.009 79.3717 148.371 78.7344 148.715C78.6175 148.79 78.4782 148.823 78.3401 148.807C78.202 148.792 78.0736 148.729 77.9765 148.629C77.8316 148.504 77.699 148.366 77.5803 148.215C75.4617 145.441 73.3086 142.7 71.0005 139.736Z" fill="#030202"/>
<path d="M68.2962 166.639C70.6396 166.653 72.9574 167.128 75.1172 168.038C77.2771 168.947 79.2367 170.274 80.8841 171.942C82.5316 173.609 83.8346 175.585 84.7189 177.757C85.6031 179.928 86.0512 182.252 86.0377 184.597C86.0241 186.942 85.5491 189.261 84.6398 191.422C83.7304 193.583 82.4046 195.544 80.738 197.192C79.0713 198.84 77.0965 200.144 74.9263 201.029C72.756 201.914 70.4329 202.362 68.0895 202.349C65.746 202.335 63.4282 201.86 61.2684 200.95C59.1086 200.04 57.149 198.713 55.5015 197.046C53.8541 195.378 52.551 193.402 51.6668 191.231C50.7825 189.06 50.3344 186.735 50.348 184.39C50.3615 182.046 50.8365 179.727 51.7459 177.565C52.6552 175.404 53.981 173.444 55.6477 171.795C57.3143 170.147 59.2891 168.843 61.4594 167.959C63.6296 167.074 65.9527 166.625 68.2962 166.639ZM57.7029 197.506C59.9966 199.364 62.7391 200.584 65.6541 201.044C68.5692 201.504 71.5539 201.187 74.3076 200.125C74.7437 199.949 75.1693 199.747 75.5822 199.522C76.0129 199.281 76.0645 198.574 75.7545 198.005C75.4444 197.437 75.1516 197.661 74.8243 197.781C74.0148 198.057 73.2397 198.402 72.4301 198.626C70.5443 199.181 68.5675 199.357 66.6134 199.144C64.6593 198.931 62.7667 198.333 61.0445 197.385C63.3469 195.479 65.7565 193.707 68.2617 192.077L75.1516 196.971C75.2023 196.266 75.0705 195.559 74.7688 194.919C74.4671 194.279 74.0057 193.727 73.4291 193.318C72.2033 192.621 71.0934 191.737 70.1392 190.698L71.8617 189.44C72.0752 189.258 72.2766 189.062 72.4646 188.854C72.5392 188.588 72.5563 188.309 72.5147 188.035C72.4731 187.762 72.3738 187.501 72.2234 187.268C72.0505 187.201 71.8623 187.183 71.6797 187.216C71.4972 187.25 71.3276 187.334 71.1899 187.458L58.1336 196.868C57.9613 196.971 57.9096 197.178 57.7029 197.506ZM77.253 198.367C77.5159 198.324 77.7711 198.242 78.0109 198.126C81.3918 195.818 83.7736 192.314 84.6769 188.32C85.219 186.305 85.2722 184.19 84.8319 182.15C84.7114 181.598 84.2118 181.547 83.7296 181.564C83.6354 181.561 83.5417 181.578 83.4546 181.614C83.3674 181.65 83.2888 181.704 83.2239 181.772C83.1589 181.84 83.109 181.922 83.0774 182.01C83.0458 182.099 83.0333 182.194 83.0406 182.288C83.0406 182.856 83.0406 183.408 83.0406 184.011C83.1937 187.722 81.9034 191.349 79.4406 194.128C79.1133 194.524 78.8377 195.11 77.9765 194.921C77.2186 192.594 76.4263 190.181 75.6339 187.786C75.5288 187.521 75.5251 187.227 75.6237 186.959C75.7223 186.692 75.9161 186.471 76.1679 186.338L81.2492 182.684C81.6109 182.426 82.076 182.236 81.8348 181.667C81.0945 181.504 80.3257 181.522 79.5939 181.72C78.8621 181.918 78.189 182.29 77.632 182.805C76.8054 183.588 75.8421 184.213 74.7899 184.649C74.5832 184.166 74.3765 183.735 74.2043 183.305C74.032 182.874 73.8942 182.426 73.6875 182.012C73.4961 181.807 73.2476 181.665 72.9741 181.603C72.7007 181.542 72.4151 181.564 72.1545 181.667C71.9976 181.77 71.8832 181.926 71.8325 182.107C71.7818 182.287 71.7983 182.48 71.8789 182.65C71.9995 183.012 72.1373 183.356 72.2579 183.718C73.4464 187.389 74.6177 191.06 75.8578 194.714C76.1541 195.99 76.6236 197.219 77.253 198.367ZM62.7498 188.165C63.766 188.854 64.4723 189.354 65.1785 189.785C65.8847 190.216 66.2636 189.785 66.6598 189.302C67.056 188.82 66.6598 188.475 66.2981 188.216L53.3967 178.979C52.7594 178.513 52.3116 178.651 52.1221 179.323C51.2087 182.068 51.0319 185.004 51.6093 187.838C52.1867 190.672 53.498 193.305 55.412 195.472C55.653 195.768 55.9446 196.019 56.2733 196.213C56.7556 196.489 57.1517 196.213 57.5135 195.851C57.5854 195.793 57.6434 195.72 57.6833 195.636C57.7231 195.553 57.7438 195.461 57.7438 195.369C57.7438 195.276 57.7231 195.185 57.6833 195.101C57.6434 195.018 57.5854 194.944 57.5135 194.886L56.5833 193.818C54.694 191.461 53.5807 188.577 53.3967 185.562C53.168 184.357 53.3184 183.111 53.8274 181.995C56.181 183.392 58.4526 184.922 60.6311 186.579C60.7641 186.712 60.8547 186.881 60.8915 187.065C60.9283 187.249 60.9096 187.44 60.8378 187.613C60.235 189.337 59.6493 191.181 59.1154 192.973C58.9431 193.507 58.6675 194.024 59.012 194.697C59.6528 194.545 60.2367 194.213 60.6946 193.739C61.1525 193.266 61.4653 192.671 61.5957 192.025C61.8885 190.784 62.2675 189.578 62.7498 188.165ZM69.278 168.035C66.1537 167.769 63.0185 168.4 60.2394 169.853C57.4604 171.306 55.1525 173.521 53.5862 176.239L53.3106 176.738C53.2257 176.908 53.2106 177.104 53.2686 177.284C53.3266 177.465 53.453 177.615 53.6207 177.703C53.9135 177.893 54.2408 178.048 54.6197 178.255C55.1364 177.479 55.5671 176.756 56.0666 176.083C58.269 172.98 61.5815 170.844 65.3163 170.12C66.0914 169.965 66.4531 170.275 66.2464 170.948C65.4368 173.447 64.6273 175.928 63.8005 178.445C61.0101 178.703 58.323 178.444 55.3431 178.669C55.7062 179.21 56.1993 179.651 56.7771 179.952C57.3549 180.253 57.9989 180.405 58.6503 180.392C59.7871 180.392 60.9067 180.392 62.0952 180.392C62.6981 180.392 62.9737 180.737 62.8531 181.271C62.7326 181.805 62.6464 181.995 62.5603 182.357C62.1814 183.77 62.1814 183.77 63.8522 184.666C65.678 179.237 67.5383 173.757 69.278 168.035ZM70.1737 178.376C69.349 178.561 68.5033 178.636 67.6588 178.6C67.3766 178.638 67.1208 178.786 66.9468 179.012C66.7727 179.238 66.6944 179.523 66.7287 179.806C66.7287 180.478 67.2455 180.478 67.7105 180.478C72.878 180.478 78.0454 180.478 83.2128 180.478C84.298 180.478 84.5736 180.099 84.1946 179.099C83.2367 176.328 81.5622 173.86 79.3414 171.947C77.1206 170.034 74.4328 168.744 71.5516 168.207C71.3969 168.149 71.2306 168.129 71.0667 168.149C70.9027 168.169 70.7458 168.228 70.6092 168.32C70.4725 168.413 70.3601 168.537 70.2813 168.683C70.2026 168.828 70.1597 168.99 70.1564 169.155C70.1564 169.913 70.6215 170.034 71.2071 170.155C74.7493 170.842 77.9139 172.811 80.0951 175.687C80.6463 176.428 81.6109 177.273 81.3181 178.083C81.0253 178.893 79.5956 178.531 78.8205 178.531C76.7824 178.675 74.7353 178.629 72.7057 178.393C71.5689 175.877 71.1899 173.222 69.8292 170.706C68.7785 173.05 68.8301 173.033 69.4158 175.136C69.9263 176.132 70.1864 177.238 70.1737 178.358V178.376Z" fill="#030202"/>
<path d="M23.5118 103.01C23.7683 102.629 24.0503 102.266 24.3558 101.924C29.0754 96.926 33.8064 91.9395 38.549 86.9645C38.8008 86.6806 39.0839 86.4262 39.393 86.2062C39.4509 86.1684 39.5168 86.1446 39.5855 86.1366C39.6541 86.1285 39.7237 86.1365 39.7888 86.1599C39.8539 86.1833 39.9126 86.2214 39.9605 86.2713C40.0084 86.3212 40.0441 86.3815 40.0648 86.4475C40.2027 86.6402 40.288 86.8655 40.3121 87.1013C40.3363 87.3371 40.2985 87.5751 40.2026 87.7918C39.8753 88.3605 39.4964 88.8948 39.1174 89.5152L31.0046 101.011C30.0744 102.338 30.0744 102.372 31.4007 103.475L52.191 120.468L68.6062 133.876C69.1919 134.342 69.8464 134.755 69.4502 135.72C69.0541 136.686 68.589 137.065 67.4866 136.789C64.6296 136.215 61.8531 135.295 59.2187 134.049C55.9763 132.304 52.8776 130.304 49.9518 128.068C40.5731 120.788 31.8838 112.659 23.9941 103.785C23.8202 103.535 23.6593 103.276 23.5118 103.01Z" fill="#030202"/>
<path d="M72.9124 48.5492C73.0675 48.756 73.2053 49.1007 73.5325 48.8766C74.6177 48.1528 75.7029 47.4117 76.7708 46.6361C77.5287 46.1019 78.2693 45.5331 78.9583 45.0161C79.1449 45.1007 79.2984 45.2445 79.3949 45.4252C79.4915 45.6059 79.5257 45.8135 79.4923 46.0157C79.4923 48.5664 79.4923 51.186 79.4923 53.6505C79.5416 54.1592 79.4258 54.6702 79.1621 55.1079C78.8984 55.5456 78.5008 55.8867 78.0282 56.0806C73.745 58.4668 69.084 60.0991 64.2484 60.9062C62.2185 61.3113 60.1516 61.5019 58.0819 61.4749C57.548 61.4749 57.169 61.2509 57.169 60.6649V52.2718C57.5307 52.2718 57.7546 52.2718 57.8752 52.3579C58.8573 53.1046 60.0151 53.5856 61.2369 53.7546C62.4587 53.9237 63.7035 53.775 64.8513 53.3231C67.7373 52.4581 70.4568 51.1122 72.8952 49.3419C73.2397 49.1006 73.3603 48.7732 72.8952 48.4974L72.9124 48.5492Z" fill="#030202"/>
<path d="M33.795 60.4753C35.0599 58.9079 36.4295 57.4281 37.8945 56.0461C38.6524 57.7695 37.8945 59.3895 38.5146 60.9406C40.3584 60.3002 42.0991 59.3945 43.682 58.2521C45.4045 57.3214 47.1269 56.3046 48.8494 55.2705C49.3834 55.9426 49.1767 56.6148 49.2111 57.2008C49.2456 57.7867 49.2111 58.7174 49.2111 59.4585C49.2111 60.1995 49.2111 60.7855 49.2111 61.4404C49.214 61.6288 49.1497 61.8121 49.0298 61.9574C48.9098 62.1027 48.7421 62.2004 48.5566 62.2332C47.6437 62.4228 46.7136 62.5434 45.6112 62.733C46.2634 63.2214 47.0168 63.5571 47.8159 63.7153C48.5738 64.0083 48.9011 65.0941 48.1777 65.4388C46.9719 66.0075 46.6619 67.1622 45.7662 67.955C45.2431 68.4369 44.5873 68.7504 43.884 68.8548C43.1807 68.9593 42.4622 68.85 41.8217 68.541C41.1539 68.289 40.5861 67.8266 40.2039 67.2235C39.8218 66.6204 39.646 65.9093 39.7031 65.1975C39.7031 64.2841 39.7031 63.8015 38.8418 63.2155C37.837 62.4604 36.7135 61.8779 35.5175 61.4921C34.8314 61.3946 34.212 61.0289 33.795 60.4753Z" fill="#030202"/>
<path d="M26.9739 285.039C27.1979 280.162 27.439 275.302 27.6629 270.424C27.6629 269.959 27.6629 269.494 27.6629 269.011C27.6629 268.253 28.0074 267.994 28.7309 268.098C30.2983 268.339 31.8658 268.632 33.4505 268.873C34.1739 268.994 34.9318 269.063 35.6724 269.149L37.5155 269.907C37.4476 270.176 37.3494 270.436 37.2227 270.683L27.8007 284.47C27.6102 284.761 27.3133 284.965 26.9739 285.039Z" fill="#030202"/>
<path d="M98.9562 269.718L105.347 268.718C106.089 268.67 106.827 268.561 107.551 268.39C108.107 268.176 108.634 267.892 109.119 267.546C109.36 267.546 109.481 267.546 109.532 267.667C109.584 267.787 109.532 267.839 109.532 267.925C109.549 268.206 109.549 268.488 109.532 268.77C109.75 273.63 109.969 278.496 110.187 283.367C109.481 283.557 109.222 282.971 108.878 282.557C105.731 278.697 102.585 274.825 99.4385 270.941C99.1383 270.603 98.9674 270.17 98.9562 269.718Z" fill="#030202"/>
<path d="M21.0142 173.946C20.4285 171.292 19.8773 168.638 19.2917 165.984C16.9951 155.85 14.641 145.716 12.2296 135.583C12.5051 135.359 12.7807 135.066 13.0219 135.583C15.1061 140.374 16.7252 145.354 19.085 150.025C19.1596 150.193 19.2006 150.375 19.2056 150.559C19.3951 152.145 19.6018 153.73 19.774 155.316C20.3252 160.486 20.8936 165.657 21.3931 170.947C21.4448 171.982 21.841 173.05 21.0142 173.946Z" fill="#030202"/>
<path d="M21.0142 173.946C21.841 173.05 21.4448 171.982 21.3587 170.999C20.8592 165.829 20.2908 160.659 19.7396 155.368C19.5673 153.782 19.3606 152.196 19.1712 150.628C19.168 150.438 19.127 150.251 19.0506 150.077C16.6908 145.406 15.0544 140.425 12.9875 135.634C12.7463 135.066 12.4707 135.359 12.1951 135.634C11.6856 134.785 11.379 133.83 11.2994 132.842C11.253 132.618 11.2798 132.385 11.3759 132.177C11.4721 131.969 11.6325 131.797 11.8334 131.688C12.643 132.205 12.6602 133.153 12.9702 133.911C14.5377 137.616 16.0363 141.373 17.552 145.113C17.7932 145.699 17.8793 146.389 18.7233 146.837C18.3444 140.925 17.5176 135.152 17.0008 129.344C17.776 129.344 17.6726 129.947 17.7243 130.326C18.0171 132.567 18.2755 134.824 18.5166 137.065C18.7578 139.305 18.9817 141.752 19.2056 144.096C19.3951 145.975 19.6362 147.836 19.774 149.715C19.8831 150.366 20.1361 150.984 20.5147 151.524C21.996 154.023 23.5118 156.522 24.9931 159.039C25.4096 159.536 25.6992 160.128 25.8371 160.762C24.8726 160.124 24.8726 160.124 24.0113 158.711C23.4429 157.746 22.8745 156.764 22.2888 155.816C21.8412 154.838 21.1961 153.964 20.3941 153.248C20.3941 154.299 20.3941 155.126 20.3941 155.936C20.6525 158.659 20.9798 161.365 21.2726 164.088C21.5654 166.811 21.9099 169.259 22.0132 171.964C22.3737 173.809 22.5297 175.687 22.4783 177.565C22.2372 177.462 21.8066 177.41 21.7549 177.238C21.2529 176.214 20.9991 175.086 21.0142 173.946Z" fill="#C4C4C4"/>
<path d="M114.769 195.024C114.002 193.229 113.481 191.339 113.218 189.405C112.616 187.337 112.374 185.166 111.771 183.098C111.506 182.114 111.554 181.071 111.909 180.116C115.067 170.293 118.208 160.469 121.331 150.645L128.359 128.689C128.566 128.086 128.824 127.5 129.1 126.81C129.685 127.293 129.375 127.689 129.255 128.051C123.812 145.102 118.351 162.164 112.874 179.237C112.331 180.722 112.229 182.332 112.581 183.873C113.373 187.062 114.097 190.267 114.82 193.473C114.924 193.852 115.044 194.162 115.475 194.248C115.484 194.347 115.473 194.446 115.442 194.54C115.411 194.634 115.361 194.72 115.294 194.793C115.227 194.866 115.146 194.925 115.056 194.964C114.965 195.004 114.867 195.024 114.769 195.024Z" fill="#C4C4C4"/>
<path d="M72.7402 62.7847C73.2053 65.8352 72.5507 67.438 70.5526 68.1101C68.5546 68.7823 67.1077 67.9378 65.2991 64.9735C64.2828 65.3871 63.2321 65.8007 62.2159 66.2488C62.118 66.3129 62.006 66.3524 61.8896 66.3637C61.7731 66.375 61.6557 66.3579 61.5473 66.3138C61.4389 66.2698 61.3428 66.2001 61.2673 66.1107C61.1917 66.0213 61.1389 65.915 61.1135 65.8007C60.9412 65.3009 60.5278 64.6977 61.2857 64.353C64.9998 62.5323 68.9382 61.211 72.9986 60.4236C73.2739 60.4064 73.55 60.4064 73.8254 60.4236C74.411 60.4236 74.6521 60.7166 74.6177 61.2853C74.5832 61.8541 74.4454 62.5951 73.5325 62.6124C73.2623 62.6371 72.9962 62.695 72.7402 62.7847Z" fill="#030202"/>
<path d="M48.6944 86.3958H47.971C42.4246 86.2062 43.6475 86.2924 44.8705 82.2078C46.214 77.6924 47.7643 73.246 49.2284 68.7823C49.4307 68.1587 49.6723 67.5485 49.9518 66.9554C49.9518 66.9554 50.2618 66.9554 50.4169 66.9554C50.4612 66.9697 50.5016 66.9943 50.5345 67.0273C50.5675 67.0602 50.5921 67.1006 50.6063 67.145C50.8303 67.7482 50.4685 68.248 50.2963 68.7651C48.9355 73.0564 47.5059 77.3822 46.1279 81.6563C44.8533 85.6547 44.4054 85.2239 48.8666 85.2928C51.9856 85.3887 55.0783 84.6951 57.858 83.2764C58.1009 83.1493 58.3626 83.0621 58.6331 83.0179C58.7253 83.0089 58.8183 83.0214 58.905 83.0543C58.9916 83.0871 59.0695 83.1396 59.1326 83.2074C59.1523 83.2957 59.1501 83.3874 59.1261 83.4745C59.102 83.5617 59.057 83.6416 58.9948 83.7072C58.5587 84.0575 58.085 84.3581 57.5824 84.6034C54.7909 85.8583 51.7537 86.4708 48.6944 86.3958Z" fill="#030202"/>
<path d="M100.145 75.6243C100.106 76.4691 99.7765 77.2744 99.2111 77.903C98.6457 78.5315 97.8799 78.9444 97.0443 79.0712C96.1991 79.0181 95.4069 78.6409 94.8326 78.0181C94.2583 77.3953 93.9461 76.5749 93.9611 75.7277C93.9564 74.8729 94.2692 74.0469 94.839 73.4099C95.4088 72.773 96.1947 72.3706 97.0443 72.2808C97.8957 72.3211 98.6973 72.6939 99.277 73.319C99.8567 73.9441 100.168 74.7718 100.145 75.6243Z" fill="#030202"/>
<path d="M63.0427 92.7208C62.147 92.7208 61.5785 92.7208 61.0101 92.5657C60.6495 92.4934 60.2778 92.4975 59.9188 92.5776C59.5599 92.6578 59.2217 92.8122 58.9259 93.031C56.1872 94.944 53.2418 94.5304 50.3135 93.5825C50.0896 93.5825 50.0207 93.3584 50.1585 93.1516C50.2963 92.9448 50.3825 92.7725 50.5202 92.7552C50.7944 92.7299 51.0708 92.7652 51.3298 92.8586C52.6117 93.1852 53.9371 93.3074 55.2571 93.2206C55.865 93.2486 56.4723 93.1514 57.0412 92.935C57.6101 92.7186 58.1285 92.3876 58.5642 91.9625C58.8086 91.686 59.1242 91.4819 59.4765 91.3725C59.8288 91.2631 60.2044 91.2525 60.5623 91.342C62.0477 91.5863 63.5572 91.65 65.058 91.5316C67.3182 91.3929 69.4767 90.5423 71.2244 89.1015C71.5011 88.8518 71.7946 88.6215 72.1029 88.4122C72.2062 88.4122 72.4991 88.4122 72.6024 88.6017C72.6401 88.6735 72.6598 88.7533 72.6598 88.8344C72.6598 88.9155 72.6401 88.9953 72.6024 89.0671C72.4522 89.3065 72.2663 89.5215 72.0512 89.7047C70.2916 91.2856 68.0806 92.2741 65.7297 92.5312C64.7824 92.7035 63.7316 92.6863 63.0427 92.7208Z" fill="#030202"/>
<path d="M98.9563 269.718C99.0047 270.188 99.2256 270.624 99.5764 270.941C102.723 274.825 105.869 278.697 109.016 282.557C109.36 282.971 109.618 283.557 110.342 283.367C110.342 283.919 110.342 284.47 110.342 285.091C108.619 282.936 106.725 280.799 104.951 278.645C102.918 276.186 100.914 273.704 98.9391 271.2C98.6588 270.778 98.2549 270.454 97.7829 270.272C97.3109 270.09 96.7941 270.059 96.3037 270.183C92.1525 270.89 87.9669 271.407 83.7985 271.906C83.4257 271.932 83.0517 271.932 82.6789 271.906C82.9846 271.694 83.3217 271.531 83.6779 271.424C87.7602 270.821 91.8597 270.235 95.9592 269.7C96.9573 269.633 97.959 269.639 98.9563 269.718Z" fill="#C4C4C4"/>
<path d="M67.2628 139.202C66.0915 141.89 65.2991 144.476 63.99 146.854C63.99 146.854 63.835 146.854 63.7489 146.94C62.9477 144.047 62.5137 141.065 62.457 138.064C62.5432 138.064 62.6293 138.064 62.681 138.064L67.2628 139.202Z" fill="#030202"/>
<path d="M86.3478 146.802L80.0435 156.126C79.6434 155.124 79.3714 154.076 79.2339 153.007C79.0743 152.517 79.0941 151.986 79.2898 151.509C79.4854 151.032 79.8442 150.641 80.3019 150.404C82.0243 149.215 83.7468 147.853 85.4693 146.578L86.3478 146.802Z" fill="#030202"/>
<path d="M26.974 285.039C27.1571 285.001 27.33 284.924 27.4814 284.814C27.6328 284.704 27.7592 284.563 27.8525 284.401C30.9874 279.834 34.1395 275.25 37.2572 270.614C37.3972 270.371 37.5016 270.11 37.5672 269.838L35.7242 269.08C37.6196 269.057 39.502 269.397 41.2705 270.079C38.6524 269.855 38.6524 269.855 37.0677 272.165C34.1395 276.422 31.2285 280.696 28.3003 284.935C27.9386 285.487 27.508 285.97 27.0946 286.487C26.9912 286.09 26.1989 285.608 26.974 285.039Z" fill="#C4C4C4"/>
<path d="M119.35 232.922C119.247 232.629 119.35 232.009 118.851 232.216C118.233 232.488 117.654 232.842 117.128 233.267L110.238 238.265C109.877 238.541 109.481 238.782 109.084 239.058C108.654 238.489 109.084 238.282 109.343 238.144C112.357 235.904 115.44 233.732 118.42 231.423C119.213 230.82 119.764 231.268 120.418 231.423C120.4 231.748 120.29 232.062 120.101 232.327C119.912 232.593 119.652 232.799 119.35 232.922Z" fill="#C4C4C4"/>
<path d="M22.1166 244.848C22.6672 244.799 23.2138 244.712 23.7529 244.59C27.5079 243.487 31.2285 242.367 34.9663 241.143C35.3107 241.04 35.6036 240.85 35.9481 241.143C35.8447 241.281 35.7586 241.505 35.6036 241.557L23.0812 245.365C22.9848 245.409 22.8796 245.43 22.7739 245.427C22.6681 245.423 22.5645 245.395 22.4713 245.345C22.378 245.295 22.2974 245.224 22.2359 245.138C22.1744 245.052 22.1336 244.953 22.1166 244.848Z" fill="#C4C4C4"/>
<path d="M25.441 196.144C27.2657 198.289 28.8004 200.665 30.0055 203.21C29.7626 203.198 29.5287 203.115 29.3326 202.971C29.1366 202.827 28.9873 202.628 28.9031 202.4C27.9386 200.815 26.9912 199.229 25.9922 197.661C25.751 197.264 25.4237 196.902 24.8725 197.213C24.8356 197.105 24.8211 196.991 24.8301 196.878C24.839 196.765 24.8711 196.655 24.9245 196.555C24.9778 196.454 25.0512 196.366 25.14 196.296C25.2289 196.225 25.3313 196.173 25.441 196.144Z" fill="#C4C4C4"/>
<path d="M72.9296 48.4975C73.033 48.2045 72.809 48.0838 72.654 47.877C71.0349 45.6538 71.1038 45.447 73.7736 43.9304C73.6608 45.2904 73.311 46.6203 72.7401 47.8598C72.6196 48.2045 72.7401 48.3424 72.9124 48.5492L72.9296 48.4975Z" fill="#030202"/>
<path d="M77.7526 58.5968C78.4532 58.8535 79.0556 59.3237 79.475 59.9411C79.6128 60.1651 79.475 60.2858 79.3372 60.4236C78.7014 60.9665 77.9635 61.3767 77.1669 61.63C76.943 60.1824 76.9258 60.1824 77.7526 58.5968Z" fill="#030202"/>
<path d="M59.9594 105.612C60.2695 106.491 59.77 107.336 59.5805 108.077C59.391 108.818 59.4944 110.283 58.3403 110.886C57.7202 109.852 58.3403 108.904 58.547 107.921V107.646C58.702 106.732 58.547 106.095 57.5135 106.095C56.9623 106.095 56.3595 106.095 56.0839 105.457L59.9594 105.612Z" fill="#C4C4C4"/>
<path d="M54.5508 55.4429C54.5508 56.0978 54.5508 56.6665 54.413 57.1663C54.2752 57.6661 53.7929 58.5278 53.5001 58.321C53.2073 58.1142 53.3279 57.4765 53.5001 57.0457C53.7854 55.7557 53.7319 54.4139 53.3451 53.1507C53.3293 53.1055 53.3231 53.0575 53.3268 53.0098C53.3306 52.962 53.3443 52.9156 53.3669 52.8735C53.3896 52.8313 53.4209 52.7943 53.4586 52.7649C53.4964 52.7355 53.5398 52.7143 53.5862 52.7026C53.712 52.6572 53.8505 52.6624 53.9726 52.717C54.0946 52.7716 54.1908 52.8715 54.2408 52.9956C54.637 53.8228 54.413 54.7018 54.5508 55.4429Z" fill="#C4C4C4"/>
<path d="M59.9594 105.612L56.1355 105.457C56.7345 105.159 57.3989 105.017 58.0673 105.044C58.7357 105.071 59.3864 105.267 59.9594 105.612Z" fill="#030202"/>
<path d="M86.3477 146.802L85.4348 146.578C85.5382 146.423 85.6071 146.233 85.7449 146.164C85.8827 146.096 86.3133 145.889 86.4339 145.975C86.5544 146.061 86.7094 146.492 86.3477 146.802Z" fill="#C4C4C4"/>
<path d="M115.681 193.904C115.561 193.611 115.681 193.438 115.94 193.3C116.043 193.593 115.992 193.8 115.681 193.904Z" fill="#C4C4C4"/>
<path d="M11.4028 130.378C11.5369 130.432 11.6455 130.535 11.7063 130.666C11.7671 130.798 11.7756 130.947 11.7301 131.084C11.6576 131.066 11.5901 131.032 11.5325 130.985C11.4749 130.937 11.4287 130.877 11.3973 130.81C11.3659 130.742 11.3501 130.668 11.3511 130.593C11.352 130.518 11.3697 130.445 11.4028 130.378Z" fill="#C4C4C4"/>
<path d="M71.9478 110.007C73.2052 108.904 73.9976 108.146 74.876 107.473C82.064 102.154 89.5394 97.2347 97.2682 92.738C97.4445 92.7032 97.6259 92.7032 97.8022 92.738C97.9005 92.839 97.9637 92.9689 97.9823 93.1087C98.001 93.2484 97.974 93.3904 97.9055 93.5136C96.8344 96.7271 95.1756 99.7134 93.0137 102.32C91.0977 104.672 88.5346 106.41 85.6415 107.318C82.5131 108.339 79.3337 109.196 76.1162 109.886C74.7459 110.182 73.3329 110.223 71.9478 110.007Z" fill="#F6F7F7"/>
<path d="M57.7029 197.506C57.9096 197.178 57.9613 196.971 58.0991 196.868L71.1555 187.475C71.2903 187.346 71.4591 187.258 71.6421 187.221C71.8252 187.185 72.0149 187.201 72.189 187.268C72.3394 187.5 72.4387 187.762 72.4802 188.035C72.5218 188.309 72.5047 188.588 72.4301 188.854C72.2466 189.067 72.0449 189.263 71.8273 189.44L70.1048 190.698C71.059 191.737 72.1689 192.621 73.3947 193.318C73.9713 193.727 74.4327 194.279 74.7344 194.919C75.036 195.559 75.1679 196.266 75.1172 196.971L68.2273 192.077C65.729 193.717 63.3198 195.489 61.0101 197.385C62.7309 198.337 64.6237 198.936 66.5783 199.149C68.533 199.363 70.5104 199.185 72.3957 198.626C73.2052 198.402 73.9803 198.057 74.7899 197.781C75.1344 197.661 75.4789 197.557 75.72 198.005C75.9612 198.454 75.9956 199.281 75.5478 199.522C75.1348 199.747 74.7093 199.949 74.2732 200.125C71.5241 201.18 68.546 201.494 65.6377 201.034C62.7294 200.574 59.993 199.357 57.7029 197.506Z" fill="#F6F7F7"/>
<path d="M77.253 198.367C76.6026 197.233 76.11 196.016 75.7889 194.748C74.5488 191.095 73.3947 187.424 72.189 183.753C72.0856 183.391 71.9306 183.046 71.8273 182.684C71.745 182.517 71.7259 182.325 71.7733 182.145C71.8208 181.964 71.9317 181.807 72.0856 181.702C72.3462 181.599 72.6318 181.576 72.9052 181.638C73.1787 181.699 73.4273 181.842 73.6186 182.046C73.8253 182.46 73.9631 182.908 74.1354 183.339C74.3076 183.77 74.5143 184.201 74.721 184.683C75.7763 184.244 76.7446 183.619 77.5803 182.839C78.1331 182.324 78.8032 181.951 79.5325 181.752C80.2618 181.554 81.0284 181.537 81.7659 181.702C82.0071 182.271 81.542 182.46 81.1975 182.719C79.475 183.942 77.8559 185.166 76.1679 186.372C75.9192 186.508 75.729 186.731 75.6338 186.998C75.5385 187.265 75.5446 187.557 75.6511 187.82C76.4263 190.216 77.2186 192.628 77.9765 194.955C78.8377 195.145 79.1133 194.559 79.4578 194.162C81.9097 191.378 83.1931 187.754 83.0406 184.046C83.0406 183.477 83.0406 182.908 83.0406 182.322C83.0333 182.228 83.0458 182.134 83.0774 182.045C83.109 181.956 83.1589 181.875 83.2239 181.807C83.2888 181.738 83.3674 181.685 83.4546 181.649C83.5417 181.613 83.6354 181.596 83.7296 181.598C84.2291 181.598 84.7114 181.598 84.8492 182.184C85.2758 184.22 85.2168 186.328 84.6769 188.337C83.7867 192.346 81.4108 195.869 78.0282 198.195C77.7782 198.285 77.5177 198.343 77.253 198.367Z" fill="#F6F7F7"/>
<path d="M62.7498 188.165C62.2675 189.629 61.8886 190.784 61.5269 191.939C61.3964 192.585 61.0837 193.179 60.6258 193.653C60.1678 194.126 59.5839 194.459 58.9431 194.61C58.5986 194.024 58.9431 193.507 59.0465 192.887C59.6149 191.163 60.2005 189.302 60.769 187.527C60.8385 187.353 60.8559 187.163 60.8192 186.979C60.7825 186.795 60.6933 186.627 60.5623 186.493C58.3838 184.836 56.1121 183.305 53.7585 181.908C53.2495 183.024 53.0991 184.271 53.3279 185.476C53.5512 188.507 54.7133 191.392 56.6522 193.731L57.5824 194.8C57.6543 194.858 57.7123 194.931 57.7522 195.015C57.792 195.098 57.8127 195.19 57.8127 195.282C57.8127 195.375 57.792 195.466 57.7522 195.55C57.7123 195.633 57.6543 195.707 57.5824 195.765C57.2207 196.092 56.8245 196.403 56.3422 196.127C56.0135 195.933 55.7219 195.682 55.481 195.386C53.5669 193.218 52.2556 190.586 51.6782 187.752C51.1008 184.917 51.2777 181.981 52.191 179.237C52.3805 178.565 52.8283 178.427 53.4657 178.892L66.3153 188.13C66.6598 188.389 67.1593 188.699 66.6771 189.216C66.1948 189.733 65.8158 190.043 65.1957 189.698C64.5756 189.354 63.7316 188.854 62.7498 188.165Z" fill="#F6F7F7"/>
<path d="M69.278 168.035C67.5555 173.757 65.678 179.237 63.8005 184.769C62.0781 183.873 62.0781 183.873 62.5087 182.46C62.6245 182.103 62.7222 181.741 62.8015 181.374C62.9221 180.857 62.6465 180.513 62.0436 180.495C60.9068 180.495 59.7872 180.495 58.5987 180.495C57.9468 180.511 57.3015 180.361 56.7232 180.06C56.1449 179.758 55.6523 179.315 55.2915 178.772C58.2714 178.496 60.9585 178.772 63.7489 178.565C64.5757 176.032 65.4713 173.55 66.1948 171.051C66.4015 170.379 66.0398 170.069 65.2646 170.224C61.5299 170.948 58.2174 173.083 56.015 176.187C55.5154 176.859 55.0848 177.583 54.5681 178.358C54.2252 178.193 53.8916 178.009 53.569 177.807C53.4013 177.719 53.2749 177.568 53.217 177.388C53.159 177.207 53.1741 177.011 53.259 176.842L53.5346 176.342C55.0907 173.596 57.4007 171.355 60.191 169.883C62.9812 168.41 66.1348 167.769 69.278 168.035Z" fill="#F6F7F7"/>
<path d="M70.1737 178.358C70.1893 177.233 69.929 176.12 69.4158 175.118C68.8301 173.016 68.7785 173.033 69.8292 170.689C71.1899 173.136 71.5516 175.859 72.7057 178.375C74.7353 178.611 76.7824 178.658 78.8205 178.513C79.6817 178.513 80.9391 179.117 81.3181 178.065C81.697 177.014 80.6463 176.342 80.0951 175.67C77.9139 172.794 74.7493 170.824 71.2072 170.137C70.6215 170 70.0703 169.896 70.1564 169.138C70.1597 168.973 70.2026 168.811 70.2813 168.665C70.3601 168.52 70.4725 168.396 70.6092 168.303C70.7458 168.21 70.9027 168.152 71.0667 168.132C71.2306 168.112 71.397 168.132 71.5516 168.19C74.4328 168.726 77.1206 170.017 79.3414 171.93C81.5622 173.843 83.2368 176.311 84.1946 179.082C84.5736 180.082 84.298 180.461 83.2128 180.461C78.0454 180.461 72.878 180.461 67.7105 180.461C67.2455 180.461 66.7287 180.461 66.7287 179.789C66.6944 179.506 66.7728 179.221 66.9468 178.995C67.1208 178.769 67.3766 178.621 67.6588 178.582C68.5033 178.619 69.349 178.544 70.1737 178.358Z" fill="#F6F7F7"/>
<path d="M28.2658 425.912C28.5242 424.999 28.662 424.189 27.5424 423.655C27.3827 423.567 27.2326 423.463 27.0945 423.345C26.87 423.115 26.602 422.933 26.3063 422.809C26.0105 422.684 25.6929 422.62 25.3721 422.62C25.0512 422.62 24.7337 422.684 24.4379 422.809C24.1421 422.933 23.8741 423.115 23.6496 423.345C23.4084 423.569 22.9778 423.586 22.6333 423.706C23.0812 423.103 23.5118 422.517 24.0458 421.828C23.3395 420.725 21.9616 420.397 21.0659 419.519C20.6869 419.157 20.5491 418.743 21.0659 418.329C22.1097 417.135 23.4627 416.253 24.9759 415.779C24.373 417.226 22.7195 417.657 21.8238 418.864C22.4439 419.88 23.5462 420.104 24.373 420.587C24.6569 420.747 24.9773 420.831 25.3032 420.831C25.629 420.831 25.9494 420.747 26.2333 420.587C27.1634 420.173 27.8008 419.174 28.9376 419.208C28.4708 420.007 27.7828 420.654 26.9567 421.07C26.2161 421.587 26.2678 422.018 27.1118 422.535C27.9558 423.052 28.5759 423.327 29.2476 423.827C30.2295 424.551 30.1089 425.171 28.9031 425.895C28.6939 425.943 28.4773 425.949 28.2658 425.912Z" fill="#F6F7F7"/>
<path d="M24.3041 412.866C24.6754 412.933 25.0389 413.037 25.3893 413.176C25.8423 413.439 26.3729 413.535 26.889 413.446C27.4051 413.358 27.874 413.092 28.2142 412.694C28.8978 412.052 29.6913 411.538 30.5567 411.177C30.5422 411.404 30.4757 411.625 30.3622 411.822C30.2487 412.02 30.0913 412.188 29.9022 412.315C29.0926 412.935 28.3175 413.59 27.4735 414.262C27.7146 415.434 29.0926 415.761 29.4199 416.847C29.1833 416.853 28.9481 416.81 28.7288 416.722C28.5095 416.633 28.3108 416.499 28.1453 416.33C27.7632 415.858 27.2255 415.538 26.6287 415.428C26.032 415.317 25.4154 415.423 24.8898 415.727C25.9577 414.503 24.8037 413.762 24.3041 412.866Z" fill="#F6F7F7"/>
<path d="M29.9883 417.399C30.5395 417.399 30.9701 417.588 30.5223 418.209C30.3305 418.488 30.0731 418.715 29.7727 418.872C29.4724 419.028 29.1383 419.108 28.7998 419.105L29.9194 417.381L29.9883 417.399Z" fill="#F6F7F7"/>
<path d="M29.4027 416.847C29.543 416.873 29.673 416.939 29.7769 417.036C29.8808 417.134 29.9542 417.26 29.9884 417.399C29.8498 417.365 29.7241 417.291 29.6263 417.187C29.5286 417.083 29.4629 416.953 29.4372 416.813L29.4027 416.847Z" fill="#F6F7F7"/>
<path d="M109.153 415.141C111.048 415.589 112.305 414.348 113.701 413.418C113.7 413.65 113.652 413.879 113.56 414.093C113.469 414.306 113.335 414.498 113.167 414.658C112.719 415.107 111.978 415.244 111.685 416.037C112.182 416.891 112.865 417.621 113.683 418.174C114.097 418.553 114.631 418.777 115.061 419.139C116.439 420.363 117.008 420.863 114.941 421.88C114.2 422.306 113.487 422.778 112.805 423.293L113.683 424.775C111.444 423.638 109.842 424.775 108.327 426.292C108.831 427.099 109.486 427.801 110.256 428.36C110.42 428.534 110.638 428.649 110.875 428.686C111.112 428.724 111.354 428.682 111.565 428.567C112.512 427.981 113.425 427.326 114.304 426.654C114.631 426.395 114.562 425.999 114.304 425.671C114.045 425.344 113.89 425.051 113.683 424.758C114.014 424.759 114.34 424.834 114.638 424.977C114.936 425.12 115.198 425.328 115.406 425.585C115.802 425.964 115.871 426.395 115.406 426.757C114.799 427.316 114.141 427.818 113.442 428.256C113.195 428.368 112.974 428.531 112.795 428.734C112.616 428.938 112.483 429.178 112.405 429.438C112.326 429.698 112.304 429.971 112.341 430.24C112.377 430.509 112.471 430.767 112.616 430.997C111.289 429.911 109.946 430.652 108.619 430.997L109.446 429.876C109.596 429.696 109.671 429.464 109.655 429.23C109.639 428.996 109.533 428.777 109.36 428.618C108.51 427.852 107.758 426.984 107.121 426.033L109.928 424.137C110.772 423.551 110.772 423.534 110.032 422.414C109.93 422.253 109.838 422.086 109.756 421.914C111.978 423.069 113.666 422.207 115.182 420.604C114.734 419.329 113.46 419.036 112.667 418.312C110.945 416.709 110.411 416.589 108.413 418.433C108.162 418.696 107.927 418.972 107.706 419.26C108.051 420.501 109.429 420.846 109.791 421.949C109.233 421.88 108.707 421.653 108.275 421.294C105.881 419.674 105.881 419.674 107.965 417.847C108.378 417.468 108.757 417.054 109.171 416.692C109.584 416.33 109.308 415.641 109.153 415.141Z" fill="#F6F7F7"/>
<path d="M22.6161 411.16C23.3809 411.505 23.9934 412.118 24.3386 412.883C23.8818 412.883 23.4437 412.702 23.1207 412.379C22.7976 412.055 22.6161 411.617 22.6161 411.16Z" fill="#F6F7F7"/>
</svg>
