<svg width="274" height="95" viewBox="0 0 274 95" fill="none" xmlns="http://www.w3.org/2000/svg">
<path d="M0.648227 87.5L4.32407 73.5H268.027L273.278 87.5H0.648227Z" fill="white" stroke="black"/>
<path d="M13.161 94L5.50553 88.5H267.965L261.32 94H13.161Z" fill="white" stroke="black"/>
<g clip-path="url(#clip0)">
<path d="M169.528 20.4236H157.968H152.805H138.394H127.065H115.736H104.485H96.4698C94.0037 20.4236 92 22.4273 92 24.8934V50.5562C92 53.0224 94.0037 55.0261 96.4698 55.0261H106.411C106.951 58.7252 110.11 61.5766 113.964 61.5766C117.817 61.5766 120.977 58.7252 121.439 55.0261H152.882H153.807C154.577 58.4169 157.583 60.9601 161.205 60.9601C164.827 60.9601 167.833 58.4169 168.603 55.0261H169.528C171.994 55.0261 173.998 53.0224 173.998 50.5562V24.8934C174.075 22.4273 172.071 20.4236 169.528 20.4236ZM128.221 22.7355H137.238V36.6074H128.221V22.7355ZM116.892 22.7355H125.909V36.6074H116.892V22.7355ZM105.564 22.7355H114.58V36.6074H105.564V22.7355ZM94.2349 24.8934C94.2349 23.7374 95.2368 22.7355 96.4698 22.7355H103.329V36.6074H94.2349V24.8934ZM113.887 59.2647C110.958 59.2647 108.569 56.8756 108.569 53.9471C108.569 51.0186 110.958 48.6296 113.887 48.6296C116.815 48.6296 119.204 51.0186 119.204 53.9471C119.204 56.8756 116.815 59.2647 113.887 59.2647ZM121.362 52.637C120.745 49.0149 117.663 46.3176 113.887 46.3176C110.11 46.3947 107.028 49.1691 106.411 52.7141H96.3927C95.1597 52.7141 94.2349 51.7122 94.2349 50.5562V38.8423H148.335V50.4792C148.335 51.2498 148.566 52.0205 148.952 52.637H121.362ZM148.335 24.8934V36.5303H139.55V22.7355H148.952C148.566 23.3521 148.335 24.1227 148.335 24.8934ZM150.647 24.8934C150.647 23.6603 151.649 22.7355 152.805 22.7355H158.045H160.049V36.6074H150.647V24.8934ZM161.205 58.7252C158.276 58.7252 155.887 56.3362 155.887 53.4077C155.887 50.4792 158.276 48.0901 161.205 48.0901C164.133 48.0901 166.523 50.4792 166.523 53.4077C166.523 56.3362 164.133 58.7252 161.205 58.7252ZM169.605 52.7141H168.757C168.449 48.8608 165.135 45.7782 161.205 45.7782C157.275 45.7782 153.961 48.8608 153.653 52.7141H152.882C151.649 52.7141 150.724 51.7122 150.724 50.5562V38.8423H161.282C161.282 38.8423 163.979 38.7652 166.368 41.1542C168.757 43.5433 170.068 47.3966 170.145 52.637C169.99 52.7141 169.836 52.7141 169.605 52.7141ZM171.763 46.9342C171.069 43.7745 169.759 41.3084 167.91 39.5359C165.906 37.5321 163.671 36.9156 162.361 36.6844V22.7355H169.528C170.761 22.7355 171.763 23.7374 171.763 24.8934V46.9342Z" fill="white"/>
</g>
<defs>
<clipPath id="clip0">
<rect width="82" height="82" fill="white" transform="translate(92)"/>
</clipPath>
</defs>
</svg>
