<svg width="274" height="152" viewBox="0 0 274 152" fill="none" xmlns="http://www.w3.org/2000/svg">
<path d="M0.648227 140.5L4.32407 126.5H268.027L273.278 140.5H0.648227Z" fill="white" stroke="black"/>
<path d="M13.161 147L5.50553 141.5H267.965L261.32 147H13.161Z" fill="white" stroke="black"/>
<g clip-path="url(#clip0)" filter="url(#filter0_d)">
<path d="M208.783 72.2854C209.176 71.4963 209.072 70.583 208.512 69.9021C208.164 69.4794 207.771 69.0916 207.343 68.7498C207.066 68.5292 206.777 68.3297 206.476 68.1496L206.702 67.2965C206.835 66.7938 206.535 66.278 206.032 66.1452C205.529 66.0124 205.013 66.3123 204.881 66.8152L204.733 67.3749C204.732 67.3745 204.731 67.3743 204.73 67.3739L203.997 67.1505L204.163 66.5214C204.295 66.0181 203.995 65.5032 203.492 65.3703C202.989 65.2377 202.474 65.5376 202.341 66.0406L202.193 66.6012L201.458 66.377L201.624 65.7491C201.756 65.2459 201.457 64.7306 200.954 64.5976C200.451 64.4648 199.936 64.7645 199.802 65.2673L199.654 65.8275L198.918 65.6034L199.084 64.9738C199.217 64.4709 198.916 63.9553 198.414 63.8227C197.911 63.6901 197.395 63.99 197.263 64.4931L197.115 65.054L196.38 64.8303L196.547 64.2018C196.681 63.6987 196.381 63.1829 195.878 63.0499C195.376 62.9166 194.86 63.216 194.726 63.7186L194.577 64.2806L193.843 64.0569L194.009 63.4276C194.141 62.9246 193.841 62.4097 193.338 62.2766C192.835 62.1439 192.32 62.444 192.187 62.9472L192.016 63.5942C191.01 63.5579 190.037 64.0929 189.545 65.015C189.171 65.7183 188.511 66.226 187.735 66.4081L139.709 77.6683C137.958 78.0778 136.148 77.6698 134.742 76.5482C134.514 76.3664 134.298 76.1655 134.099 75.9511L130.316 71.8654C130.183 71.7218 130.039 71.5874 129.887 71.4659C128.598 70.4375 126.792 70.3345 125.393 71.2094L116.06 77.046C115.023 77.6948 113.752 77.8811 112.572 77.5573L76.5943 67.6815C75.4884 67.3779 74.3453 67.7362 73.6108 68.6164C72.8757 69.4977 72.7278 70.6878 73.225 71.7226C76.6977 78.9484 86.2476 97.2727 99.8869 111.337C100.012 111.465 100.145 111.587 100.285 111.698C101.795 112.903 103.921 112.923 105.455 111.747L119.11 101.265C120.401 100.275 122 99.8353 123.615 100.027L148.137 102.929C149.014 103.032 149.799 102.576 150.137 101.767C150.475 100.958 150.252 100.057 149.584 99.5238C149.463 99.4267 149.327 99.3429 149.182 99.2746L134.688 92.4699C134.463 92.364 134.254 92.2353 134.069 92.0877C133.219 91.4095 132.84 90.3008 133.079 89.1945C133.317 88.098 134.114 87.2776 135.214 86.9999L191.144 72.869L206.719 73.5068C207.599 73.5426 208.391 73.0748 208.783 72.2854ZM132.895 93.5603C133.195 93.7998 133.529 94.0066 133.888 94.1752L148.381 100.98C148.397 100.987 148.384 101.061 148.359 101.058L123.837 98.1557C121.732 97.9067 119.646 98.4803 117.964 99.7711L104.308 110.252C103.463 110.9 102.292 110.889 101.46 110.225C101.383 110.164 101.309 110.097 101.24 110.025C87.7926 96.1595 78.3562 78.0493 74.9232 70.9067C74.6623 70.3638 74.9601 69.9404 75.0574 69.8237C75.1547 69.7074 75.5166 69.3396 76.0956 69.4985L112.073 79.3741C113.76 79.8369 115.577 79.5707 117.059 78.6434L126.391 72.8071C127.114 72.3552 128.046 72.4081 128.711 72.9388C128.789 73.0017 128.864 73.0712 128.933 73.1459L132.716 77.2316C132.979 77.5151 133.265 77.7805 133.566 78.0211C133.941 78.3205 134.339 78.5794 134.753 78.8007L133.347 79.1219C133.102 79.1777 132.89 79.3291 132.757 79.5422C132.624 79.7552 132.582 80.0123 132.64 80.2565L133.874 85.4854C132.523 86.1077 131.563 87.2938 131.238 88.7965C130.846 90.6072 131.481 92.4327 132.895 93.5603ZM135.68 84.9388L134.691 80.7468L188.164 68.2421C188.511 68.1609 188.844 68.0397 189.157 67.8851L189.923 71.2346L135.68 84.9388ZM206.796 71.6241L191.804 71.0104L190.786 66.5534C190.943 66.3494 191.085 66.1314 191.208 65.9006C191.388 65.563 191.784 65.3988 192.15 65.5105L204.181 69.1763C205.305 69.5188 206.311 70.1914 207.058 71.099C207.173 71.2389 207.131 71.3766 207.097 71.4463C207.062 71.5159 206.977 71.6316 206.796 71.6241Z" fill="white"/>
<path d="M108.375 95.6395C108.882 95.5235 109.2 95.0185 109.083 94.5112L106.881 84.8687C106.765 84.3611 106.259 84.0443 105.752 84.1601C105.245 84.2761 104.928 84.7812 105.044 85.2884L107.247 94.931C107.296 95.1471 107.416 95.3288 107.577 95.4571C107.794 95.6297 108.084 95.7059 108.375 95.6395Z" fill="white"/>
<path d="M109.176 84.3444L111.379 93.9868C111.428 94.203 111.549 94.3847 111.709 94.5129C111.926 94.6858 112.216 94.7619 112.507 94.6956C113.014 94.5796 113.332 94.0745 113.215 93.5673L111.013 83.9249C110.897 83.4173 110.392 83.1006 109.885 83.2164C109.378 83.332 109.061 83.8372 109.176 84.3444Z" fill="white"/>
<path d="M112.487 82.6219L115.109 94.1006L121.078 92.7371L118.456 81.258L112.487 82.6219ZM118.822 91.32L116.526 91.8445L114.743 84.0387L117.039 83.5141L118.822 91.32Z" fill="white"/>
<path d="M121.058 80.6637L123.68 92.1427L129.649 90.7791L127.027 79.3001L121.058 80.6637ZM127.393 89.3621L125.098 89.8866L123.314 82.0808L125.61 81.5562L127.393 89.3621Z" fill="white"/>
<path d="M112.143 100.495C112.013 99.9254 111.69 99.4113 111.233 99.0472C110.612 98.5518 109.812 98.3689 109.039 98.5457C107.646 98.8643 106.771 100.257 107.09 101.65C107.22 102.219 107.543 102.734 107.999 103.098C108.62 103.593 109.42 103.776 110.193 103.599C110.868 103.445 111.443 103.037 111.811 102.451C112.179 101.865 112.297 101.17 112.143 100.495ZM109.774 101.762C109.562 101.811 109.344 101.761 109.174 101.625C109.086 101.555 108.972 101.43 108.926 101.23C108.839 100.85 109.078 100.469 109.458 100.382C109.67 100.334 109.888 100.384 110.058 100.52C110.146 100.59 110.26 100.715 110.306 100.915C110.348 101.099 110.316 101.289 110.215 101.449C110.115 101.609 109.958 101.72 109.774 101.762Z" fill="white"/>
<path d="M106.017 104.064C105.887 103.494 105.564 102.979 105.108 102.615C104.487 102.12 103.687 101.937 102.913 102.114C101.52 102.432 100.646 103.825 100.964 105.218C101.094 105.787 101.417 106.302 101.873 106.666C102.494 107.161 103.294 107.344 104.068 107.167C105.461 106.849 106.335 105.457 106.017 104.064ZM103.648 105.331C103.437 105.379 103.218 105.329 103.049 105.194C102.961 105.124 102.846 104.998 102.801 104.799C102.759 104.614 102.791 104.425 102.891 104.265C102.992 104.104 103.149 103.993 103.333 103.951C103.545 103.903 103.763 103.953 103.933 104.088C104.021 104.158 104.135 104.284 104.181 104.483C104.223 104.668 104.191 104.857 104.09 105.017C103.989 105.177 103.833 105.289 103.648 105.331Z" fill="white"/>
</g>
<defs>
<filter id="filter0_d" x="41" y="-20" width="191.779" height="191.779" filterUnits="userSpaceOnUse" color-interpolation-filters="sRGB">
<feFlood flood-opacity="0" result="BackgroundImageFix"/>
<feColorMatrix in="SourceAlpha" type="matrix" values="0 0 0 0 0 0 0 0 0 0 0 0 0 0 0 0 0 0 127 0"/>
<feOffset/>
<feGaussianBlur stdDeviation="10"/>
<feColorMatrix type="matrix" values="0 0 0 0 0.847059 0 0 0 0 0 0 0 0 0 0 0 0 0 1 0"/>
<feBlend mode="normal" in2="BackgroundImageFix" result="effect1_dropShadow"/>
<feBlend mode="normal" in="SourceGraphic" in2="effect1_dropShadow" result="shape"/>
</filter>
<clipPath id="clip0">
<rect width="108" height="108" fill="white" transform="translate(128.359) rotate(38.5866)"/>
</clipPath>
</defs>
</svg>
