<svg width="275" height="263" viewBox="0 0 275 263" fill="none" xmlns="http://www.w3.org/2000/svg">
<path d="M0.648227 246.5L4.32407 232.5H268.027L273.278 246.5H0.648227Z" fill="white" stroke="black"/>
<path d="M0.589086 270.5L4.37716 247.5H268.957L274.369 270.5H0.589086Z" fill="white" stroke="black"/>
<path d="M105 99L93 81.0842L100.333 76L105 99Z" fill="black"/>
<path fill-rule="evenodd" clip-rule="evenodd" d="M100.644 75L106 98.3881L104.664 99L91 80.9247L100.644 75ZM93.19 81.334L103.75 95.304L99.6435 77.3695L93.19 81.334Z" fill="white"/>
<path d="M139.077 159L134 145.676L152 142L148.769 159H139.077Z" fill="#FEFEFE"/>
<path d="M101 107.809L106.7 99L116.2 107.809L120 122L106.7 116.128L101 107.809Z" fill="white"/>
<path d="M175 97.8214L167.379 88L162 113L175 104.518V97.8214Z" fill="white"/>
<path d="M107.892 103.029L101 77.1L125.351 54L169 58.7143L166.703 98.7857H163.946L161.649 138.386L143.73 153L125.351 142.629L117.081 110.1L107.892 103.029Z" fill="white"/>
<path fill-rule="evenodd" clip-rule="evenodd" d="M124.424 54L170 58.7846L167.58 99.809H164.751L162.41 139.037L143.535 154L124.139 143.361L115.64 110.868L106.212 103.816L99 77.4428L124.424 54ZM124.81 55.1563L100.252 77.8003L107.186 103.157L116.619 110.213L125.096 142.619L143.422 152.671L161.327 138.477L163.701 98.6994H166.53L168.826 59.7771L124.81 55.1563Z" fill="black"/>
<path d="M167 89L183 68.4043L170.246 67L167 89Z" fill="black"/>
<path fill-rule="evenodd" clip-rule="evenodd" d="M169.652 66L184 67.6596L166 92L169.652 66ZM170.851 67.6465L168.187 86.6114L181.317 68.857L170.851 67.6465Z" fill="white"/>
<path d="M200.874 47.791C199.369 49.6441 194.292 64.6234 191.941 71.8814C191.941 68.3007 182.27 67.5552 175.669 67.636C175.61 67.6609 175.549 67.6862 175.487 67.7119C168.341 70.6768 167.495 66.4765 167.965 64.0056L155.742 67.7119L151.04 60.7627L142.578 64.0056V58.4463L133.646 64.0056C131.013 71.7887 119.072 74.661 113.431 75.1243L108.259 83L100.267 76.9774L87.5738 83L82.8726 76.9774H79.5817C78.8295 71.0475 74.8805 71.1092 73 71.8814L77.2311 50.1073L82.8726 47.791V40.8418C96.4121 37.8768 96.9763 26.9435 95.5659 21.8475L108.259 24.6271L111.55 12.5819L124.714 3.77966L136.937 9.33898C141.638 6.55932 147.75 1 147.75 1C147.75 1 155.428 8.72128 160.913 12.5819L165.144 9.33898L177.838 26.9435L184.419 24.6271C183.009 36.209 202.754 45.4746 200.874 47.791Z" fill="black"/>
<path fill-rule="evenodd" clip-rule="evenodd" d="M147.338 0L147.835 0.502891L147.312 1.0133C147.835 0.502891 147.835 0.50286 147.835 0.502891L147.84 0.508058L147.857 0.524252L147.921 0.588658C147.977 0.645474 148.061 0.72957 148.17 0.838123C148.388 1.05524 148.706 1.37014 149.105 1.76024C149.903 2.54059 151.024 3.62116 152.314 4.82154C154.761 7.09866 157.794 9.7847 160.387 11.6755L164.764 8.30484L177.509 26.0643L184.648 23.5398L184.506 24.7075C184.183 27.3778 185.066 29.9574 186.626 32.4038C188.188 34.8531 190.396 37.1158 192.628 39.1249C193.741 40.1271 194.853 41.0596 195.886 41.9174C196.048 42.0521 196.209 42.1852 196.368 42.3166C197.213 43.0174 197.999 43.6687 198.664 44.2554C199.443 44.9437 200.108 45.5881 200.516 46.1593C200.719 46.4436 200.898 46.764 200.969 47.1048C201.045 47.477 200.989 47.879 200.713 48.2206C200.586 48.3775 200.376 48.7419 200.089 49.3444C199.812 49.9268 199.489 50.677 199.131 51.559C198.417 53.322 197.576 55.582 196.707 58.018C194.968 62.8884 193.124 68.4356 191.957 72.057L190.524 71.835C190.524 71.3234 190.196 70.8 189.288 70.2833C188.387 69.7704 187.072 69.3631 185.489 69.0571C182.382 68.4565 178.464 68.2863 175.229 68.3198L175.179 68.3405C171.561 69.849 169.183 69.6855 167.808 68.3805C166.84 67.4614 166.559 66.1397 166.577 64.983L154.953 68.5242L150.301 61.6159L141.436 65.0296V59.7308L133.895 64.4463C132.421 68.4875 128.637 71.1881 124.653 72.9297C120.734 74.6428 116.477 75.4932 113.605 75.7688L108.226 84L100.006 77.7764L87.2524 83.8562L82.4347 77.655H78.8753L78.7948 77.0173C78.4409 74.214 77.3682 73.0137 76.3514 72.5253C75.2871 72.0141 74.0666 72.1744 73.2591 72.5075L72 73.027L76.5391 49.5572L82.0617 47.2789V40.2371L82.6366 40.1106C89.1574 38.6758 92.4625 35.3481 94.0097 31.8389C95.5761 28.2861 95.3779 24.4584 94.7105 22.0353L94.3898 20.871L107.515 23.7589L110.676 12.1342L124.335 2.95745L136.511 8.52171C138.721 7.16694 141.222 5.22604 143.22 3.57772C144.265 2.71555 145.165 1.9394 145.803 1.37899C146.123 1.09886 146.376 0.872825 146.55 0.717132C146.637 0.639291 146.703 0.579047 146.748 0.538433L146.799 0.492492L146.811 0.481042L146.815 0.477652L147.338 0ZM178.385 66.8966C178.412 66.8812 178.438 66.8665 178.462 66.8523C178.552 66.7982 178.703 66.7055 178.814 66.5807C178.847 66.5435 178.898 66.4807 178.94 66.3939C178.981 66.3082 179.035 66.1563 179.01 65.9653C178.949 65.5058 178.552 65.3657 178.461 65.3395C178.338 65.3041 178.227 65.3042 178.175 65.3053C178.11 65.3066 178.046 65.313 177.99 65.3203C177.876 65.3349 177.746 65.3599 177.609 65.3897C176.545 65.6227 174.17 66.3696 172.326 66.978L172.467 67.7249C170.428 68.2282 169.363 67.8416 168.822 67.3279C168.056 66.6006 167.917 65.2575 168.136 64.1005L168.36 62.9161L155.566 66.8138L150.868 59.8356L142.903 62.9023V57.0918L132.674 63.4884L132.591 63.7351C131.38 67.3317 127.99 69.8791 124.061 71.5967C120.153 73.3052 115.864 74.1233 113.123 74.3494L112.764 74.3791L107.856 81.8886L100.181 76.0771L87.6885 82.0324L83.156 76.1985H80.1549C79.6772 73.476 78.4792 71.9292 76.9905 71.2142C75.949 70.714 74.8518 70.6641 73.9214 70.8177L77.8313 50.6015L83.529 48.2509V41.3996C90.1035 39.8024 93.654 36.2784 95.3539 32.4229C96.8514 29.0265 96.8855 25.4373 96.3907 22.8031L108.567 25.4821L111.951 13.0368L124.473 4.6238L136.604 10.1674L136.936 9.97019C139.324 8.55152 142.048 6.43881 144.158 4.69786C145.217 3.82421 146.128 3.03811 146.775 2.47023C146.97 2.29909 147.141 2.1477 147.285 2.01962C147.492 2.22481 147.759 2.48788 148.075 2.79778C148.88 3.58449 150.009 4.67371 151.31 5.88419C153.904 8.2984 157.207 11.2199 159.977 13.1786L160.421 13.4929L164.456 10.3857L176.957 27.8057L182.973 25.6782C182.94 28.365 183.923 30.8895 185.386 33.1829C187.053 35.7965 189.374 38.1627 191.642 40.2039C192.778 41.2268 193.909 42.1748 194.945 43.0347C195.11 43.1718 195.273 43.3066 195.432 43.4388C196.278 44.1402 197.043 44.7736 197.688 45.3436C198.465 46.0295 199.016 46.5786 199.319 47.0018C199.448 47.1829 199.503 47.3019 199.523 47.3671C199.288 47.6772 199.03 48.1598 198.762 48.7222C198.468 49.341 198.133 50.1205 197.77 51.0153C197.044 52.806 196.196 55.088 195.324 57.5316C193.841 61.6855 192.283 66.3254 191.131 69.8536C190.815 69.5324 190.433 69.2559 190.018 69.0198C188.91 68.3893 187.411 67.9447 185.769 67.6274C183.514 67.1914 180.881 66.9761 178.385 66.8966Z" fill="white"/>
<path fill-rule="evenodd" clip-rule="evenodd" d="M93.4917 69.0449L85.0175 59.7507L85.8731 59L95 69.0101L85.8906 80L85 79.2896L93.4917 69.0449Z" fill="white"/>
<path fill-rule="evenodd" clip-rule="evenodd" d="M107.614 64.5207L103.208 52.3383L104.344 52L109 64.8728L99.4829 72.259L101.795 76.5208L100.722 77L98 71.9822L107.614 64.5207Z" fill="white"/>
<path fill-rule="evenodd" clip-rule="evenodd" d="M129.656 54.5746C127.307 50.9158 124.168 47.699 122 45.8631L122.743 45C124.977 46.8924 128.199 50.1919 130.62 53.9652C133.027 57.7145 134.729 62.0655 133.688 66L132.582 65.7118C133.497 62.2546 132.019 58.2576 129.656 54.5746Z" fill="white"/>
<path fill-rule="evenodd" clip-rule="evenodd" d="M107.913 25L109 25.4441L104.373 34.7067L108.938 40.3641L107.975 41L103 34.8351L107.913 25Z" fill="white"/>
<path fill-rule="evenodd" clip-rule="evenodd" d="M145.565 16.5339C143.908 13.423 141.094 10.527 139 8.81499L139.674 8C141.832 9.7648 144.758 12.7642 146.502 16.04C148.242 19.3076 148.886 23.0311 146.102 26L145.327 25.2804C147.645 22.8075 147.226 19.6529 145.565 16.5339Z" fill="white"/>
<path fill-rule="evenodd" clip-rule="evenodd" d="M165.043 16.7594C164.109 14.8961 162.957 13.0868 161.884 11.621L162.739 11C163.841 12.5049 165.026 14.3643 165.99 16.2886C166.952 18.2064 167.711 20.2214 167.934 22.0299C168.156 23.8354 167.851 25.5432 166.536 26.6805C165.242 27.7998 163.111 28.238 160 27.8755L160.123 26.8286C163.132 27.1791 164.887 26.7112 165.842 25.8847C166.777 25.0763 167.085 23.7986 166.883 22.1581C166.682 20.5206 165.981 18.6292 165.043 16.7594Z" fill="white"/>
<path fill-rule="evenodd" clip-rule="evenodd" d="M181.626 36.7404C180.373 32.9305 178.469 28.9271 177 26.557L177.903 26C179.42 28.4471 181.358 32.5276 182.635 36.4103C183.273 38.3517 183.754 40.2653 183.928 41.9137C184.099 43.531 183.991 45.02 183.309 46L182.437 45.396C182.886 44.7502 183.039 43.6009 182.872 42.0249C182.709 40.4801 182.252 38.6453 181.626 36.7404Z" fill="white"/>
<path fill-rule="evenodd" clip-rule="evenodd" d="M154.7 53.8683L148 42.5288L148.996 42L156 53.8538L151.45 62L150.441 61.4936L154.7 53.8683Z" fill="white"/>
<path fill-rule="evenodd" clip-rule="evenodd" d="M173.86 59.6418V52H175V60.1801L168.705 65L168 64.1288L173.86 59.6418Z" fill="white"/>
<path d="M172 73L143 75.5385V84L172 77.6538V73Z" fill="black"/>
<path fill-rule="evenodd" clip-rule="evenodd" d="M174 72V78.1147L143 85V74.7541L174 72ZM144.459 76.0091V83.2599L172.541 77.0227V73.5142L144.459 76.0091Z" fill="white"/>
<path d="M131.621 76L107 87.4865L110.379 93L135 82.4324L131.621 76Z" fill="black"/>
<path fill-rule="evenodd" clip-rule="evenodd" d="M131.079 75L135 82.792L109.985 94L106 87.2134L131.079 75ZM108.054 87.8326L110.581 92.1375L133.013 82.0869L130.422 76.9389L108.054 87.8326Z" fill="white"/>
<path fill-rule="evenodd" clip-rule="evenodd" d="M136.824 101L137.875 101.224L135.298 115.823H145V117H134L136.824 101Z" fill="black"/>
<path fill-rule="evenodd" clip-rule="evenodd" d="M143.803 131.936C142.472 131.74 141.14 131.079 139.879 129.798C137.628 127.515 135.319 127.06 133.343 127.386C131.34 127.717 129.654 128.858 128.727 129.798L128 128.943C129.053 127.874 130.93 126.604 133.184 126.232C135.464 125.855 138.104 126.405 140.605 128.943C141.719 130.073 142.851 130.618 143.946 130.779C145.046 130.942 146.145 130.722 147.192 130.261C149.3 129.332 151.126 127.455 152.155 126L153 126.714C151.897 128.273 149.93 130.313 147.592 131.344C146.416 131.862 145.128 132.132 143.803 131.936Z" fill="black"/>
<path fill-rule="evenodd" clip-rule="evenodd" d="M135 96C135 101.455 131.032 106 126 106C120.968 106 117 101.455 117 96C117 90.5453 120.968 86 126 86C131.032 86 135 90.5453 135 96ZM126 103.308C129.606 103.308 132.529 100.036 132.529 96C132.529 91.9641 129.606 88.6923 126 88.6923C122.394 88.6923 119.471 91.9641 119.471 96C119.471 100.036 122.394 103.308 126 103.308Z" fill="black"/>
<path fill-rule="evenodd" clip-rule="evenodd" d="M161 92C161 96.9706 156.971 101 152 101C147.029 101 143 96.9706 143 92C143 87.0294 147.029 83 152 83C156.971 83 161 87.0294 161 92ZM152 98.5294C155.606 98.5294 158.529 95.6061 158.529 92C158.529 88.3939 155.606 85.4706 152 85.4706C148.394 85.4706 145.471 88.3939 145.471 92C145.471 95.6061 148.394 98.5294 152 98.5294Z" fill="black"/>
<path fill-rule="evenodd" clip-rule="evenodd" d="M101.868 96L120 98.4584L119.603 101.398L102.925 99.137L93.0946 109L91 106.904L101.868 96Z" fill="black"/>
<path fill-rule="evenodd" clip-rule="evenodd" d="M174.856 85L183 93.8468L180.886 96L174.07 88.596L160.008 93.9877L159 91.0795L174.856 85Z" fill="black"/>
<path fill-rule="evenodd" clip-rule="evenodd" d="M145 95.8331L134.547 98L134 95.1669L144.453 93L145 95.8331Z" fill="black"/>
<path d="M112.957 151L137.15 157.537C143.477 162.766 162.738 155.358 171.578 151L186 175.746L165.529 182.749L159.947 214.031L124.123 218V182.749L99 179.481L112.957 151Z" fill="black"/>
<path fill-rule="evenodd" clip-rule="evenodd" d="M171.816 150L187 176.193L166.135 183.369L160.544 214.868L123.444 219V183.459L98 180.131L112.641 150.094L137.515 156.851L137.637 156.953C139.018 158.1 141.192 158.615 143.957 158.588C146.702 158.561 149.908 158.003 153.227 157.136C159.863 155.403 166.826 152.473 171.206 150.302L171.816 150ZM113.421 151.828L100.207 178.938L124.903 182.169V217.359L159.3 213.528L164.85 182.259L184.841 175.383L171.239 151.92C166.779 154.085 160.05 156.872 153.594 158.558C150.216 159.44 146.882 160.029 143.971 160.057C141.149 160.084 138.607 159.586 136.835 158.188L113.421 151.828Z" fill="white"/>
<path fill-rule="evenodd" clip-rule="evenodd" d="M131 96.7186L121.364 99L121 98.2814L130.636 96L131 96.7186Z" fill="black"/>
<path d="M112.569 221.292L110 182L119.333 183.1L118.294 215.584L151.388 209.643C153.494 206.66 163.945 205.371 168.907 205.099L187 228.981L182.305 231.894L171.541 217.564L184.595 236.67L178.412 239L166.388 219.894L175.32 236.67L169.709 239L160.205 222.108L157.8 223.04L164.327 234.457L158.831 236.67L150.7 223.739L145.089 221.292H112.569Z" fill="white"/>
<path fill-rule="evenodd" clip-rule="evenodd" d="M109 181L119.869 182.305L118.835 215.249L150.858 209.389C151.544 208.566 152.666 207.925 153.921 207.41C155.332 206.832 157.04 206.363 158.812 205.986C162.36 205.232 166.258 204.83 168.769 204.69L169.146 204.669L188 230.033L182.577 233.461L185.652 238.047L178.039 240.971L176.243 238.062L169.3 241L159.768 223.735L158.726 224.146L165.262 235.796L158.423 238.603L150.076 225.072L144.792 222.724H111.677L109 181ZM110.551 182.694L113.023 221.227H145.086L151.048 223.876L158.995 236.758L163.173 235.044L156.627 223.374L160.405 221.882L169.922 239.12L174.217 237.303L165.651 220.905L166.888 220.143L178.625 239.15L183.405 237.314L170.857 218.597L172.018 217.713L182.411 231.814L185.876 229.623L168.47 206.208C166.006 206.363 162.388 206.754 159.1 207.453C157.369 207.821 155.751 208.27 154.449 208.804C153.116 209.35 152.234 209.939 151.834 210.516L151.663 210.763L117.339 217.043L118.388 183.635L110.551 182.694Z" fill="black"/>
<path fill-rule="evenodd" clip-rule="evenodd" d="M157.733 94L146 91.8834L146.267 91L158 93.1166L157.733 94Z" fill="black"/>
<path d="M129 99C128.471 100.059 128.118 100.412 127.5 101C126.672 101 126 100.105 126 99C126 97.8954 126.672 97 127.5 97C128.328 97 129 97.8954 129 99Z" fill="black"/>
<path d="M153 94.5C153 95.8807 152.294 97 151.5 97C150.706 95.6765 150 95.3824 150 94.5C150 93.1193 150.672 92 151.5 92C152.328 92 153 93.1193 153 94.5Z" fill="black"/>
<path fill-rule="evenodd" clip-rule="evenodd" d="M152 209.82L147.244 218L146 217.18L150.756 209L152 209.82Z" fill="black"/>
<path d="M106 237.884L115.051 222H140L136.751 236.609L132.225 237.884L132.805 225.942L128.396 244.377H122.362L126.771 227.797L117.372 246L113.078 243.333L120.157 226.522L111.686 239.739L106 237.884Z" fill="white"/>
<path fill-rule="evenodd" clip-rule="evenodd" d="M114.975 221H142L138.36 237.064L132.269 238.749L132.525 233.567L129.727 245.051H121.953L124.962 233.945L118.094 247L112.444 243.556L116.579 233.917L112.273 240.511L105 238.182L114.975 221ZM115.851 222.468L107.214 237.346L111.633 238.761L120.028 225.903L121.356 226.581L114.325 242.971L117.504 244.909L126.794 227.249L128.19 227.772L123.906 243.583H128.539L132.935 225.542L134.418 225.748L133.872 236.78L137.086 235.89L140.128 222.468H115.851Z" fill="black"/>
<path d="M108.25 222H111.25H115L111.25 227H106L108.25 222Z" fill="white"/>
<path fill-rule="evenodd" clip-rule="evenodd" d="M108.26 221H118L112.566 228H105L108.26 221ZM109.246 222.474L107.359 226.526H111.804L114.95 222.474H109.246Z" fill="black"/>
<path fill-rule="evenodd" clip-rule="evenodd" d="M160.587 233L163 234.525L162.752 235.068L160.937 233.921L160.51 236L160 235.855L160.587 233Z" fill="black"/>
<path fill-rule="evenodd" clip-rule="evenodd" d="M171.887 234L175 237.07L174.357 237.465L172.375 235.51L171.806 238L171 237.888L171.887 234Z" fill="black"/>
<path fill-rule="evenodd" clip-rule="evenodd" d="M179.397 233L184 236.043L183.502 236.614L179.891 234.226L178.798 238L178 237.825L179.397 233Z" fill="black"/>
<path fill-rule="evenodd" clip-rule="evenodd" d="M183.605 227L187 229.285L186.701 230.015L184.065 228.241L183.63 231L183 230.837L183.605 227Z" fill="black"/>
<path fill-rule="evenodd" clip-rule="evenodd" d="M119 241V245H118.135V242.089L114.487 243.744L114 243.268L119 241Z" fill="black"/>
<path d="M170.944 208.018L169 183.172L178.176 180L182 216.048L179.813 219L170.944 208.018Z" fill="white"/>
<path fill-rule="evenodd" clip-rule="evenodd" d="M178.937 179L183 216.041L179.967 220L170.062 208.138L168 182.657L178.937 179ZM169.659 183.676L171.592 207.574L179.913 217.539L181.375 215.631L177.58 181.028L169.659 183.676Z" fill="black"/>
<path fill-rule="evenodd" clip-rule="evenodd" d="M112 235V238H111.045V236.034L107.449 237.281L107 236.733L112 235Z" fill="black"/>
<path fill-rule="evenodd" clip-rule="evenodd" d="M126.594 241L128 242.628L127.562 242.986L126.565 241.832L125.413 243L125 242.615L126.594 241Z" fill="black"/>
<path fill-rule="evenodd" clip-rule="evenodd" d="M135.141 234L137 235.894L136.566 236.367L135.352 235.13L134.572 237L134 236.735L135.141 234Z" fill="black"/>
<path fill-rule="evenodd" clip-rule="evenodd" d="M144.5 201.133C152.029 201.133 158.133 195.029 158.133 187.5C158.133 179.971 152.029 173.867 144.5 173.867C136.971 173.867 130.867 179.971 130.867 187.5C130.867 195.029 136.971 201.133 144.5 201.133ZM144.5 203C153.06 203 160 196.06 160 187.5C160 178.94 153.06 172 144.5 172C135.94 172 129 178.94 129 187.5C129 196.06 135.94 203 144.5 203Z" fill="white"/>
<path fill-rule="evenodd" clip-rule="evenodd" d="M145.002 202L143 173.122L144.998 173L147 201.878L145.002 202Z" fill="white"/>
<path fill-rule="evenodd" clip-rule="evenodd" d="M134.727 197.955L144.898 187.11L145.967 188.113L135.797 198.958L134.727 197.955Z" fill="white"/>
<path fill-rule="evenodd" clip-rule="evenodd" d="M157.174 195.831L145.32 187.023L144.445 188.2L156.299 197.008L157.174 195.831Z" fill="white"/>
<g clip-path="url(#clip0)">
<path d="M74.4409 177.874L74.5578 177.939L77.2859 179.474C77.8783 179.806 78.628 179.597 78.9626 179.004C79.2948 178.41 79.0841 177.661 78.4927 177.327L74.4409 177.874ZM74.4409 177.874L74.441 177.873L73.5585 177.377L71.6004 176.276L71.6 176.276C71.0089 175.943 70.7979 175.193 71.1308 174.6C71.4643 174.008 72.2138 173.797 72.8088 174.13L74.4409 177.874ZM86.0888 185.8L85.8807 185.557L85.8806 185.557L85.7961 185.459L84.4214 183.859C83.9786 183.342 84.0378 182.564 84.5529 182.122L86.0888 185.8ZM86.0888 185.8L86.4367 186.205L86.4365 186.205M86.0888 185.8L86.4365 186.205M86.4365 186.205L86.5436 186.33L88.6698 188.808C89.1117 189.323 89.8898 189.383 90.4067 188.94C90.9227 188.497 90.9818 187.719 90.5388 187.204L90.5386 187.203L86.2904 182.255L86.4365 186.205ZM93.0822 197.71L93.0833 197.709L93.3949 198.663L94.3985 201.734C94.6101 202.382 95.306 202.734 95.9509 202.523C96.5986 202.31 96.9507 201.614 96.7397 200.969L94.7112 194.77L94.7111 194.77C94.4996 194.123 93.8049 193.77 93.1574 193.981L93.0822 197.71ZM93.0822 197.71L93.0375 197.573L92.3721 195.535L92.372 195.535C92.1601 194.887 92.5129 194.192 93.1569 193.981L93.0822 197.71ZM78.9522 199.11L78.9499 199.106C75.6796 193.089 70.5958 189.493 66.27 187.393C64.1099 186.344 62.1519 185.675 60.7284 185.267C59.3294 184.866 58.4565 184.721 58.4288 184.717L58.4282 184.717L58.4257 184.716C57.2537 184.534 56.4549 183.436 56.6345 182.266L56.6347 182.265C56.8159 181.091 57.9151 180.296 59.0783 180.471L59.0795 180.472C59.7552 180.574 75.1232 183.071 82.7226 197.053L78.9522 199.11ZM78.9522 199.11C79.3427 199.82 80.0768 200.226 80.8379 200.226C81.1855 200.226 81.5381 200.142 81.8636 199.964M78.9522 199.11L81.8636 199.964M81.8636 199.964C82.903 199.398 83.2921 198.099 82.7236 197.055L81.8636 199.964ZM92.9536 215.886L92.9765 216.79L93.8789 216.858C96.7423 217.071 99 219.458 99 222.373V226.732C99 229.791 96.5196 232.27 93.4615 232.27H17.8326C14.775 232.27 12.2941 229.791 12.2941 226.732V222.373C12.2941 219.315 14.7751 216.835 17.8326 216.835H18.586H21.7107L19.1666 215.02C17.9567 214.158 17.1693 212.758 17.1693 211.171V165.957V164.957H16.1693H14.1136C11.8421 164.957 10 163.115 10 160.843C10 158.571 11.842 156.73 14.1136 156.73H21.9046H25.9675H34.1391C36.7553 156.73 38.8745 158.849 38.8745 161.465V175.994V176.994H39.8745H56.0808V177.099L56.9836 177.187C62.1014 177.687 66.933 179.158 71.2975 181.405L71.9121 181.722L72.2876 181.929C75.7795 183.853 78.9492 186.289 81.7051 189.132L82.176 189.618L82.4758 189.944C84.9846 192.68 87.1112 195.768 88.7846 199.126L89.1505 199.86L89.2799 200.139C91.5089 204.948 92.8114 210.269 92.9536 215.886ZM72.8098 174.131L78.4922 177.327L72.8098 174.131ZM84.5529 182.122C85.0684 181.679 85.8455 181.738 86.2898 182.254L84.5529 182.122ZM20.3756 210.642C21.5617 210.642 22.5226 209.68 22.5226 208.495V170.259C22.5226 169.073 21.5613 168.111 20.3756 168.111C19.1889 168.111 18.2284 169.073 18.2284 170.259V208.495C18.2284 209.68 19.1885 210.642 20.3756 210.642Z" fill="black" stroke="white" stroke-width="2"/>
</g>
<g clip-path="url(#clip1)">
<mask id="path-62-inside-1" fill="white">
<path d="M246.994 221.2C246.941 220.287 245.856 219.574 243.685 219.03C243.758 218.87 243.799 218.704 243.8 218.531V214.8H243.791C243.6 211.692 230.863 211.6 229.4 211.6C227.937 211.6 215.2 211.692 215.009 214.8H215V214.869V218.533C215.003 219.546 216.31 220.339 218.256 220.93C218.229 221.018 218.213 221.108 218.208 221.2H218.2V221.269V224.926C216.104 225.466 215.057 226.169 215.005 227.067H215V227.136V230.799C215.002 231.505 215.638 232.103 216.679 232.602C216.64 232.71 216.615 232.82 216.608 232.933H216.6V233.003V236.666C216.604 238.44 220.598 239.541 225.036 240.055C225.069 240.062 225.099 240.075 225.133 240.075C225.143 240.075 225.152 240.07 225.162 240.069C226.018 240.166 226.887 240.241 227.747 240.295C227.765 240.297 227.781 240.306 227.8 240.306C227.81 240.306 227.818 240.3 227.828 240.3C228.92 240.366 229.995 240.4 231 240.4C232.005 240.4 233.08 240.366 234.172 240.3C234.182 240.3 234.19 240.306 234.2 240.306C234.219 240.306 234.235 240.297 234.253 240.295C235.113 240.241 235.982 240.166 236.838 240.069C236.848 240.069 236.857 240.075 236.867 240.075C236.901 240.075 236.931 240.061 236.964 240.055C241.402 239.541 245.395 238.439 245.4 236.665V232.933H245.391C245.354 232.279 244.797 231.734 243.696 231.278C243.763 231.124 243.8 230.964 243.8 230.798V227.312C245.715 226.723 246.997 225.935 247 224.931V221.2H246.994ZM218.733 219.959V217.383C219.231 217.517 219.767 217.64 220.333 217.751V220.355C220.268 220.341 220.2 220.327 220.136 220.313C219.852 220.251 219.575 220.186 219.311 220.117C219.109 220.065 218.918 220.012 218.733 219.959ZM242.611 218.79L242.596 218.787L242.402 218.938C242.121 219.157 241.688 219.379 241.133 219.594V217.057C241.767 216.836 242.307 216.591 242.733 216.323V218.53C242.733 218.611 242.691 218.698 242.611 218.79ZM228.427 230.791C228.573 230.794 228.72 230.796 228.867 230.797V233.463C228.763 233.462 228.66 233.462 228.557 233.46C228.51 233.46 228.465 233.458 228.418 233.458C228.174 233.453 227.931 233.447 227.689 233.44C227.659 233.439 227.629 233.438 227.599 233.437C227.309 233.427 227.02 233.415 226.734 233.401V230.739C227.268 230.764 227.805 230.78 228.342 230.79C228.37 230.79 228.398 230.79 228.427 230.791ZM230.458 230.789C230.995 230.779 231.532 230.763 232.067 230.738V233.401C231.953 233.407 231.838 233.412 231.722 233.417C231.402 233.43 231.077 233.442 230.747 233.45C230.669 233.452 230.591 233.453 230.513 233.454C230.322 233.458 230.127 233.459 229.934 233.461V230.797C230.081 230.795 230.227 230.793 230.374 230.79C230.402 230.79 230.43 230.79 230.458 230.789ZM233.489 233.311C233.371 233.32 233.253 233.329 233.133 233.338V230.678C233.674 230.642 234.209 230.599 234.733 230.548V233.197C234.404 233.231 234.067 233.264 233.721 233.292C233.643 233.299 233.566 233.305 233.489 233.311ZM235.8 230.433C236.35 230.367 236.884 230.292 237.4 230.208V232.827C236.898 232.915 236.364 232.997 235.8 233.071V230.433ZM224.343 233.226C224.289 233.22 224.235 233.214 224.181 233.209C224.143 233.205 224.105 233.201 224.067 233.197V230.549C224.591 230.599 225.126 230.643 225.667 230.678V233.336C225.219 233.304 224.776 233.268 224.343 233.226ZM223 230.433V233.071C222.436 232.997 221.902 232.915 221.4 232.827V230.208C221.916 230.292 222.45 230.367 223 230.433ZM238.467 232.621V230.018C239.033 229.906 239.569 229.783 240.067 229.649V232.226C239.591 232.363 239.057 232.495 238.467 232.621ZM228.427 218.524C228.573 218.527 228.72 218.529 228.867 218.531V221.194C228.149 221.187 227.435 221.168 226.733 221.133V218.472C227.268 218.497 227.805 218.514 228.342 218.523C228.37 218.523 228.398 218.524 228.427 218.524ZM230.458 218.523C230.995 218.513 231.532 218.496 232.067 218.471V221.132C231.976 221.137 231.889 221.143 231.798 221.147C231.79 221.148 231.783 221.148 231.775 221.148C231.417 221.164 231.052 221.176 230.683 221.185C230.625 221.186 230.567 221.187 230.51 221.188C230.32 221.192 230.126 221.193 229.933 221.195V218.531C230.08 218.529 230.227 218.527 230.373 218.524C230.402 218.524 230.43 218.523 230.458 218.523ZM233.658 224.923C234.195 224.913 234.732 224.896 235.267 224.871V227.532C234.566 227.566 233.853 227.586 233.133 227.593V224.931C233.28 224.929 233.427 224.927 233.573 224.924C233.602 224.924 233.63 224.923 233.658 224.923ZM228.518 227.445C228.177 227.418 227.844 227.389 227.518 227.356C227.449 227.349 227.379 227.342 227.309 227.335C227.295 227.333 227.281 227.331 227.267 227.33V224.682C227.791 224.732 228.326 224.775 228.867 224.811V227.469C228.823 227.466 228.778 227.464 228.734 227.461C228.662 227.455 228.59 227.45 228.518 227.445ZM225.211 227.062C224.999 227.029 224.801 226.993 224.6 226.957V224.342C225.116 224.426 225.65 224.501 226.2 224.567V227.205C225.874 227.162 225.554 227.117 225.247 227.069C225.235 227.066 225.223 227.064 225.211 227.062ZM231.627 224.924C231.773 224.927 231.92 224.929 232.067 224.931V227.594C231.807 227.591 231.545 227.59 231.292 227.584C231.253 227.583 231.212 227.582 231.173 227.582C230.772 227.572 230.38 227.556 229.995 227.538C229.974 227.537 229.954 227.535 229.933 227.535V224.872C230.468 224.897 231.005 224.914 231.542 224.923C231.57 224.923 231.598 224.924 231.627 224.924ZM236.996 227.419C236.977 227.421 236.958 227.422 236.939 227.424C236.74 227.441 236.534 227.451 236.333 227.466V224.811C236.874 224.775 237.408 224.732 237.933 224.681V227.327C237.623 227.36 237.314 227.393 236.996 227.419ZM224.067 220.928V218.282C224.591 218.332 225.126 218.375 225.667 218.411V221.066C225.124 221.027 224.588 220.983 224.067 220.928ZM234.733 220.927C234.218 220.981 233.685 221.029 233.133 221.068V218.411C233.674 218.375 234.209 218.333 234.733 218.282V220.927ZM235.8 218.166C236.35 218.1 236.884 218.025 237.4 217.941V220.556C236.894 220.645 236.362 220.727 235.8 220.801V218.166ZM238.467 220.35V217.751C239.033 217.64 239.569 217.517 240.067 217.383V219.954C239.589 220.093 239.051 220.226 238.467 220.35ZM223 218.166V220.802C222.894 220.788 222.785 220.777 222.68 220.762C222.612 220.753 222.547 220.742 222.479 220.733C222.171 220.689 221.87 220.641 221.574 220.591C221.515 220.581 221.458 220.571 221.4 220.561V217.942C221.916 218.025 222.45 218.101 223 218.166ZM223.533 224.151V226.75C222.944 226.623 222.41 226.489 221.933 226.349V223.782C222.431 223.917 222.967 224.04 223.533 224.151ZM240.55 226.969C240.316 227.01 240.08 227.05 239.837 227.086C239.698 227.108 239.556 227.128 239.413 227.148C239.278 227.167 239.138 227.184 239.001 227.202V224.566C239.55 224.5 240.084 224.425 240.601 224.341V226.96C240.583 226.963 240.567 226.966 240.55 226.969ZM220.867 223.457V225.99C220.028 225.667 219.487 225.336 219.311 225.042L219.276 224.982C219.273 224.965 219.267 224.948 219.267 224.931V222.723C219.693 222.991 220.233 223.236 220.867 223.457ZM220.333 230.018V232.621C219.844 232.517 219.392 232.407 218.981 232.295C218.916 232.277 218.849 232.26 218.785 232.241C218.767 232.236 218.751 232.231 218.733 232.226V229.65C219.231 229.783 219.767 229.907 220.333 230.018ZM221.933 235.884V238.487C221.343 238.362 220.809 238.229 220.333 238.092V235.516C220.831 235.65 221.367 235.773 221.933 235.884ZM223 236.075C223.516 236.159 224.05 236.234 224.6 236.3V238.938C224.036 238.864 223.502 238.782 223 238.694V236.075ZM225.667 236.415C226.191 236.466 226.726 236.509 227.267 236.545V239.204C226.713 239.165 226.179 239.118 225.667 239.064V236.415ZM228.333 236.605C228.868 236.63 229.405 236.646 229.942 236.656C229.97 236.657 229.998 236.657 230.026 236.658C230.173 236.66 230.319 236.662 230.466 236.664V239.33C229.729 239.323 229.018 239.302 228.333 239.268V236.605H228.333ZM231.533 236.663C231.68 236.662 231.827 236.66 231.973 236.657C232.002 236.657 232.03 236.656 232.058 236.655C232.595 236.645 233.132 236.629 233.667 236.604V239.267C232.982 239.301 232.27 239.322 231.533 239.329V236.663ZM234.733 236.545C235.274 236.509 235.809 236.466 236.333 236.415V239.063C235.821 239.117 235.287 239.165 234.733 239.204V236.545ZM237.4 236.3C237.95 236.234 238.484 236.158 239 236.075V238.693C238.498 238.782 237.964 238.863 237.4 238.938V236.3ZM240.067 235.884C240.633 235.773 241.169 235.65 241.667 235.516V238.092C241.191 238.229 240.657 238.362 240.067 238.487V235.884ZM242.676 230.971L242.494 231.131C242.214 231.378 241.747 231.627 241.133 231.867V229.324C241.767 229.103 242.307 228.858 242.733 228.59V230.797C242.733 230.852 242.713 230.91 242.676 230.971ZM243.034 226.425C242.769 226.499 242.487 226.568 242.201 226.636C242.068 226.667 241.932 226.698 241.794 226.727C241.753 226.737 241.709 226.745 241.667 226.754V224.151C242.234 224.04 242.769 223.917 243.267 223.783V226.359C243.19 226.381 243.113 226.403 243.034 226.425ZM216.067 218.531V216.323C216.493 216.591 217.033 216.836 217.667 217.057V219.61C216.629 219.221 216.068 218.831 216.067 218.531ZM216.067 230.798V228.589C216.493 228.858 217.033 229.102 217.667 229.323V231.867L217.362 231.748L217.356 231.755C216.518 231.407 216.068 231.067 216.067 230.798ZM217.667 236.665V234.456C218.093 234.724 218.633 234.969 219.267 235.19V237.743C218.229 237.355 217.668 236.965 217.667 236.665ZM242.733 237.743V235.19C243.367 234.97 243.907 234.725 244.333 234.457V236.663C244.333 236.964 243.771 237.354 242.733 237.743ZM244.333 226.01V223.457C244.967 223.236 245.507 222.991 245.933 222.723V224.93C245.933 225.23 245.371 225.621 244.333 226.01Z"/>
</mask>
<path d="M246.994 221.2C246.941 220.287 245.856 219.574 243.685 219.03C243.758 218.87 243.799 218.704 243.8 218.531V214.8H243.791C243.6 211.692 230.863 211.6 229.4 211.6C227.937 211.6 215.2 211.692 215.009 214.8H215V214.869V218.533C215.003 219.546 216.31 220.339 218.256 220.93C218.229 221.018 218.213 221.108 218.208 221.2H218.2V221.269V224.926C216.104 225.466 215.057 226.169 215.005 227.067H215V227.136V230.799C215.002 231.505 215.638 232.103 216.679 232.602C216.64 232.71 216.615 232.82 216.608 232.933H216.6V233.003V236.666C216.604 238.44 220.598 239.541 225.036 240.055C225.069 240.062 225.099 240.075 225.133 240.075C225.143 240.075 225.152 240.07 225.162 240.069C226.018 240.166 226.887 240.241 227.747 240.295C227.765 240.297 227.781 240.306 227.8 240.306C227.81 240.306 227.818 240.3 227.828 240.3C228.92 240.366 229.995 240.4 231 240.4C232.005 240.4 233.08 240.366 234.172 240.3C234.182 240.3 234.19 240.306 234.2 240.306C234.219 240.306 234.235 240.297 234.253 240.295C235.113 240.241 235.982 240.166 236.838 240.069C236.848 240.069 236.857 240.075 236.867 240.075C236.901 240.075 236.931 240.061 236.964 240.055C241.402 239.541 245.395 238.439 245.4 236.665V232.933H245.391C245.354 232.279 244.797 231.734 243.696 231.278C243.763 231.124 243.8 230.964 243.8 230.798V227.312C245.715 226.723 246.997 225.935 247 224.931V221.2H246.994ZM218.733 219.959V217.383C219.231 217.517 219.767 217.64 220.333 217.751V220.355C220.268 220.341 220.2 220.327 220.136 220.313C219.852 220.251 219.575 220.186 219.311 220.117C219.109 220.065 218.918 220.012 218.733 219.959ZM242.611 218.79L242.596 218.787L242.402 218.938C242.121 219.157 241.688 219.379 241.133 219.594V217.057C241.767 216.836 242.307 216.591 242.733 216.323V218.53C242.733 218.611 242.691 218.698 242.611 218.79ZM228.427 230.791C228.573 230.794 228.72 230.796 228.867 230.797V233.463C228.763 233.462 228.66 233.462 228.557 233.46C228.51 233.46 228.465 233.458 228.418 233.458C228.174 233.453 227.931 233.447 227.689 233.44C227.659 233.439 227.629 233.438 227.599 233.437C227.309 233.427 227.02 233.415 226.734 233.401V230.739C227.268 230.764 227.805 230.78 228.342 230.79C228.37 230.79 228.398 230.79 228.427 230.791ZM230.458 230.789C230.995 230.779 231.532 230.763 232.067 230.738V233.401C231.953 233.407 231.838 233.412 231.722 233.417C231.402 233.43 231.077 233.442 230.747 233.45C230.669 233.452 230.591 233.453 230.513 233.454C230.322 233.458 230.127 233.459 229.934 233.461V230.797C230.081 230.795 230.227 230.793 230.374 230.79C230.402 230.79 230.43 230.79 230.458 230.789ZM233.489 233.311C233.371 233.32 233.253 233.329 233.133 233.338V230.678C233.674 230.642 234.209 230.599 234.733 230.548V233.197C234.404 233.231 234.067 233.264 233.721 233.292C233.643 233.299 233.566 233.305 233.489 233.311ZM235.8 230.433C236.35 230.367 236.884 230.292 237.4 230.208V232.827C236.898 232.915 236.364 232.997 235.8 233.071V230.433ZM224.343 233.226C224.289 233.22 224.235 233.214 224.181 233.209C224.143 233.205 224.105 233.201 224.067 233.197V230.549C224.591 230.599 225.126 230.643 225.667 230.678V233.336C225.219 233.304 224.776 233.268 224.343 233.226ZM223 230.433V233.071C222.436 232.997 221.902 232.915 221.4 232.827V230.208C221.916 230.292 222.45 230.367 223 230.433ZM238.467 232.621V230.018C239.033 229.906 239.569 229.783 240.067 229.649V232.226C239.591 232.363 239.057 232.495 238.467 232.621ZM228.427 218.524C228.573 218.527 228.72 218.529 228.867 218.531V221.194C228.149 221.187 227.435 221.168 226.733 221.133V218.472C227.268 218.497 227.805 218.514 228.342 218.523C228.37 218.523 228.398 218.524 228.427 218.524ZM230.458 218.523C230.995 218.513 231.532 218.496 232.067 218.471V221.132C231.976 221.137 231.889 221.143 231.798 221.147C231.79 221.148 231.783 221.148 231.775 221.148C231.417 221.164 231.052 221.176 230.683 221.185C230.625 221.186 230.567 221.187 230.51 221.188C230.32 221.192 230.126 221.193 229.933 221.195V218.531C230.08 218.529 230.227 218.527 230.373 218.524C230.402 218.524 230.43 218.523 230.458 218.523ZM233.658 224.923C234.195 224.913 234.732 224.896 235.267 224.871V227.532C234.566 227.566 233.853 227.586 233.133 227.593V224.931C233.28 224.929 233.427 224.927 233.573 224.924C233.602 224.924 233.63 224.923 233.658 224.923ZM228.518 227.445C228.177 227.418 227.844 227.389 227.518 227.356C227.449 227.349 227.379 227.342 227.309 227.335C227.295 227.333 227.281 227.331 227.267 227.33V224.682C227.791 224.732 228.326 224.775 228.867 224.811V227.469C228.823 227.466 228.778 227.464 228.734 227.461C228.662 227.455 228.59 227.45 228.518 227.445ZM225.211 227.062C224.999 227.029 224.801 226.993 224.6 226.957V224.342C225.116 224.426 225.65 224.501 226.2 224.567V227.205C225.874 227.162 225.554 227.117 225.247 227.069C225.235 227.066 225.223 227.064 225.211 227.062ZM231.627 224.924C231.773 224.927 231.92 224.929 232.067 224.931V227.594C231.807 227.591 231.545 227.59 231.292 227.584C231.253 227.583 231.212 227.582 231.173 227.582C230.772 227.572 230.38 227.556 229.995 227.538C229.974 227.537 229.954 227.535 229.933 227.535V224.872C230.468 224.897 231.005 224.914 231.542 224.923C231.57 224.923 231.598 224.924 231.627 224.924ZM236.996 227.419C236.977 227.421 236.958 227.422 236.939 227.424C236.74 227.441 236.534 227.451 236.333 227.466V224.811C236.874 224.775 237.408 224.732 237.933 224.681V227.327C237.623 227.36 237.314 227.393 236.996 227.419ZM224.067 220.928V218.282C224.591 218.332 225.126 218.375 225.667 218.411V221.066C225.124 221.027 224.588 220.983 224.067 220.928ZM234.733 220.927C234.218 220.981 233.685 221.029 233.133 221.068V218.411C233.674 218.375 234.209 218.333 234.733 218.282V220.927ZM235.8 218.166C236.35 218.1 236.884 218.025 237.4 217.941V220.556C236.894 220.645 236.362 220.727 235.8 220.801V218.166ZM238.467 220.35V217.751C239.033 217.64 239.569 217.517 240.067 217.383V219.954C239.589 220.093 239.051 220.226 238.467 220.35ZM223 218.166V220.802C222.894 220.788 222.785 220.777 222.68 220.762C222.612 220.753 222.547 220.742 222.479 220.733C222.171 220.689 221.87 220.641 221.574 220.591C221.515 220.581 221.458 220.571 221.4 220.561V217.942C221.916 218.025 222.45 218.101 223 218.166ZM223.533 224.151V226.75C222.944 226.623 222.41 226.489 221.933 226.349V223.782C222.431 223.917 222.967 224.04 223.533 224.151ZM240.55 226.969C240.316 227.01 240.08 227.05 239.837 227.086C239.698 227.108 239.556 227.128 239.413 227.148C239.278 227.167 239.138 227.184 239.001 227.202V224.566C239.55 224.5 240.084 224.425 240.601 224.341V226.96C240.583 226.963 240.567 226.966 240.55 226.969ZM220.867 223.457V225.99C220.028 225.667 219.487 225.336 219.311 225.042L219.276 224.982C219.273 224.965 219.267 224.948 219.267 224.931V222.723C219.693 222.991 220.233 223.236 220.867 223.457ZM220.333 230.018V232.621C219.844 232.517 219.392 232.407 218.981 232.295C218.916 232.277 218.849 232.26 218.785 232.241C218.767 232.236 218.751 232.231 218.733 232.226V229.65C219.231 229.783 219.767 229.907 220.333 230.018ZM221.933 235.884V238.487C221.343 238.362 220.809 238.229 220.333 238.092V235.516C220.831 235.65 221.367 235.773 221.933 235.884ZM223 236.075C223.516 236.159 224.05 236.234 224.6 236.3V238.938C224.036 238.864 223.502 238.782 223 238.694V236.075ZM225.667 236.415C226.191 236.466 226.726 236.509 227.267 236.545V239.204C226.713 239.165 226.179 239.118 225.667 239.064V236.415ZM228.333 236.605C228.868 236.63 229.405 236.646 229.942 236.656C229.97 236.657 229.998 236.657 230.026 236.658C230.173 236.66 230.319 236.662 230.466 236.664V239.33C229.729 239.323 229.018 239.302 228.333 239.268V236.605H228.333ZM231.533 236.663C231.68 236.662 231.827 236.66 231.973 236.657C232.002 236.657 232.03 236.656 232.058 236.655C232.595 236.645 233.132 236.629 233.667 236.604V239.267C232.982 239.301 232.27 239.322 231.533 239.329V236.663ZM234.733 236.545C235.274 236.509 235.809 236.466 236.333 236.415V239.063C235.821 239.117 235.287 239.165 234.733 239.204V236.545ZM237.4 236.3C237.95 236.234 238.484 236.158 239 236.075V238.693C238.498 238.782 237.964 238.863 237.4 238.938V236.3ZM240.067 235.884C240.633 235.773 241.169 235.65 241.667 235.516V238.092C241.191 238.229 240.657 238.362 240.067 238.487V235.884ZM242.676 230.971L242.494 231.131C242.214 231.378 241.747 231.627 241.133 231.867V229.324C241.767 229.103 242.307 228.858 242.733 228.59V230.797C242.733 230.852 242.713 230.91 242.676 230.971ZM243.034 226.425C242.769 226.499 242.487 226.568 242.201 226.636C242.068 226.667 241.932 226.698 241.794 226.727C241.753 226.737 241.709 226.745 241.667 226.754V224.151C242.234 224.04 242.769 223.917 243.267 223.783V226.359C243.19 226.381 243.113 226.403 243.034 226.425ZM216.067 218.531V216.323C216.493 216.591 217.033 216.836 217.667 217.057V219.61C216.629 219.221 216.068 218.831 216.067 218.531ZM216.067 230.798V228.589C216.493 228.858 217.033 229.102 217.667 229.323V231.867L217.362 231.748L217.356 231.755C216.518 231.407 216.068 231.067 216.067 230.798ZM217.667 236.665V234.456C218.093 234.724 218.633 234.969 219.267 235.19V237.743C218.229 237.355 217.668 236.965 217.667 236.665ZM242.733 237.743V235.19C243.367 234.97 243.907 234.725 244.333 234.457V236.663C244.333 236.964 243.771 237.354 242.733 237.743ZM244.333 226.01V223.457C244.967 223.236 245.507 222.991 245.933 222.723V224.93C245.933 225.23 245.371 225.621 244.333 226.01Z" fill="white" stroke="black" stroke-width="2" mask="url(#path-62-inside-1)"/>
</g>
<g clip-path="url(#clip2)">
<mask id="path-63-inside-2" fill="white">
<path d="M8.8732 39.0387C8.87896 39.0063 8.87725 38.9748 8.8754 38.9412C8.87454 38.9254 8.87359 38.9084 8.87336 38.8891C8.8729 38.8604 8.85605 38.8342 8.8287 38.8193C8.80185 38.8054 8.77004 38.8072 8.7469 38.8241C8.60403 38.928 8.52777 39.0515 8.45609 39.1796C8.32187 39.4194 8.32973 39.6833 8.47867 39.9431C8.59668 40.1488 8.77562 40.2903 8.95129 40.4125L8.99652 40.4438C9.0793 40.5014 9.16213 40.5586 9.23749 40.6171C9.23908 40.619 9.24123 40.6229 9.24307 40.6267C9.19033 40.7203 9.21587 40.8145 9.31921 40.9068C9.40979 40.988 9.50367 41.0658 9.59855 41.1424C9.94617 41.4226 10.1571 41.7572 10.2435 42.1658C10.3053 42.4592 10.3041 42.7602 10.3031 43.0514C10.3028 43.1148 10.3027 43.1783 10.303 43.2417C10.3058 43.7261 10.3092 44.2106 10.3145 44.6951C10.317 44.9194 10.4037 45.1212 10.5652 45.2789C10.6846 45.3955 10.8104 45.5084 10.932 45.6175C10.977 45.6579 11.022 45.6983 11.0671 45.7391C10.8906 45.8015 10.714 45.8636 10.5376 45.9258C10.1051 46.0781 9.67249 46.2303 9.24257 46.3883C8.19459 46.7738 7.18657 47.197 6.24621 47.6465C5.13996 48.1753 4.27139 48.6763 3.51258 49.2232C3.10988 49.5135 2.81034 49.7827 2.56962 50.0702C2.23712 50.4674 1.99439 50.9505 1.84844 51.5061C1.77381 51.79 1.77372 52.0421 1.84849 52.2766C1.99024 52.7219 2.30965 53.0359 2.79909 53.2088C3.24742 53.3676 3.70243 53.429 4.16785 53.4828C5.36317 53.6211 6.41575 53.6867 7.3856 53.683C7.67407 53.6819 7.96606 53.6708 8.24835 53.6604L8.2915 53.6586C8.35502 53.6586 8.41866 53.6582 8.48222 53.6576C8.55418 53.6568 8.62711 53.6558 8.70051 53.6543L8.7008 53.6873C8.70128 53.7161 8.71763 53.7431 8.74499 53.7571C8.84623 53.8104 8.94819 53.8167 9.04708 53.8209C8.97075 53.8367 8.88735 53.8576 8.80836 53.9104C8.785 53.9262 8.77338 53.9537 8.7786 53.9822C8.78377 54.0107 8.80497 54.0344 8.83283 54.0444C8.87528 54.0593 8.91526 54.0664 8.95309 54.0687C8.92157 54.0839 8.891 54.103 8.86244 54.1278C8.8418 54.1457 8.83372 54.1736 8.84127 54.2008C8.84877 54.228 8.8711 54.2497 8.89855 54.2578C8.94075 54.2698 8.98097 54.2742 9.01941 54.2741C9.01117 54.2769 9.00311 54.2797 8.99502 54.2825L8.93717 54.3024C8.8979 54.3156 8.87876 54.3579 8.89441 54.3973L8.90663 54.4286C8.91676 54.4551 8.94041 54.475 8.96879 54.4804C9.01314 54.4889 9.05531 54.4901 9.09583 54.4869C9.06582 54.5033 9.03702 54.5236 9.01039 54.5495C8.99172 54.5677 8.98476 54.5948 8.99219 54.6207C8.9996 54.6469 9.0204 54.6677 9.04678 54.6762C9.07634 54.6856 9.1174 54.6966 9.16078 54.6947C9.13384 54.7151 9.10851 54.7385 9.0853 54.7668C9.06756 54.7884 9.06445 54.8185 9.07749 54.8449C9.09019 54.8714 9.11678 54.8892 9.14592 54.8915C9.17779 54.8939 9.20813 54.8926 9.237 54.8887C9.23618 54.8894 9.23521 54.8902 9.23461 54.8908L9.20199 54.9193C9.17527 54.9419 9.16947 54.9805 9.18811 55.0122L9.20285 55.037C9.22089 55.0673 9.25688 55.0833 9.29079 55.076C9.29365 55.0754 9.29632 55.0751 9.29919 55.0744C9.29748 55.0765 9.29585 55.0786 9.29404 55.0808C9.27614 55.1036 9.2743 55.1356 9.28951 55.1623C9.30459 55.189 9.33406 55.2054 9.36449 55.2043C9.43923 55.2016 9.5033 55.1803 9.56079 55.152C9.51805 55.1887 9.47958 55.2319 9.45162 55.2887C9.43917 55.3138 9.44294 55.3445 9.4614 55.3679C9.47973 55.3914 9.50944 55.4035 9.5382 55.3994C9.66837 55.3805 9.75999 55.3116 9.84849 55.2451C9.87077 55.2284 9.89288 55.2116 9.91586 55.1959L9.91733 55.1974L9.91358 55.2012C9.87389 55.2399 9.83601 55.2769 9.80031 55.3156C9.76545 55.3536 9.73279 55.3934 9.70013 55.4332L9.65869 55.4835C9.63357 55.5135 9.63807 55.5589 9.66903 55.5871L9.69605 55.6117C9.71909 55.6325 9.75146 55.6391 9.77915 55.6286C9.805 55.6188 9.8289 55.6069 9.85126 55.5937C9.84165 55.6122 9.83552 55.6308 9.82996 55.6477L9.82206 55.6704C9.80913 55.7035 9.84474 55.756 9.87679 55.7769C9.87722 55.7772 9.87757 55.7774 9.878 55.7777C9.89675 55.7894 9.91895 55.7934 9.93947 55.7886C9.93757 55.7932 9.93578 55.7977 9.93399 55.8025C9.92437 55.8278 9.92995 55.8569 9.94873 55.8787C9.96716 55.9009 9.99623 55.9116 10.0239 55.9071C10.0417 55.9043 10.0584 55.9004 10.0738 55.8953L10.0705 55.9019C10.0523 55.9366 10.096 56.0033 10.1283 56.019C10.1505 56.0327 10.1773 56.0351 10.2001 56.0259C10.2005 56.0499 10.2125 56.074 10.2345 56.0896L10.2693 56.1145C10.2964 56.1333 10.3283 56.1351 10.3544 56.1207C10.4578 56.0629 10.5168 55.973 10.5739 55.8863C10.5929 55.8573 10.6112 55.8294 10.6309 55.8034L10.6416 55.8104L10.6389 55.8145C10.6069 55.8625 10.5761 55.9089 10.547 55.9567C10.4733 56.0776 10.4352 56.1515 10.5064 56.2585C10.521 56.2806 10.5458 56.2947 10.5724 56.2957C10.5912 56.2965 10.6091 56.2905 10.6226 56.2794C10.6224 56.2849 10.6222 56.2904 10.6221 56.2962C10.6219 56.3237 10.6377 56.3506 10.6616 56.365C10.6862 56.3799 10.7164 56.3812 10.7406 56.3682C10.7522 56.3619 10.7632 56.3551 10.7737 56.3477C10.7731 56.3561 10.7727 56.3645 10.7716 56.3725C10.7669 56.4092 10.8184 56.4547 10.8551 56.4674C10.8867 56.4782 10.9204 56.4688 10.9395 56.4442L10.9412 56.4421C10.9447 56.4654 10.9583 56.4865 10.98 56.4998C11.0035 56.514 11.0322 56.5158 11.0558 56.5045C11.0948 56.4859 11.1243 56.4633 11.1457 56.436C11.1426 56.4643 11.142 56.4938 11.1449 56.5243C11.1476 56.5537 11.1677 56.5796 11.1964 56.5916L11.2328 56.6062C11.2716 56.6217 11.3145 56.6058 11.3303 56.5699L11.4832 56.2218C11.4782 56.249 11.4714 56.2767 11.4645 56.3052C11.44 56.406 11.4121 56.5203 11.4617 56.6471C11.4733 56.677 11.502 56.6978 11.534 56.6995C11.566 56.7014 11.5948 56.684 11.6063 56.6555C11.6353 56.5843 11.6565 56.5118 11.6751 56.4399C11.6592 56.5301 11.6537 56.6292 11.7069 56.7357C11.7213 56.7638 11.751 56.7821 11.7826 56.7815C11.7995 56.7811 11.8151 56.7755 11.8274 56.7659C11.8312 56.7731 11.836 56.78 11.8419 56.7862C11.8591 56.8036 11.8831 56.8129 11.907 56.8113L11.962 56.8077C11.9941 56.8057 12.0203 56.7843 12.0278 56.7541L12.0343 56.7291C12.0427 56.755 12.0545 56.7812 12.0707 56.8077C12.0848 56.8313 12.1101 56.8463 12.1373 56.8477C12.1646 56.8491 12.1896 56.8366 12.2034 56.8146C12.2243 56.7815 12.2377 56.7481 12.246 56.7145C12.2548 56.7395 12.2663 56.7647 12.2815 56.7892C12.2967 56.8136 12.324 56.8288 12.3527 56.8286L12.3863 56.8284C12.4284 56.8282 12.4606 56.795 12.4585 56.754L12.4541 56.6665C12.4686 56.7122 12.4892 56.7573 12.5204 56.8012C12.5378 56.8251 12.5669 56.8387 12.596 56.8359L12.6291 56.8324C12.6704 56.8283 12.6987 56.7928 12.6934 56.7521L12.6847 56.6879C12.6959 56.7165 12.71 56.7449 12.7282 56.7725C12.7455 56.7986 12.7768 56.8133 12.8076 56.8095L12.8498 56.8043C12.8899 56.7994 12.9173 56.765 12.9126 56.7253L12.9057 56.6659C12.9192 56.6896 12.936 56.7127 12.9569 56.7347C12.9756 56.7547 13.003 56.764 13.0291 56.76L13.0613 56.7549C13.101 56.7486 13.1271 56.7131 13.121 56.6736L13.0875 56.4612C13.0876 56.4613 13.0877 56.4615 13.0879 56.4618C13.1296 56.5497 13.177 56.6492 13.2735 56.7202C13.2989 56.7395 13.3294 56.7416 13.3552 56.7294L13.3867 56.7143C13.3874 56.7163 13.3881 56.7184 13.389 56.7202C13.4895 56.9834 13.5936 57.2554 13.7038 57.5209C14.1668 58.6366 14.7335 59.7548 15.4363 60.939C15.6401 61.2823 15.8848 61.6764 16.2133 62.0082C16.295 62.0906 16.3835 62.1633 16.4766 62.2242C16.9123 62.5093 17.4369 62.5282 17.8798 62.2749C18.286 62.0427 18.5792 61.7018 18.7892 61.4308C19.2435 60.8445 19.4295 60.1488 19.5516 59.5458C19.7102 58.7628 19.807 57.9457 19.8391 57.117C19.8632 56.4962 19.8869 55.7633 19.8824 55.0335C19.8757 53.9766 19.8159 52.8293 19.6993 51.526C19.695 51.478 19.6916 51.43 19.6883 51.3798C19.7409 51.4034 19.7933 51.4276 19.8458 51.4517C19.9919 51.5189 20.1429 51.5883 20.2956 51.6487C20.421 51.698 20.5863 51.7482 20.7519 51.6952C20.893 51.65 21.0588 51.5951 21.2179 51.5305C21.3766 51.4663 21.5339 51.3992 21.6913 51.3323C21.8279 51.2741 21.9647 51.2158 22.1022 51.1594C22.1908 51.1231 22.2792 51.086 22.3675 51.049C22.624 50.9413 22.8891 50.8301 23.1564 50.7403C23.5628 50.604 23.9874 50.6413 24.4188 50.8512L24.5354 50.9091C24.6343 50.9585 24.7367 51.0098 24.8412 51.0534C24.8986 51.0775 25.0302 51.0873 25.0771 51.02C25.0908 51.0002 25.0989 50.9973 25.0989 50.9973C25.109 50.9966 25.1432 51.0167 25.1594 51.0262C25.2067 51.0542 25.2535 51.083 25.3005 51.1117C25.4047 51.1754 25.5127 51.2413 25.6238 51.2992C25.9175 51.4523 26.1817 51.4788 26.4316 51.3805C26.7123 51.2699 26.8405 51.0324 26.9375 50.7923C26.9486 50.7646 26.9416 50.7401 26.9369 50.7239L26.9327 50.7077C26.9278 50.6835 26.9114 50.6611 26.888 50.6512C26.865 50.6399 26.8385 50.6399 26.8169 50.6512L26.7674 50.6763C26.733 50.6933 26.7013 50.7094 26.671 50.7275C26.3238 50.9376 25.9784 50.9743 25.615 50.8399C25.4081 50.7634 25.2026 50.6828 24.9971 50.6023C24.8326 50.5378 24.668 50.4732 24.5027 50.4109C24.223 50.305 23.9539 50.273 23.7027 50.3154L23.5366 50.343C23.3221 50.3779 23.1001 50.4144 22.8868 50.4699C22.3125 50.6201 21.6956 50.7853 21.074 50.9775C20.7775 51.0693 20.5144 51.0394 20.2465 50.8832C20.2067 50.8599 20.1675 50.8354 20.1282 50.8109C19.9739 50.7143 19.8149 50.6149 19.619 50.5896L19.5559 49.9416C19.5474 49.8075 19.5385 49.6736 19.529 49.5394C19.5228 49.4535 19.5115 49.379 19.4958 49.3235L19.482 49.1816L19.5955 49.2558C19.6288 49.2776 19.6723 49.2728 19.6966 49.2446L19.7137 49.2248C19.739 49.1956 19.7356 49.1509 19.7061 49.1223L19.6329 49.0509C19.5806 48.9997 19.5282 48.9486 19.4749 48.8984C19.4529 48.8776 19.4414 48.8478 19.4412 48.8233L19.7821 49.0464C19.8158 49.0685 19.8737 49.0466 19.8979 49.0177C19.9212 48.9898 19.9192 48.9482 19.893 48.9196L19.8779 48.9023C19.863 48.8849 19.8477 48.8677 19.8303 48.8528C19.7495 48.7831 19.6679 48.7144 19.5838 48.6452C19.5626 48.6276 19.5405 48.6096 19.531 48.6041C19.5338 48.5968 19.5367 48.5895 19.5399 48.5821C19.5782 48.6021 19.616 48.6235 19.654 48.645C19.7683 48.7092 19.8865 48.7759 20.0224 48.8092C20.0565 48.8175 20.0906 48.8032 20.1063 48.774L20.1165 48.7546C20.1344 48.7207 20.1217 48.6776 20.0874 48.6552L19.6325 48.3575L19.6479 48.3184L20.101 48.4907C20.1402 48.5055 20.1824 48.4888 20.1975 48.4526L20.2142 48.4119C20.2296 48.3752 20.2114 48.3307 20.1736 48.3131L19.7526 48.1053L20.1934 48.2438C20.2335 48.2565 20.2792 48.2233 20.2915 48.1855L20.2996 48.1604C20.3114 48.1235 20.2907 48.0829 20.2533 48.0653L19.7812 47.8601L19.7847 47.8439C19.8163 47.8545 19.8474 47.8658 19.8785 47.877C20.0115 47.9248 20.1491 47.9745 20.3004 47.9772C20.3316 47.9778 20.3589 47.96 20.3697 47.932C20.3806 47.9043 20.3728 47.8717 20.35 47.8496C20.3241 47.8242 20.2953 47.8034 20.2646 47.7873C20.306 47.7781 20.3469 47.7637 20.3873 47.7443L20.6203 47.6331C20.7524 47.5704 20.8844 47.5076 21.0156 47.4432C21.2919 47.3075 21.568 47.1713 21.8443 47.0352C22.3655 46.778 22.8867 46.5209 23.41 46.2673C23.6537 46.1494 23.9486 46.0258 24.2878 46.0047C24.3866 45.9985 24.4473 46.0207 24.5053 46.0826C24.666 46.2547 24.8701 46.3896 25.1137 46.484C25.5206 46.642 25.9463 46.74 26.3455 46.8226C26.5474 46.8642 26.7308 46.8324 26.891 46.7278C26.9435 46.6934 26.9929 46.655 27.042 46.6165L27.1066 46.5667C27.135 46.5452 27.1426 46.5061 27.1246 46.4735L27.1047 46.4372C27.0884 46.4075 27.0547 46.3903 27.0215 46.3947C27.0016 46.3973 26.9817 46.3995 26.9617 46.4018C26.9129 46.4071 26.8624 46.4126 26.8123 46.4252C26.755 46.4397 26.7017 46.4613 26.6501 46.4824L26.6099 46.4985C26.5322 46.5291 26.4649 46.5258 26.3913 46.488C26.2335 46.4072 26.0751 46.3272 25.9167 46.2472C25.6375 46.1063 25.3583 45.9656 25.0821 45.819C24.8523 45.6975 24.6145 45.6197 24.3752 45.5878C24.1102 45.5524 23.8746 45.6464 23.6748 45.7371C23.425 45.8504 23.1756 45.9735 22.9345 46.0923C22.815 46.1513 22.6954 46.2104 22.5754 46.2683L22.497 46.3071C22.3217 46.3944 22.156 46.4767 21.9578 46.47C21.8943 46.4679 21.8396 46.5084 21.8189 46.5259C21.7517 46.5829 21.6703 46.6033 21.5606 46.6178L21.5013 46.6255C21.376 46.6414 21.2464 46.6577 21.128 46.7043C20.8398 46.818 20.5541 46.9478 20.2781 47.0731L20.171 47.1216C20.1552 47.1289 20.1467 47.1315 20.1445 47.1327C20.0953 47.0774 20.0204 47.0314 19.9437 46.9907C19.9243 46.9805 19.9049 46.9701 19.8859 46.9593L20.0405 46.9224C20.0783 46.9134 20.1014 46.8776 20.0939 46.8393L20.0871 46.8055C20.0792 46.7671 20.043 46.739 20.0034 46.7402L19.808 46.7476L20.0075 46.6903C20.0463 46.6793 20.0674 46.6401 20.0559 46.6011L20.0456 46.5664C20.0346 46.5289 19.9972 46.5041 19.9585 46.508L19.8418 46.5196L19.9298 46.4802C19.9654 46.4642 19.981 46.4237 19.9656 46.3868L19.951 46.3527C19.9356 46.3162 19.8948 46.2949 19.8566 46.304L19.8024 46.3169C19.8213 46.3045 19.8325 46.2843 19.8337 46.2625C19.9595 46.2563 20.0726 46.2039 20.1528 46.1127C20.2305 46.0245 20.2669 45.9099 20.2555 45.7955C20.3158 45.8238 20.3748 45.8507 20.4353 45.8734C20.7675 45.9991 21.081 45.8774 21.2153 45.5702C21.3129 45.347 21.3007 45.0975 21.1782 44.8072C20.9958 44.3759 20.6703 44.0404 20.2131 43.8127C20.2062 43.8092 20.2 43.8061 20.1971 43.8129C20.1971 43.8127 20.1968 43.8072 20.2013 43.7923C20.2786 43.5311 20.1401 43.2768 19.8686 43.1872C19.7958 43.1633 19.7215 43.159 19.6493 43.1549L19.6325 43.1539C19.6267 43.1506 19.6207 43.1476 19.6148 43.1445C19.4855 42.6591 19.1215 42.4272 18.6254 42.5103C18.5411 42.3377 18.464 42.2363 18.3729 42.1767C18.1968 42.0615 17.9964 42.132 17.8027 42.2359C17.7952 42.2303 17.7879 42.2245 17.7806 42.2189C17.2433 41.79 16.7199 41.6532 16.1674 41.792C15.9162 41.8551 15.7368 42.0039 15.6485 42.2219C15.5652 42.4282 15.6227 42.6416 15.8196 42.8565C15.8636 42.9043 15.9113 42.9461 15.9586 42.9859C15.9093 43.0052 15.8599 43.0276 15.8166 43.0617C15.6677 43.1798 15.6274 43.3653 15.6966 43.5534C15.6764 43.5629 15.6616 43.5812 15.6574 43.6038L15.6476 43.5492C15.6407 43.5099 15.6043 43.4807 15.564 43.4821L15.5293 43.4833C15.4896 43.4844 15.4593 43.5149 15.4589 43.5533L15.4578 43.6532L15.4215 43.5402C15.409 43.5016 15.3682 43.4772 15.3285 43.4844L15.291 43.4914C15.2523 43.4984 15.2287 43.5454 15.2344 43.5839L15.2621 43.7734L15.1895 43.5902C15.1743 43.5525 15.1327 43.5305 15.0938 43.5403L15.0622 43.5481C15.0248 43.5572 15.002 43.5924 15.0091 43.6301L15.0357 43.7764C14.9982 43.7482 14.959 43.719 14.9165 43.6881C14.8916 43.6719 14.8626 43.6596 14.8327 43.6529C14.7933 43.6438 14.7741 43.6197 14.7766 43.5784L14.7818 43.4935C14.7896 43.3732 14.7974 43.249 14.7983 43.1251C14.8006 42.7965 14.8031 42.424 14.6643 42.0587C14.6585 42.0436 14.6478 42.0152 14.6486 42.0062C14.6857 41.8304 14.6443 41.6639 14.6044 41.503L14.5913 41.4499C14.5863 41.429 14.5864 41.4046 14.5871 41.3879L14.5916 41.2316C14.5957 41.0852 14.5998 40.9388 14.6088 40.7931L14.6175 40.6587C14.6399 40.3151 14.6628 39.9595 14.6289 39.6028C14.6059 39.3597 14.5445 39.1791 14.4299 39.017C14.2663 38.7859 14.0519 38.6134 13.8445 38.4466C13.6299 38.2738 13.4184 38.0975 13.2069 37.9209C13.0907 37.8239 12.9745 37.7268 12.8577 37.6304C12.7972 37.5802 12.7692 37.5192 12.7676 37.4322C12.766 37.3576 12.7625 37.2698 12.7474 37.183C12.7397 37.1375 12.7222 37.0972 12.7053 37.0583C12.6991 37.0436 12.6927 37.029 12.6871 37.0142C12.6728 36.9762 12.6218 36.9566 12.5831 36.9649L12.562 36.9693C12.5368 36.9747 12.5167 36.992 12.5088 37.0157C12.4254 37.2636 12.3744 37.5294 12.5651 37.7943C12.7444 38.0436 12.9331 38.2866 13.0774 38.4704C13.3882 38.8657 13.6783 39.0953 14.0606 39.241C14.086 39.2576 14.1179 39.302 14.1365 39.3465C14.2311 39.5738 14.2711 39.8299 14.2623 40.1524C14.2484 40.6526 14.2279 41.1475 14.2078 41.6076C14.1975 41.8391 14.1854 42.0701 14.1732 42.3013C14.1629 42.4973 14.1526 42.6935 14.1434 42.8895C14.1315 43.1461 14.1241 43.403 14.1168 43.6598C14.1158 43.6972 14.1185 43.7334 14.1251 43.7688C14.1091 43.7551 14.0906 43.7438 14.0716 43.7326L14.0521 43.7208C14.0198 43.6997 13.9772 43.7041 13.9524 43.7305L13.9312 43.7527C13.9052 43.7798 13.9052 43.8228 13.9315 43.8529L14.2642 44.2346L14.2524 44.2428L13.8785 43.8917C13.8481 43.863 13.8009 43.8611 13.7718 43.8878L13.7496 43.9081C13.7255 43.9302 13.72 43.966 13.7362 43.9962C13.7952 44.1063 13.88 44.1943 13.9621 44.2793C13.9949 44.3134 14.0264 44.3461 14.0562 44.3798L13.6808 44.0647C13.6481 44.0371 13.6011 44.0385 13.5737 44.0674L13.5446 44.098C13.5176 44.1263 13.5192 44.1715 13.5482 44.2013L13.8878 44.5502C13.8798 44.5587 13.8719 44.5673 13.8646 44.5764C13.8549 44.5884 13.85 44.5909 13.8493 44.5847C13.8451 44.582 13.8407 44.5786 13.8358 44.5747C13.7474 44.5032 13.6533 44.4379 13.5621 44.3749L13.5188 44.3452C13.4917 44.3274 13.463 44.312 13.4344 44.2965L13.395 44.2749C13.3598 44.2551 13.3038 44.2811 13.2818 44.3118C13.263 44.338 13.2647 44.3741 13.2858 44.401C13.3719 44.5105 13.4798 44.5929 13.5842 44.6726C13.6215 44.7009 13.6585 44.7292 13.6946 44.7588C13.6899 44.766 13.6874 44.7709 13.6882 44.7723C13.6771 44.7705 13.6395 44.7514 13.6068 44.7344L13.5631 44.7107C13.5389 44.6976 13.515 44.6842 13.4904 44.6727C13.4333 44.6458 13.376 44.6196 13.3187 44.5936L13.251 44.5629C13.2139 44.5459 13.1712 44.5586 13.1529 44.592L13.1395 44.6165C13.1213 44.6505 13.1338 44.694 13.1684 44.7166L13.509 44.9395C13.4816 44.9514 13.4499 44.9498 13.4143 44.9348C13.3468 44.9063 13.2786 44.8791 13.2105 44.8517L13.1278 44.8183C13.0885 44.8026 13.0454 44.8188 13.0299 44.8552L13.0193 44.8801C13.0055 44.9133 13.0189 44.953 13.0511 44.974L13.1626 45.047L11.8267 45.4816C11.8097 45.4636 11.7934 45.4458 11.7774 45.4284C11.7166 45.3627 11.6592 45.3004 11.5953 45.2435C11.5271 45.1825 11.4516 45.1314 11.3785 45.0819L11.3369 45.0536C11.0554 44.8609 10.9107 44.6232 10.8818 44.305C10.8391 43.8383 10.7748 43.3376 10.6851 42.7743C10.6534 42.5765 10.6061 42.3784 10.5603 42.1865C10.5274 42.0487 10.4944 41.9107 10.467 41.772C10.4016 41.4415 10.2406 41.1471 9.98912 40.897C9.93022 40.8385 9.87165 40.7795 9.81306 40.7205C9.6661 40.5723 9.51389 40.4192 9.35806 40.2739C8.9501 39.8961 8.79184 39.4916 8.8732 39.0387Z"/>
</mask>
<path d="M8.8732 39.0387C8.87896 39.0063 8.87725 38.9748 8.8754 38.9412C8.87454 38.9254 8.87359 38.9084 8.87336 38.8891C8.8729 38.8604 8.85605 38.8342 8.8287 38.8193C8.80185 38.8054 8.77004 38.8072 8.7469 38.8241C8.60403 38.928 8.52777 39.0515 8.45609 39.1796C8.32187 39.4194 8.32973 39.6833 8.47867 39.9431C8.59668 40.1488 8.77562 40.2903 8.95129 40.4125L8.99652 40.4438C9.0793 40.5014 9.16213 40.5586 9.23749 40.6171C9.23908 40.619 9.24123 40.6229 9.24307 40.6267C9.19033 40.7203 9.21587 40.8145 9.31921 40.9068C9.40979 40.988 9.50367 41.0658 9.59855 41.1424C9.94617 41.4226 10.1571 41.7572 10.2435 42.1658C10.3053 42.4592 10.3041 42.7602 10.3031 43.0514C10.3028 43.1148 10.3027 43.1783 10.303 43.2417C10.3058 43.7261 10.3092 44.2106 10.3145 44.6951C10.317 44.9194 10.4037 45.1212 10.5652 45.2789C10.6846 45.3955 10.8104 45.5084 10.932 45.6175C10.977 45.6579 11.022 45.6983 11.0671 45.7391C10.8906 45.8015 10.714 45.8636 10.5376 45.9258C10.1051 46.0781 9.67249 46.2303 9.24257 46.3883C8.19459 46.7738 7.18657 47.197 6.24621 47.6465C5.13996 48.1753 4.27139 48.6763 3.51258 49.2232C3.10988 49.5135 2.81034 49.7827 2.56962 50.0702C2.23712 50.4674 1.99439 50.9505 1.84844 51.5061C1.77381 51.79 1.77372 52.0421 1.84849 52.2766C1.99024 52.7219 2.30965 53.0359 2.79909 53.2088C3.24742 53.3676 3.70243 53.429 4.16785 53.4828C5.36317 53.6211 6.41575 53.6867 7.3856 53.683C7.67407 53.6819 7.96606 53.6708 8.24835 53.6604L8.2915 53.6586C8.35502 53.6586 8.41866 53.6582 8.48222 53.6576C8.55418 53.6568 8.62711 53.6558 8.70051 53.6543L8.7008 53.6873C8.70128 53.7161 8.71763 53.7431 8.74499 53.7571C8.84623 53.8104 8.94819 53.8167 9.04708 53.8209C8.97075 53.8367 8.88735 53.8576 8.80836 53.9104C8.785 53.9262 8.77338 53.9537 8.7786 53.9822C8.78377 54.0107 8.80497 54.0344 8.83283 54.0444C8.87528 54.0593 8.91526 54.0664 8.95309 54.0687C8.92157 54.0839 8.891 54.103 8.86244 54.1278C8.8418 54.1457 8.83372 54.1736 8.84127 54.2008C8.84877 54.228 8.8711 54.2497 8.89855 54.2578C8.94075 54.2698 8.98097 54.2742 9.01941 54.2741C9.01117 54.2769 9.00311 54.2797 8.99502 54.2825L8.93717 54.3024C8.8979 54.3156 8.87876 54.3579 8.89441 54.3973L8.90663 54.4286C8.91676 54.4551 8.94041 54.475 8.96879 54.4804C9.01314 54.4889 9.05531 54.4901 9.09583 54.4869C9.06582 54.5033 9.03702 54.5236 9.01039 54.5495C8.99172 54.5677 8.98476 54.5948 8.99219 54.6207C8.9996 54.6469 9.0204 54.6677 9.04678 54.6762C9.07634 54.6856 9.1174 54.6966 9.16078 54.6947C9.13384 54.7151 9.10851 54.7385 9.0853 54.7668C9.06756 54.7884 9.06445 54.8185 9.07749 54.8449C9.09019 54.8714 9.11678 54.8892 9.14592 54.8915C9.17779 54.8939 9.20813 54.8926 9.237 54.8887C9.23618 54.8894 9.23521 54.8902 9.23461 54.8908L9.20199 54.9193C9.17527 54.9419 9.16947 54.9805 9.18811 55.0122L9.20285 55.037C9.22089 55.0673 9.25688 55.0833 9.29079 55.076C9.29365 55.0754 9.29632 55.0751 9.29919 55.0744C9.29748 55.0765 9.29585 55.0786 9.29404 55.0808C9.27614 55.1036 9.2743 55.1356 9.28951 55.1623C9.30459 55.189 9.33406 55.2054 9.36449 55.2043C9.43923 55.2016 9.5033 55.1803 9.56079 55.152C9.51805 55.1887 9.47958 55.2319 9.45162 55.2887C9.43917 55.3138 9.44294 55.3445 9.4614 55.3679C9.47973 55.3914 9.50944 55.4035 9.5382 55.3994C9.66837 55.3805 9.75999 55.3116 9.84849 55.2451C9.87077 55.2284 9.89288 55.2116 9.91586 55.1959L9.91733 55.1974L9.91358 55.2012C9.87389 55.2399 9.83601 55.2769 9.80031 55.3156C9.76545 55.3536 9.73279 55.3934 9.70013 55.4332L9.65869 55.4835C9.63357 55.5135 9.63807 55.5589 9.66903 55.5871L9.69605 55.6117C9.71909 55.6325 9.75146 55.6391 9.77915 55.6286C9.805 55.6188 9.8289 55.6069 9.85126 55.5937C9.84165 55.6122 9.83552 55.6308 9.82996 55.6477L9.82206 55.6704C9.80913 55.7035 9.84474 55.756 9.87679 55.7769C9.87722 55.7772 9.87757 55.7774 9.878 55.7777C9.89675 55.7894 9.91895 55.7934 9.93947 55.7886C9.93757 55.7932 9.93578 55.7977 9.93399 55.8025C9.92437 55.8278 9.92995 55.8569 9.94873 55.8787C9.96716 55.9009 9.99623 55.9116 10.0239 55.9071C10.0417 55.9043 10.0584 55.9004 10.0738 55.8953L10.0705 55.9019C10.0523 55.9366 10.096 56.0033 10.1283 56.019C10.1505 56.0327 10.1773 56.0351 10.2001 56.0259C10.2005 56.0499 10.2125 56.074 10.2345 56.0896L10.2693 56.1145C10.2964 56.1333 10.3283 56.1351 10.3544 56.1207C10.4578 56.0629 10.5168 55.973 10.5739 55.8863C10.5929 55.8573 10.6112 55.8294 10.6309 55.8034L10.6416 55.8104L10.6389 55.8145C10.6069 55.8625 10.5761 55.9089 10.547 55.9567C10.4733 56.0776 10.4352 56.1515 10.5064 56.2585C10.521 56.2806 10.5458 56.2947 10.5724 56.2957C10.5912 56.2965 10.6091 56.2905 10.6226 56.2794C10.6224 56.2849 10.6222 56.2904 10.6221 56.2962C10.6219 56.3237 10.6377 56.3506 10.6616 56.365C10.6862 56.3799 10.7164 56.3812 10.7406 56.3682C10.7522 56.3619 10.7632 56.3551 10.7737 56.3477C10.7731 56.3561 10.7727 56.3645 10.7716 56.3725C10.7669 56.4092 10.8184 56.4547 10.8551 56.4674C10.8867 56.4782 10.9204 56.4688 10.9395 56.4442L10.9412 56.4421C10.9447 56.4654 10.9583 56.4865 10.98 56.4998C11.0035 56.514 11.0322 56.5158 11.0558 56.5045C11.0948 56.4859 11.1243 56.4633 11.1457 56.436C11.1426 56.4643 11.142 56.4938 11.1449 56.5243C11.1476 56.5537 11.1677 56.5796 11.1964 56.5916L11.2328 56.6062C11.2716 56.6217 11.3145 56.6058 11.3303 56.5699L11.4832 56.2218C11.4782 56.249 11.4714 56.2767 11.4645 56.3052C11.44 56.406 11.4121 56.5203 11.4617 56.6471C11.4733 56.677 11.502 56.6978 11.534 56.6995C11.566 56.7014 11.5948 56.684 11.6063 56.6555C11.6353 56.5843 11.6565 56.5118 11.6751 56.4399C11.6592 56.5301 11.6537 56.6292 11.7069 56.7357C11.7213 56.7638 11.751 56.7821 11.7826 56.7815C11.7995 56.7811 11.8151 56.7755 11.8274 56.7659C11.8312 56.7731 11.836 56.78 11.8419 56.7862C11.8591 56.8036 11.8831 56.8129 11.907 56.8113L11.962 56.8077C11.9941 56.8057 12.0203 56.7843 12.0278 56.7541L12.0343 56.7291C12.0427 56.755 12.0545 56.7812 12.0707 56.8077C12.0848 56.8313 12.1101 56.8463 12.1373 56.8477C12.1646 56.8491 12.1896 56.8366 12.2034 56.8146C12.2243 56.7815 12.2377 56.7481 12.246 56.7145C12.2548 56.7395 12.2663 56.7647 12.2815 56.7892C12.2967 56.8136 12.324 56.8288 12.3527 56.8286L12.3863 56.8284C12.4284 56.8282 12.4606 56.795 12.4585 56.754L12.4541 56.6665C12.4686 56.7122 12.4892 56.7573 12.5204 56.8012C12.5378 56.8251 12.5669 56.8387 12.596 56.8359L12.6291 56.8324C12.6704 56.8283 12.6987 56.7928 12.6934 56.7521L12.6847 56.6879C12.6959 56.7165 12.71 56.7449 12.7282 56.7725C12.7455 56.7986 12.7768 56.8133 12.8076 56.8095L12.8498 56.8043C12.8899 56.7994 12.9173 56.765 12.9126 56.7253L12.9057 56.6659C12.9192 56.6896 12.936 56.7127 12.9569 56.7347C12.9756 56.7547 13.003 56.764 13.0291 56.76L13.0613 56.7549C13.101 56.7486 13.1271 56.7131 13.121 56.6736L13.0875 56.4612C13.0876 56.4613 13.0877 56.4615 13.0879 56.4618C13.1296 56.5497 13.177 56.6492 13.2735 56.7202C13.2989 56.7395 13.3294 56.7416 13.3552 56.7294L13.3867 56.7143C13.3874 56.7163 13.3881 56.7184 13.389 56.7202C13.4895 56.9834 13.5936 57.2554 13.7038 57.5209C14.1668 58.6366 14.7335 59.7548 15.4363 60.939C15.6401 61.2823 15.8848 61.6764 16.2133 62.0082C16.295 62.0906 16.3835 62.1633 16.4766 62.2242C16.9123 62.5093 17.4369 62.5282 17.8798 62.2749C18.286 62.0427 18.5792 61.7018 18.7892 61.4308C19.2435 60.8445 19.4295 60.1488 19.5516 59.5458C19.7102 58.7628 19.807 57.9457 19.8391 57.117C19.8632 56.4962 19.8869 55.7633 19.8824 55.0335C19.8757 53.9766 19.8159 52.8293 19.6993 51.526C19.695 51.478 19.6916 51.43 19.6883 51.3798C19.7409 51.4034 19.7933 51.4276 19.8458 51.4517C19.9919 51.5189 20.1429 51.5883 20.2956 51.6487C20.421 51.698 20.5863 51.7482 20.7519 51.6952C20.893 51.65 21.0588 51.5951 21.2179 51.5305C21.3766 51.4663 21.5339 51.3992 21.6913 51.3323C21.8279 51.2741 21.9647 51.2158 22.1022 51.1594C22.1908 51.1231 22.2792 51.086 22.3675 51.049C22.624 50.9413 22.8891 50.8301 23.1564 50.7403C23.5628 50.604 23.9874 50.6413 24.4188 50.8512L24.5354 50.9091C24.6343 50.9585 24.7367 51.0098 24.8412 51.0534C24.8986 51.0775 25.0302 51.0873 25.0771 51.02C25.0908 51.0002 25.0989 50.9973 25.0989 50.9973C25.109 50.9966 25.1432 51.0167 25.1594 51.0262C25.2067 51.0542 25.2535 51.083 25.3005 51.1117C25.4047 51.1754 25.5127 51.2413 25.6238 51.2992C25.9175 51.4523 26.1817 51.4788 26.4316 51.3805C26.7123 51.2699 26.8405 51.0324 26.9375 50.7923C26.9486 50.7646 26.9416 50.7401 26.9369 50.7239L26.9327 50.7077C26.9278 50.6835 26.9114 50.6611 26.888 50.6512C26.865 50.6399 26.8385 50.6399 26.8169 50.6512L26.7674 50.6763C26.733 50.6933 26.7013 50.7094 26.671 50.7275C26.3238 50.9376 25.9784 50.9743 25.615 50.8399C25.4081 50.7634 25.2026 50.6828 24.9971 50.6023C24.8326 50.5378 24.668 50.4732 24.5027 50.4109C24.223 50.305 23.9539 50.273 23.7027 50.3154L23.5366 50.343C23.3221 50.3779 23.1001 50.4144 22.8868 50.4699C22.3125 50.6201 21.6956 50.7853 21.074 50.9775C20.7775 51.0693 20.5144 51.0394 20.2465 50.8832C20.2067 50.8599 20.1675 50.8354 20.1282 50.8109C19.9739 50.7143 19.8149 50.6149 19.619 50.5896L19.5559 49.9416C19.5474 49.8075 19.5385 49.6736 19.529 49.5394C19.5228 49.4535 19.5115 49.379 19.4958 49.3235L19.482 49.1816L19.5955 49.2558C19.6288 49.2776 19.6723 49.2728 19.6966 49.2446L19.7137 49.2248C19.739 49.1956 19.7356 49.1509 19.7061 49.1223L19.6329 49.0509C19.5806 48.9997 19.5282 48.9486 19.4749 48.8984C19.4529 48.8776 19.4414 48.8478 19.4412 48.8233L19.7821 49.0464C19.8158 49.0685 19.8737 49.0466 19.8979 49.0177C19.9212 48.9898 19.9192 48.9482 19.893 48.9196L19.8779 48.9023C19.863 48.8849 19.8477 48.8677 19.8303 48.8528C19.7495 48.7831 19.6679 48.7144 19.5838 48.6452C19.5626 48.6276 19.5405 48.6096 19.531 48.6041C19.5338 48.5968 19.5367 48.5895 19.5399 48.5821C19.5782 48.6021 19.616 48.6235 19.654 48.645C19.7683 48.7092 19.8865 48.7759 20.0224 48.8092C20.0565 48.8175 20.0906 48.8032 20.1063 48.774L20.1165 48.7546C20.1344 48.7207 20.1217 48.6776 20.0874 48.6552L19.6325 48.3575L19.6479 48.3184L20.101 48.4907C20.1402 48.5055 20.1824 48.4888 20.1975 48.4526L20.2142 48.4119C20.2296 48.3752 20.2114 48.3307 20.1736 48.3131L19.7526 48.1053L20.1934 48.2438C20.2335 48.2565 20.2792 48.2233 20.2915 48.1855L20.2996 48.1604C20.3114 48.1235 20.2907 48.0829 20.2533 48.0653L19.7812 47.8601L19.7847 47.8439C19.8163 47.8545 19.8474 47.8658 19.8785 47.877C20.0115 47.9248 20.1491 47.9745 20.3004 47.9772C20.3316 47.9778 20.3589 47.96 20.3697 47.932C20.3806 47.9043 20.3728 47.8717 20.35 47.8496C20.3241 47.8242 20.2953 47.8034 20.2646 47.7873C20.306 47.7781 20.3469 47.7637 20.3873 47.7443L20.6203 47.6331C20.7524 47.5704 20.8844 47.5076 21.0156 47.4432C21.2919 47.3075 21.568 47.1713 21.8443 47.0352C22.3655 46.778 22.8867 46.5209 23.41 46.2673C23.6537 46.1494 23.9486 46.0258 24.2878 46.0047C24.3866 45.9985 24.4473 46.0207 24.5053 46.0826C24.666 46.2547 24.8701 46.3896 25.1137 46.484C25.5206 46.642 25.9463 46.74 26.3455 46.8226C26.5474 46.8642 26.7308 46.8324 26.891 46.7278C26.9435 46.6934 26.9929 46.655 27.042 46.6165L27.1066 46.5667C27.135 46.5452 27.1426 46.5061 27.1246 46.4735L27.1047 46.4372C27.0884 46.4075 27.0547 46.3903 27.0215 46.3947C27.0016 46.3973 26.9817 46.3995 26.9617 46.4018C26.9129 46.4071 26.8624 46.4126 26.8123 46.4252C26.755 46.4397 26.7017 46.4613 26.6501 46.4824L26.6099 46.4985C26.5322 46.5291 26.4649 46.5258 26.3913 46.488C26.2335 46.4072 26.0751 46.3272 25.9167 46.2472C25.6375 46.1063 25.3583 45.9656 25.0821 45.819C24.8523 45.6975 24.6145 45.6197 24.3752 45.5878C24.1102 45.5524 23.8746 45.6464 23.6748 45.7371C23.425 45.8504 23.1756 45.9735 22.9345 46.0923C22.815 46.1513 22.6954 46.2104 22.5754 46.2683L22.497 46.3071C22.3217 46.3944 22.156 46.4767 21.9578 46.47C21.8943 46.4679 21.8396 46.5084 21.8189 46.5259C21.7517 46.5829 21.6703 46.6033 21.5606 46.6178L21.5013 46.6255C21.376 46.6414 21.2464 46.6577 21.128 46.7043C20.8398 46.818 20.5541 46.9478 20.2781 47.0731L20.171 47.1216C20.1552 47.1289 20.1467 47.1315 20.1445 47.1327C20.0953 47.0774 20.0204 47.0314 19.9437 46.9907C19.9243 46.9805 19.9049 46.9701 19.8859 46.9593L20.0405 46.9224C20.0783 46.9134 20.1014 46.8776 20.0939 46.8393L20.0871 46.8055C20.0792 46.7671 20.043 46.739 20.0034 46.7402L19.808 46.7476L20.0075 46.6903C20.0463 46.6793 20.0674 46.6401 20.0559 46.6011L20.0456 46.5664C20.0346 46.5289 19.9972 46.5041 19.9585 46.508L19.8418 46.5196L19.9298 46.4802C19.9654 46.4642 19.981 46.4237 19.9656 46.3868L19.951 46.3527C19.9356 46.3162 19.8948 46.2949 19.8566 46.304L19.8024 46.3169C19.8213 46.3045 19.8325 46.2843 19.8337 46.2625C19.9595 46.2563 20.0726 46.2039 20.1528 46.1127C20.2305 46.0245 20.2669 45.9099 20.2555 45.7955C20.3158 45.8238 20.3748 45.8507 20.4353 45.8734C20.7675 45.9991 21.081 45.8774 21.2153 45.5702C21.3129 45.347 21.3007 45.0975 21.1782 44.8072C20.9958 44.3759 20.6703 44.0404 20.2131 43.8127C20.2062 43.8092 20.2 43.8061 20.1971 43.8129C20.1971 43.8127 20.1968 43.8072 20.2013 43.7923C20.2786 43.5311 20.1401 43.2768 19.8686 43.1872C19.7958 43.1633 19.7215 43.159 19.6493 43.1549L19.6325 43.1539C19.6267 43.1506 19.6207 43.1476 19.6148 43.1445C19.4855 42.6591 19.1215 42.4272 18.6254 42.5103C18.5411 42.3377 18.464 42.2363 18.3729 42.1767C18.1968 42.0615 17.9964 42.132 17.8027 42.2359C17.7952 42.2303 17.7879 42.2245 17.7806 42.2189C17.2433 41.79 16.7199 41.6532 16.1674 41.792C15.9162 41.8551 15.7368 42.0039 15.6485 42.2219C15.5652 42.4282 15.6227 42.6416 15.8196 42.8565C15.8636 42.9043 15.9113 42.9461 15.9586 42.9859C15.9093 43.0052 15.8599 43.0276 15.8166 43.0617C15.6677 43.1798 15.6274 43.3653 15.6966 43.5534C15.6764 43.5629 15.6616 43.5812 15.6574 43.6038L15.6476 43.5492C15.6407 43.5099 15.6043 43.4807 15.564 43.4821L15.5293 43.4833C15.4896 43.4844 15.4593 43.5149 15.4589 43.5533L15.4578 43.6532L15.4215 43.5402C15.409 43.5016 15.3682 43.4772 15.3285 43.4844L15.291 43.4914C15.2523 43.4984 15.2287 43.5454 15.2344 43.5839L15.2621 43.7734L15.1895 43.5902C15.1743 43.5525 15.1327 43.5305 15.0938 43.5403L15.0622 43.5481C15.0248 43.5572 15.002 43.5924 15.0091 43.6301L15.0357 43.7764C14.9982 43.7482 14.959 43.719 14.9165 43.6881C14.8916 43.6719 14.8626 43.6596 14.8327 43.6529C14.7933 43.6438 14.7741 43.6197 14.7766 43.5784L14.7818 43.4935C14.7896 43.3732 14.7974 43.249 14.7983 43.1251C14.8006 42.7965 14.8031 42.424 14.6643 42.0587C14.6585 42.0436 14.6478 42.0152 14.6486 42.0062C14.6857 41.8304 14.6443 41.6639 14.6044 41.503L14.5913 41.4499C14.5863 41.429 14.5864 41.4046 14.5871 41.3879L14.5916 41.2316C14.5957 41.0852 14.5998 40.9388 14.6088 40.7931L14.6175 40.6587C14.6399 40.3151 14.6628 39.9595 14.6289 39.6028C14.6059 39.3597 14.5445 39.1791 14.4299 39.017C14.2663 38.7859 14.0519 38.6134 13.8445 38.4466C13.6299 38.2738 13.4184 38.0975 13.2069 37.9209C13.0907 37.8239 12.9745 37.7268 12.8577 37.6304C12.7972 37.5802 12.7692 37.5192 12.7676 37.4322C12.766 37.3576 12.7625 37.2698 12.7474 37.183C12.7397 37.1375 12.7222 37.0972 12.7053 37.0583C12.6991 37.0436 12.6927 37.029 12.6871 37.0142C12.6728 36.9762 12.6218 36.9566 12.5831 36.9649L12.562 36.9693C12.5368 36.9747 12.5167 36.992 12.5088 37.0157C12.4254 37.2636 12.3744 37.5294 12.5651 37.7943C12.7444 38.0436 12.9331 38.2866 13.0774 38.4704C13.3882 38.8657 13.6783 39.0953 14.0606 39.241C14.086 39.2576 14.1179 39.302 14.1365 39.3465C14.2311 39.5738 14.2711 39.8299 14.2623 40.1524C14.2484 40.6526 14.2279 41.1475 14.2078 41.6076C14.1975 41.8391 14.1854 42.0701 14.1732 42.3013C14.1629 42.4973 14.1526 42.6935 14.1434 42.8895C14.1315 43.1461 14.1241 43.403 14.1168 43.6598C14.1158 43.6972 14.1185 43.7334 14.1251 43.7688C14.1091 43.7551 14.0906 43.7438 14.0716 43.7326L14.0521 43.7208C14.0198 43.6997 13.9772 43.7041 13.9524 43.7305L13.9312 43.7527C13.9052 43.7798 13.9052 43.8228 13.9315 43.8529L14.2642 44.2346L14.2524 44.2428L13.8785 43.8917C13.8481 43.863 13.8009 43.8611 13.7718 43.8878L13.7496 43.9081C13.7255 43.9302 13.72 43.966 13.7362 43.9962C13.7952 44.1063 13.88 44.1943 13.9621 44.2793C13.9949 44.3134 14.0264 44.3461 14.0562 44.3798L13.6808 44.0647C13.6481 44.0371 13.6011 44.0385 13.5737 44.0674L13.5446 44.098C13.5176 44.1263 13.5192 44.1715 13.5482 44.2013L13.8878 44.5502C13.8798 44.5587 13.8719 44.5673 13.8646 44.5764C13.8549 44.5884 13.85 44.5909 13.8493 44.5847C13.8451 44.582 13.8407 44.5786 13.8358 44.5747C13.7474 44.5032 13.6533 44.4379 13.5621 44.3749L13.5188 44.3452C13.4917 44.3274 13.463 44.312 13.4344 44.2965L13.395 44.2749C13.3598 44.2551 13.3038 44.2811 13.2818 44.3118C13.263 44.338 13.2647 44.3741 13.2858 44.401C13.3719 44.5105 13.4798 44.5929 13.5842 44.6726C13.6215 44.7009 13.6585 44.7292 13.6946 44.7588C13.6899 44.766 13.6874 44.7709 13.6882 44.7723C13.6771 44.7705 13.6395 44.7514 13.6068 44.7344L13.5631 44.7107C13.5389 44.6976 13.515 44.6842 13.4904 44.6727C13.4333 44.6458 13.376 44.6196 13.3187 44.5936L13.251 44.5629C13.2139 44.5459 13.1712 44.5586 13.1529 44.592L13.1395 44.6165C13.1213 44.6505 13.1338 44.694 13.1684 44.7166L13.509 44.9395C13.4816 44.9514 13.4499 44.9498 13.4143 44.9348C13.3468 44.9063 13.2786 44.8791 13.2105 44.8517L13.1278 44.8183C13.0885 44.8026 13.0454 44.8188 13.0299 44.8552L13.0193 44.8801C13.0055 44.9133 13.0189 44.953 13.0511 44.974L13.1626 45.047L11.8267 45.4816C11.8097 45.4636 11.7934 45.4458 11.7774 45.4284C11.7166 45.3627 11.6592 45.3004 11.5953 45.2435C11.5271 45.1825 11.4516 45.1314 11.3785 45.0819L11.3369 45.0536C11.0554 44.8609 10.9107 44.6232 10.8818 44.305C10.8391 43.8383 10.7748 43.3376 10.6851 42.7743C10.6534 42.5765 10.6061 42.3784 10.5603 42.1865C10.5274 42.0487 10.4944 41.9107 10.467 41.772C10.4016 41.4415 10.2406 41.1471 9.98912 40.897C9.93022 40.8385 9.87165 40.7795 9.81306 40.7205C9.6661 40.5723 9.51389 40.4192 9.35806 40.2739C8.9501 39.8961 8.79184 39.4916 8.8732 39.0387Z" fill="black" stroke="white" stroke-width="2" mask="url(#path-63-inside-2)"/>
</g>
<defs>
<clipPath id="clip0">
<rect width="91" height="91" fill="white" transform="translate(9 149)"/>
</clipPath>
<clipPath id="clip1">
<rect width="32" height="32" fill="white" transform="translate(215 210)"/>
</clipPath>
<clipPath id="clip2">
<rect width="21.177" height="21.177" fill="white" transform="translate(11.595 35) rotate(33.1976)"/>
</clipPath>
</defs>
</svg>
